{
	"asset":{
		"generator":"Khronos glTF Blender I/O v4.3.47",
		"version":"2.0"
	},
	"scene":0,
	"scenes":[
		{
			"name":"Scene",
			"nodes":[
				0
			]
		}
	],
	"nodes":[
		{
			"mesh":0,
			"name":"mdl_zesty_room_door"
		}
	],
	"materials":[
		{
			"doubleSided":true,
			"name":"brushed-chrome",
			"pbrMetallicRoughness":{
				"baseColorFactor":[
					0.800000011920929,
					0.800000011920929,
					0.800000011920929,
					1
				],
				"metallicFactor":0.800000011920929,
				"roughnessFactor":0.25
			}
		},
		{
			"doubleSided":true,
			"emissiveFactor":[
				0.10000000149011612,
				0.10000000149011612,
				0.10000000149011612
			],
			"emissiveTexture":{
				"index":0
			},
			"name":"skyline",
			"pbrMetallicRoughness":{
				"baseColorTexture":{
					"index":1
				},
				"metallicFactor":0,
				"roughnessFactor":0.20000000298023224
			}
		}
	],
	"meshes":[
		{
			"name":"Circle.011",
			"primitives":[
				{
					"attributes":{
						"POSITION":0,
						"NORMAL":1,
						"TEXCOORD_0":2
					},
					"indices":3,
					"material":0
				},
				{
					"attributes":{
						"POSITION":4,
						"NORMAL":5,
						"TEXCOORD_0":6
					},
					"indices":7,
					"material":1
				}
			]
		}
	],
	"textures":[
		{
			"sampler":0,
			"source":0
		},
		{
			"sampler":0,
			"source":0
		}
	],
	"images":[
		{
			"mimeType":"image/jpeg",
			"name":"tx_zesty_wallskyline",
			"uri":"tx_zesty_wallskyline.jpg"
		}
	],
	"accessors":[
		{
			"bufferView":0,
			"componentType":5126,
			"count":104,
			"max":[
				4.51427698135376,
				3.249999761581421,
				1.727583646774292
			],
			"min":[
				3.464548110961914,
				0,
				-3.277484950103826e-10
			],
			"type":"VEC3"
		},
		{
			"bufferView":1,
			"componentType":5126,
			"count":104,
			"type":"VEC3"
		},
		{
			"bufferView":2,
			"componentType":5126,
			"count":104,
			"type":"VEC2"
		},
		{
			"bufferView":3,
			"componentType":5123,
			"count":216,
			"type":"SCALAR"
		},
		{
			"bufferView":4,
			"componentType":5126,
			"count":6,
			"max":[
				4.337404727935791,
				3.1557607650756836,
				1.5718270540237427
			],
			"min":[
				3.5555710792541504,
				0.09423909336328506,
				0.09530937671661377
			],
			"type":"VEC3"
		},
		{
			"bufferView":5,
			"componentType":5126,
			"count":6,
			"type":"VEC3"
		},
		{
			"bufferView":6,
			"componentType":5126,
			"count":6,
			"type":"VEC2"
		},
		{
			"bufferView":7,
			"componentType":5123,
			"count":12,
			"type":"SCALAR"
		}
	],
	"bufferViews":[
		{
			"buffer":0,
			"byteLength":1248,
			"byteOffset":0,
			"target":34962
		},
		{
			"buffer":0,
			"byteLength":1248,
			"byteOffset":1248,
			"target":34962
		},
		{
			"buffer":0,
			"byteLength":832,
			"byteOffset":2496,
			"target":34962
		},
		{
			"buffer":0,
			"byteLength":432,
			"byteOffset":3328,
			"target":34963
		},
		{
			"buffer":0,
			"byteLength":72,
			"byteOffset":3760,
			"target":34962
		},
		{
			"buffer":0,
			"byteLength":72,
			"byteOffset":3832,
			"target":34962
		},
		{
			"buffer":0,
			"byteLength":48,
			"byteOffset":3904,
			"target":34962
		},
		{
			"buffer":0,
			"byteLength":24,
			"byteOffset":3952,
			"target":34963
		}
	],
	"samplers":[
		{
			"magFilter":9729,
			"minFilter":9987
		}
	],
	"buffers":[
		{
			"byteLength":3976,
			"uri":"mdl_zesty_room_door.bin"
		}
	]
}
