{
	"asset":{
		"generator":"Khronos glTF Blender I/O v4.3.47",
		"version":"2.0"
	},
	"extensionsUsed":[
		"KHR_materials_transmission",
		"KHR_materials_emissive_strength",
		"KHR_materials_ior"
	],
	"scene":0,
	"scenes":[
		{
			"name":"Scene",
			"nodes":[
				0
			]
		}
	],
	"nodes":[
		{
			"mesh":0,
			"name":"mdl_zesty_room_static"
		}
	],
	"materials":[
		{
			"doubleSided":true,
			"name":"wall-white",
			"pbrMetallicRoughness":{
				"baseColorFactor":[
					0.800000011920929,
					0.800000011920929,
					0.800000011920929,
					1
				],
				"metallicFactor":0,
				"roughnessFactor":0.800000011920929
			}
		},
		{
			"doubleSided":true,
			"name":"toronto-flag-blue",
			"pbrMetallicRoughness":{
				"baseColorFactor":[
					0.015995990484952927,
					0.05448023974895477,
					0.2831488251686096,
					1
				],
				"metallicFactor":0,
				"roughnessFactor":0.5
			}
		},
		{
			"doubleSided":true,
			"name":"toronto-flag-white",
			"pbrMetallicRoughness":{
				"baseColorFactor":[
					0.800000011920929,
					0.800000011920929,
					0.800000011920929,
					1
				],
				"metallicFactor":0,
				"roughnessFactor":0.5
			}
		},
		{
			"doubleSided":true,
			"name":"gold",
			"pbrMetallicRoughness":{
				"baseColorFactor":[
					0.8016340732574463,
					0.5009856224060059,
					0.032477349042892456,
					1
				],
				"roughnessFactor":0.10000000149011612
			}
		},
		{
			"doubleSided":true,
			"name":"gold-dark",
			"pbrMetallicRoughness":{
				"baseColorFactor":[
					0.28291746973991394,
					0.16348318755626678,
					0.019985130056738853,
					1
				],
				"roughnessFactor":0.10000000149011612
			}
		},
		{
			"doubleSided":true,
			"extensions":{
				"KHR_materials_transmission":{
					"transmissionFactor":0.949999988079071
				},
				"KHR_materials_ior":{
					"ior":1.4500000476837158
				}
			},
			"name":"glass",
			"pbrMetallicRoughness":{
				"metallicFactor":0,
				"roughnessFactor":0
			}
		},
		{
			"doubleSided":true,
			"name":"black",
			"pbrMetallicRoughness":{
				"baseColorFactor":[
					0,
					0,
					0,
					1
				],
				"metallicFactor":0.1637011170387268,
				"roughnessFactor":0.5
			}
		},
		{
			"doubleSided":true,
			"name":"laminate-floor",
			"pbrMetallicRoughness":{
				"baseColorTexture":{
					"index":0
				},
				"metallicFactor":0,
				"roughnessFactor":0.30000001192092896
			}
		},
		{
			"doubleSided":true,
			"name":"brushed-chrome",
			"pbrMetallicRoughness":{
				"baseColorFactor":[
					0.800000011920929,
					0.800000011920929,
					0.800000011920929,
					1
				],
				"metallicFactor":0.800000011920929,
				"roughnessFactor":0.25
			}
		},
		{
			"doubleSided":true,
			"emissiveFactor":[
				1,
				1,
				1
			],
			"extensions":{
				"KHR_materials_emissive_strength":{
					"emissiveStrength":2
				}
			},
			"name":"toronto-sign-light-white",
			"pbrMetallicRoughness":{
				"baseColorFactor":[
					0.800000011920929,
					0.800000011920929,
					0.800000011920929,
					1
				],
				"metallicFactor":0,
				"roughnessFactor":0.5
			}
		},
		{
			"doubleSided":true,
			"name":"toronto-sign-blue",
			"pbrMetallicRoughness":{
				"baseColorFactor":[
					0.004391131456941366,
					0.10461651533842087,
					0.31854692101478577,
					1
				],
				"metallicFactor":0,
				"roughnessFactor":0.5
			}
		},
		{
			"doubleSided":true,
			"name":"toronto-sign-pink",
			"pbrMetallicRoughness":{
				"baseColorFactor":[
					0.6172035336494446,
					0.03071337565779686,
					0.11193245649337769,
					1
				],
				"metallicFactor":0,
				"roughnessFactor":0.5
			}
		},
		{
			"doubleSided":true,
			"name":"toronto-sign-green",
			"pbrMetallicRoughness":{
				"baseColorFactor":[
					0.17788703739643097,
					0.5583412647247314,
					0.003035398432984948,
					1
				],
				"metallicFactor":0,
				"roughnessFactor":0.5
			}
		},
		{
			"doubleSided":true,
			"name":"toronto-sign-purple",
			"pbrMetallicRoughness":{
				"baseColorFactor":[
					0.30465269088745117,
					0.0189284048974514,
					0.21177420020103455,
					1
				],
				"metallicFactor":0,
				"roughnessFactor":0.5
			}
		},
		{
			"doubleSided":true,
			"name":"toronto-sign-orange",
			"pbrMetallicRoughness":{
				"baseColorFactor":[
					0.49742192029953003,
					0.1162523701786995,
					0.01995471492409706,
					1
				],
				"metallicFactor":0,
				"roughnessFactor":0.5
			}
		},
		{
			"doubleSided":true,
			"name":"toronto-sign-yellow",
			"pbrMetallicRoughness":{
				"baseColorFactor":[
					1,
					0.7230560183525085,
					0.0024283980019390583,
					1
				],
				"metallicFactor":0,
				"roughnessFactor":0.5
			}
		}
	],
	"meshes":[
		{
			"name":"Circle.002",
			"primitives":[
				{
					"attributes":{
						"POSITION":0,
						"NORMAL":1,
						"TEXCOORD_0":2
					},
					"indices":3,
					"material":0
				},
				{
					"attributes":{
						"POSITION":4,
						"NORMAL":5,
						"TEXCOORD_0":6
					},
					"indices":7,
					"material":1
				},
				{
					"attributes":{
						"POSITION":8,
						"NORMAL":9,
						"TEXCOORD_0":10
					},
					"indices":11,
					"material":2
				},
				{
					"attributes":{
						"POSITION":12,
						"NORMAL":13,
						"TEXCOORD_0":14
					},
					"indices":15,
					"material":3
				},
				{
					"attributes":{
						"POSITION":16,
						"NORMAL":17,
						"TEXCOORD_0":18
					},
					"indices":19,
					"material":4
				},
				{
					"attributes":{
						"POSITION":20,
						"NORMAL":21,
						"TEXCOORD_0":22
					},
					"indices":23,
					"material":5
				},
				{
					"attributes":{
						"POSITION":24,
						"NORMAL":25,
						"TEXCOORD_0":26
					},
					"indices":27,
					"material":6
				},
				{
					"attributes":{
						"POSITION":28,
						"NORMAL":29,
						"TEXCOORD_0":30
					},
					"indices":31,
					"material":7
				},
				{
					"attributes":{
						"POSITION":32,
						"NORMAL":33,
						"TEXCOORD_0":34
					},
					"indices":35,
					"material":8
				},
				{
					"attributes":{
						"POSITION":36,
						"NORMAL":37,
						"TEXCOORD_0":38
					},
					"indices":39,
					"material":9
				},
				{
					"attributes":{
						"POSITION":40,
						"NORMAL":41,
						"TEXCOORD_0":42
					},
					"indices":43,
					"material":10
				},
				{
					"attributes":{
						"POSITION":44,
						"NORMAL":45,
						"TEXCOORD_0":46
					},
					"indices":47,
					"material":11
				},
				{
					"attributes":{
						"POSITION":48,
						"NORMAL":49,
						"TEXCOORD_0":50
					},
					"indices":51,
					"material":12
				},
				{
					"attributes":{
						"POSITION":52,
						"NORMAL":53,
						"TEXCOORD_0":54
					},
					"indices":55,
					"material":13
				},
				{
					"attributes":{
						"POSITION":56,
						"NORMAL":57,
						"TEXCOORD_0":58
					},
					"indices":59,
					"material":14
				},
				{
					"attributes":{
						"POSITION":60,
						"NORMAL":61,
						"TEXCOORD_0":62
					},
					"indices":63,
					"material":15
				}
			]
		}
	],
	"textures":[
		{
			"sampler":0,
			"source":0
		}
	],
	"images":[
		{
			"mimeType":"image/jpeg",
			"name":"woodparquet_84_basecolor-1K",
			"uri":"woodparquet_84_basecolor-1K.jpg"
		}
	],
	"accessors":[
		{
			"bufferView":0,
			"componentType":5126,
			"count":155,
			"max":[
				4.301796913146973,
				4.274234294891357,
				4.299990653991699
			],
			"min":[
				-4.301796913146973,
				0,
				-4.3017964363098145
			],
			"type":"VEC3"
		},
		{
			"bufferView":1,
			"componentType":5126,
			"count":155,
			"type":"VEC3"
		},
		{
			"bufferView":2,
			"componentType":5126,
			"count":155,
			"type":"VEC2"
		},
		{
			"bufferView":3,
			"componentType":5123,
			"count":444,
			"type":"SCALAR"
		},
		{
			"bufferView":4,
			"componentType":5126,
			"count":248,
			"max":[
				3.1907355785369873,
				3.249999761581421,
				4.512426376342773
			],
			"min":[
				-3.1907355785369873,
				0,
				2.6530349254608154
			],
			"type":"VEC3"
		},
		{
			"bufferView":5,
			"componentType":5126,
			"count":248,
			"type":"VEC3"
		},
		{
			"bufferView":6,
			"componentType":5126,
			"count":248,
			"type":"VEC2"
		},
		{
			"bufferView":7,
			"componentType":5123,
			"count":720,
			"type":"SCALAR"
		},
		{
			"bufferView":8,
			"componentType":5126,
			"count":144,
			"max":[
				3.154409170150757,
				2.959681510925293,
				4.398688316345215
			],
			"min":[
				-3.154409170150757,
				0,
				2.9489686489105225
			],
			"type":"VEC3"
		},
		{
			"bufferView":9,
			"componentType":5126,
			"count":144,
			"type":"VEC3"
		},
		{
			"bufferView":10,
			"componentType":5126,
			"count":144,
			"type":"VEC2"
		},
		{
			"bufferView":11,
			"componentType":5123,
			"count":432,
			"type":"SCALAR"
		},
		{
			"bufferView":12,
			"componentType":5126,
			"count":1818,
			"max":[
				3.75,
				4.257849216461182,
				3.5752065181732178
			],
			"min":[
				-3.7513434886932373,
				-0.49124252796173096,
				-3.5752110481262207
			],
			"type":"VEC3"
		},
		{
			"bufferView":13,
			"componentType":5126,
			"count":1818,
			"type":"VEC3"
		},
		{
			"bufferView":14,
			"componentType":5126,
			"count":1818,
			"type":"VEC2"
		},
		{
			"bufferView":15,
			"componentType":5123,
			"count":2802,
			"type":"SCALAR"
		},
		{
			"bufferView":16,
			"componentType":5126,
			"count":1836,
			"max":[
				3.751349449157715,
				1,
				3.751342296600342
			],
			"min":[
				-3.7513442039489746,
				-0.49124252796173096,
				-3.7513468265533447
			],
			"type":"VEC3"
		},
		{
			"bufferView":17,
			"componentType":5126,
			"count":1836,
			"type":"VEC3"
		},
		{
			"bufferView":18,
			"componentType":5126,
			"count":1836,
			"type":"VEC2"
		},
		{
			"bufferView":19,
			"componentType":5123,
			"count":4524,
			"type":"SCALAR"
		},
		{
			"bufferView":20,
			"componentType":5126,
			"count":125,
			"max":[
				4.407660961151123,
				3.1557607650756836,
				3.0482420921325684
			],
			"min":[
				-4.407660961151123,
				0,
				-4.42631721496582
			],
			"type":"VEC3"
		},
		{
			"bufferView":21,
			"componentType":5126,
			"count":125,
			"type":"VEC3"
		},
		{
			"bufferView":22,
			"componentType":5126,
			"count":125,
			"type":"VEC2"
		},
		{
			"bufferView":23,
			"componentType":5123,
			"count":258,
			"type":"SCALAR"
		},
		{
			"bufferView":24,
			"componentType":5126,
			"count":144,
			"max":[
				3.75,
				0,
				3.7500007152557373
			],
			"min":[
				-3.75,
				-0.9251189827919006,
				-3.75
			],
			"type":"VEC3"
		},
		{
			"bufferView":25,
			"componentType":5126,
			"count":144,
			"type":"VEC3"
		},
		{
			"bufferView":26,
			"componentType":5126,
			"count":144,
			"type":"VEC2"
		},
		{
			"bufferView":27,
			"componentType":5123,
			"count":456,
			"type":"SCALAR"
		},
		{
			"bufferView":28,
			"componentType":5126,
			"count":56,
			"max":[
				3.75,
				0,
				3.751957893371582
			],
			"min":[
				-3.7513434886932373,
				0,
				0
			],
			"type":"VEC3"
		},
		{
			"bufferView":29,
			"componentType":5126,
			"count":56,
			"type":"VEC3"
		},
		{
			"bufferView":30,
			"componentType":5126,
			"count":56,
			"type":"VEC2"
		},
		{
			"bufferView":31,
			"componentType":5123,
			"count":183,
			"type":"SCALAR"
		},
		{
			"bufferView":32,
			"componentType":5126,
			"count":719,
			"max":[
				4.51427698135376,
				3.249999761581421,
				3.1907801628112793
			],
			"min":[
				-4.51427698135376,
				0,
				-4.5142316818237305
			],
			"type":"VEC3"
		},
		{
			"bufferView":33,
			"componentType":5126,
			"count":719,
			"type":"VEC3"
		},
		{
			"bufferView":34,
			"componentType":5126,
			"count":719,
			"type":"VEC2"
		},
		{
			"bufferView":35,
			"componentType":5123,
			"count":1824,
			"type":"SCALAR"
		},
		{
			"bufferView":36,
			"componentType":5126,
			"count":280,
			"max":[
				2.147408962249756,
				1.8281199932098389,
				3.8528201580047607
			],
			"min":[
				-2.210341453552246,
				1.1721441745758057,
				3.1727120876312256
			],
			"type":"VEC3"
		},
		{
			"bufferView":37,
			"componentType":5126,
			"count":280,
			"type":"VEC3"
		},
		{
			"bufferView":38,
			"componentType":5126,
			"count":280,
			"type":"VEC2"
		},
		{
			"bufferView":39,
			"componentType":5123,
			"count":828,
			"type":"SCALAR"
		},
		{
			"bufferView":40,
			"componentType":5126,
			"count":96,
			"max":[
				2.206199884414673,
				1.8278558254241943,
				3.954395294189453
			],
			"min":[
				-0.9407637119293213,
				1.1721441745758057,
				3.2090461254119873
			],
			"type":"VEC3"
		},
		{
			"bufferView":41,
			"componentType":5126,
			"count":96,
			"type":"VEC3"
		},
		{
			"bufferView":42,
			"componentType":5126,
			"count":96,
			"type":"VEC2"
		},
		{
			"bufferView":43,
			"componentType":5123,
			"count":168,
			"type":"SCALAR"
		},
		{
			"bufferView":44,
			"componentType":5126,
			"count":192,
			"max":[
				1.6660410165786743,
				1.8278558254241943,
				3.843090772628784
			],
			"min":[
				1.0096584558486938,
				1.1721441745758057,
				3.508333444595337
			],
			"type":"VEC3"
		},
		{
			"bufferView":45,
			"componentType":5126,
			"count":192,
			"type":"VEC3"
		},
		{
			"bufferView":46,
			"componentType":5126,
			"count":192,
			"type":"VEC2"
		},
		{
			"bufferView":47,
			"componentType":5123,
			"count":576,
			"type":"SCALAR"
		},
		{
			"bufferView":48,
			"componentType":5126,
			"count":192,
			"max":[
				0.32785576581954956,
				1.8278558254241943,
				3.9704020023345947
			],
			"min":[
				-0.32785576581954956,
				1.1721441745758057,
				3.8528201580047607
			],
			"type":"VEC3"
		},
		{
			"bufferView":49,
			"componentType":5126,
			"count":192,
			"type":"VEC3"
		},
		{
			"bufferView":50,
			"componentType":5126,
			"count":192,
			"type":"VEC2"
		},
		{
			"bufferView":51,
			"componentType":5123,
			"count":576,
			"type":"SCALAR"
		},
		{
			"bufferView":52,
			"componentType":5126,
			"count":46,
			"max":[
				-1.077944278717041,
				1.8278558254241943,
				3.818236827850342
			],
			"min":[
				-1.5977551937103271,
				1.1721441745758057,
				3.5331873893737793
			],
			"type":"VEC3"
		},
		{
			"bufferView":53,
			"componentType":5126,
			"count":46,
			"type":"VEC3"
		},
		{
			"bufferView":54,
			"componentType":5126,
			"count":46,
			"type":"VEC2"
		},
		{
			"bufferView":55,
			"componentType":5123,
			"count":84,
			"type":"SCALAR"
		},
		{
			"bufferView":56,
			"componentType":5126,
			"count":192,
			"max":[
				-1.6424787044525146,
				1.8278558254241943,
				3.6023967266082764
			],
			"min":[
				-2.269132375717163,
				1.1721441745758057,
				3.1727120876312256
			],
			"type":"VEC3"
		},
		{
			"bufferView":57,
			"componentType":5126,
			"count":192,
			"type":"VEC3"
		},
		{
			"bufferView":58,
			"componentType":5126,
			"count":192,
			"type":"VEC2"
		},
		{
			"bufferView":59,
			"componentType":5123,
			"count":576,
			"type":"SCALAR"
		},
		{
			"bufferView":60,
			"componentType":5126,
			"count":190,
			"max":[
				0.9407637119293213,
				1.8281199932098389,
				3.954395294189453
			],
			"min":[
				0.4177245497703552,
				1.1721441745758057,
				3.749974012374878
			],
			"type":"VEC3"
		},
		{
			"bufferView":61,
			"componentType":5126,
			"count":190,
			"type":"VEC3"
		},
		{
			"bufferView":62,
			"componentType":5126,
			"count":190,
			"type":"VEC2"
		},
		{
			"bufferView":63,
			"componentType":5123,
			"count":516,
			"type":"SCALAR"
		}
	],
	"bufferViews":[
		{
			"buffer":0,
			"byteLength":1860,
			"byteOffset":0,
			"target":34962
		},
		{
			"buffer":0,
			"byteLength":1860,
			"byteOffset":1860,
			"target":34962
		},
		{
			"buffer":0,
			"byteLength":1240,
			"byteOffset":3720,
			"target":34962
		},
		{
			"buffer":0,
			"byteLength":888,
			"byteOffset":4960,
			"target":34963
		},
		{
			"buffer":0,
			"byteLength":2976,
			"byteOffset":5848,
			"target":34962
		},
		{
			"buffer":0,
			"byteLength":2976,
			"byteOffset":8824,
			"target":34962
		},
		{
			"buffer":0,
			"byteLength":1984,
			"byteOffset":11800,
			"target":34962
		},
		{
			"buffer":0,
			"byteLength":1440,
			"byteOffset":13784,
			"target":34963
		},
		{
			"buffer":0,
			"byteLength":1728,
			"byteOffset":15224,
			"target":34962
		},
		{
			"buffer":0,
			"byteLength":1728,
			"byteOffset":16952,
			"target":34962
		},
		{
			"buffer":0,
			"byteLength":1152,
			"byteOffset":18680,
			"target":34962
		},
		{
			"buffer":0,
			"byteLength":864,
			"byteOffset":19832,
			"target":34963
		},
		{
			"buffer":0,
			"byteLength":21816,
			"byteOffset":20696,
			"target":34962
		},
		{
			"buffer":0,
			"byteLength":21816,
			"byteOffset":42512,
			"target":34962
		},
		{
			"buffer":0,
			"byteLength":14544,
			"byteOffset":64328,
			"target":34962
		},
		{
			"buffer":0,
			"byteLength":5604,
			"byteOffset":78872,
			"target":34963
		},
		{
			"buffer":0,
			"byteLength":22032,
			"byteOffset":84476,
			"target":34962
		},
		{
			"buffer":0,
			"byteLength":22032,
			"byteOffset":106508,
			"target":34962
		},
		{
			"buffer":0,
			"byteLength":14688,
			"byteOffset":128540,
			"target":34962
		},
		{
			"buffer":0,
			"byteLength":9048,
			"byteOffset":143228,
			"target":34963
		},
		{
			"buffer":0,
			"byteLength":1500,
			"byteOffset":152276,
			"target":34962
		},
		{
			"buffer":0,
			"byteLength":1500,
			"byteOffset":153776,
			"target":34962
		},
		{
			"buffer":0,
			"byteLength":1000,
			"byteOffset":155276,
			"target":34962
		},
		{
			"buffer":0,
			"byteLength":516,
			"byteOffset":156276,
			"target":34963
		},
		{
			"buffer":0,
			"byteLength":1728,
			"byteOffset":156792,
			"target":34962
		},
		{
			"buffer":0,
			"byteLength":1728,
			"byteOffset":158520,
			"target":34962
		},
		{
			"buffer":0,
			"byteLength":1152,
			"byteOffset":160248,
			"target":34962
		},
		{
			"buffer":0,
			"byteLength":912,
			"byteOffset":161400,
			"target":34963
		},
		{
			"buffer":0,
			"byteLength":672,
			"byteOffset":162312,
			"target":34962
		},
		{
			"buffer":0,
			"byteLength":672,
			"byteOffset":162984,
			"target":34962
		},
		{
			"buffer":0,
			"byteLength":448,
			"byteOffset":163656,
			"target":34962
		},
		{
			"buffer":0,
			"byteLength":366,
			"byteOffset":164104,
			"target":34963
		},
		{
			"buffer":0,
			"byteLength":8628,
			"byteOffset":164472,
			"target":34962
		},
		{
			"buffer":0,
			"byteLength":8628,
			"byteOffset":173100,
			"target":34962
		},
		{
			"buffer":0,
			"byteLength":5752,
			"byteOffset":181728,
			"target":34962
		},
		{
			"buffer":0,
			"byteLength":3648,
			"byteOffset":187480,
			"target":34963
		},
		{
			"buffer":0,
			"byteLength":3360,
			"byteOffset":191128,
			"target":34962
		},
		{
			"buffer":0,
			"byteLength":3360,
			"byteOffset":194488,
			"target":34962
		},
		{
			"buffer":0,
			"byteLength":2240,
			"byteOffset":197848,
			"target":34962
		},
		{
			"buffer":0,
			"byteLength":1656,
			"byteOffset":200088,
			"target":34963
		},
		{
			"buffer":0,
			"byteLength":1152,
			"byteOffset":201744,
			"target":34962
		},
		{
			"buffer":0,
			"byteLength":1152,
			"byteOffset":202896,
			"target":34962
		},
		{
			"buffer":0,
			"byteLength":768,
			"byteOffset":204048,
			"target":34962
		},
		{
			"buffer":0,
			"byteLength":336,
			"byteOffset":204816,
			"target":34963
		},
		{
			"buffer":0,
			"byteLength":2304,
			"byteOffset":205152,
			"target":34962
		},
		{
			"buffer":0,
			"byteLength":2304,
			"byteOffset":207456,
			"target":34962
		},
		{
			"buffer":0,
			"byteLength":1536,
			"byteOffset":209760,
			"target":34962
		},
		{
			"buffer":0,
			"byteLength":1152,
			"byteOffset":211296,
			"target":34963
		},
		{
			"buffer":0,
			"byteLength":2304,
			"byteOffset":212448,
			"target":34962
		},
		{
			"buffer":0,
			"byteLength":2304,
			"byteOffset":214752,
			"target":34962
		},
		{
			"buffer":0,
			"byteLength":1536,
			"byteOffset":217056,
			"target":34962
		},
		{
			"buffer":0,
			"byteLength":1152,
			"byteOffset":218592,
			"target":34963
		},
		{
			"buffer":0,
			"byteLength":552,
			"byteOffset":219744,
			"target":34962
		},
		{
			"buffer":0,
			"byteLength":552,
			"byteOffset":220296,
			"target":34962
		},
		{
			"buffer":0,
			"byteLength":368,
			"byteOffset":220848,
			"target":34962
		},
		{
			"buffer":0,
			"byteLength":168,
			"byteOffset":221216,
			"target":34963
		},
		{
			"buffer":0,
			"byteLength":2304,
			"byteOffset":221384,
			"target":34962
		},
		{
			"buffer":0,
			"byteLength":2304,
			"byteOffset":223688,
			"target":34962
		},
		{
			"buffer":0,
			"byteLength":1536,
			"byteOffset":225992,
			"target":34962
		},
		{
			"buffer":0,
			"byteLength":1152,
			"byteOffset":227528,
			"target":34963
		},
		{
			"buffer":0,
			"byteLength":2280,
			"byteOffset":228680,
			"target":34962
		},
		{
			"buffer":0,
			"byteLength":2280,
			"byteOffset":230960,
			"target":34962
		},
		{
			"buffer":0,
			"byteLength":1520,
			"byteOffset":233240,
			"target":34962
		},
		{
			"buffer":0,
			"byteLength":1032,
			"byteOffset":234760,
			"target":34963
		}
	],
	"samplers":[
		{
			"magFilter":9729,
			"minFilter":9987
		}
	],
	"buffers":[
		{
			"byteLength":235792,
			"uri":"mdl_zesty_room_static.bin"
		}
	]
}
