{
	"asset":{
		"generator":"Khronos glTF Blender I/O v4.3.47",
		"version":"2.0"
	},
	"scene":0,
	"scenes":[
		{
			"name":"Scene",
			"nodes":[
				0
			]
		}
	],
	"nodes":[
		{
			"mesh":0,
			"name":"mdl_zesty_condo_block"
		}
	],
	"materials":[
		{
			"doubleSided":true,
			"name":"Material",
			"pbrMetallicRoughness":{
				"baseColorFactor":[
					0.800000011920929,
					0.800000011920929,
					0.800000011920929,
					1
				],
				"metallicFactor":0,
				"roughnessFactor":0.5
			}
		}
	],
	"meshes":[
		{
			"name":"Cube",
			"primitives":[
				{
					"attributes":{
						"POSITION":0,
						"NORMAL":1,
						"TEXCOORD_0":2
					},
					"indices":3,
					"material":0
				}
			]
		}
	],
	"accessors":[
		{
			"bufferView":0,
			"componentType":5126,
			"count":1070,
			"max":[
				0.1666666567325592,
				0.16666662693023682,
				0.1666666716337204
			],
			"min":[
				-0.1666666865348816,
				-0.166666641831398,
				-0.166666641831398
			],
			"type":"VEC3"
		},
		{
			"bufferView":1,
			"componentType":5126,
			"count":1070,
			"type":"VEC3"
		},
		{
			"bufferView":2,
			"componentType":5126,
			"count":1070,
			"type":"VEC2"
		},
		{
			"bufferView":3,
			"componentType":5123,
			"count":2460,
			"type":"SCALAR"
		}
	],
	"bufferViews":[
		{
			"buffer":0,
			"byteLength":12840,
			"byteOffset":0,
			"target":34962
		},
		{
			"buffer":0,
			"byteLength":12840,
			"byteOffset":12840,
			"target":34962
		},
		{
			"buffer":0,
			"byteLength":8560,
			"byteOffset":25680,
			"target":34962
		},
		{
			"buffer":0,
			"byteLength":4920,
			"byteOffset":34240,
			"target":34963
		}
	],
	"buffers":[
		{
			"byteLength":39160,
			"uri":"mdl_zesty_condo_block.bin"
		}
	]
}
