{
	"asset":{
		"generator":"Khronos glTF Blender I/O v4.3.47",
		"version":"2.0"
	},
	"scene":0,
	"scenes":[
		{
			"name":"Scene",
			"nodes":[
				0
			]
		}
	],
	"nodes":[
		{
			"mesh":0,
			"name":"mdl_zesty_ttcscreen"
		}
	],
	"materials":[
		{
			"doubleSided":true,
			"name":"black-screen",
			"pbrMetallicRoughness":{
				"baseColorFactor":[
					0,
					0,
					0,
					1
				],
				"metallicFactor":0
			}
		},
		{
			"doubleSided":true,
			"name":"dot-matrix-lines",
			"pbrMetallicRoughness":{
				"baseColorFactor":[
					0,
					0,
					0,
					1
				],
				"metallicFactor":0,
				"roughnessFactor":0.5
			}
		}
	],
	"meshes":[
		{
			"name":"Plane",
			"primitives":[
				{
					"attributes":{
						"POSITION":0,
						"NORMAL":1,
						"TEXCOORD_0":2
					},
					"indices":3,
					"material":0
				},
				{
					"attributes":{
						"POSITION":4,
						"NORMAL":5,
						"TEXCOORD_0":6
					},
					"indices":7,
					"material":1
				}
			]
		}
	],
	"accessors":[
		{
			"bufferView":0,
			"componentType":5126,
			"count":4,
			"max":[
				6.413552761077881,
				3.930887222290039,
				2.261625240862486e-06
			],
			"min":[
				-6.413552761077881,
				-3.930887222290039,
				-2.261625240862486e-06
			],
			"type":"VEC3"
		},
		{
			"bufferView":1,
			"componentType":5126,
			"count":4,
			"type":"VEC3"
		},
		{
			"bufferView":2,
			"componentType":5126,
			"count":4,
			"type":"VEC2"
		},
		{
			"bufferView":3,
			"componentType":5123,
			"count":6,
			"type":"SCALAR"
		},
		{
			"bufferView":4,
			"componentType":5126,
			"count":3096,
			"max":[
				6.428552627563477,
				3.945887327194214,
				-0.03859547898173332
			],
			"min":[
				-6.428552627563477,
				-3.945887327194214,
				-0.03859547898173332
			],
			"type":"VEC3"
		},
		{
			"bufferView":5,
			"componentType":5126,
			"count":3096,
			"type":"VEC3"
		},
		{
			"bufferView":6,
			"componentType":5126,
			"count":3096,
			"type":"VEC2"
		},
		{
			"bufferView":7,
			"componentType":5123,
			"count":14736,
			"type":"SCALAR"
		}
	],
	"bufferViews":[
		{
			"buffer":0,
			"byteLength":48,
			"byteOffset":0,
			"target":34962
		},
		{
			"buffer":0,
			"byteLength":48,
			"byteOffset":48,
			"target":34962
		},
		{
			"buffer":0,
			"byteLength":32,
			"byteOffset":96,
			"target":34962
		},
		{
			"buffer":0,
			"byteLength":12,
			"byteOffset":128,
			"target":34963
		},
		{
			"buffer":0,
			"byteLength":37152,
			"byteOffset":140,
			"target":34962
		},
		{
			"buffer":0,
			"byteLength":37152,
			"byteOffset":37292,
			"target":34962
		},
		{
			"buffer":0,
			"byteLength":24768,
			"byteOffset":74444,
			"target":34962
		},
		{
			"buffer":0,
			"byteLength":29472,
			"byteOffset":99212,
			"target":34963
		}
	],
	"buffers":[
		{
			"byteLength":128684,
			"uri":"mdl_zesty_ttcscreen.bin"
		}
	]
}
