{
	"asset":{
		"generator":"Khronos glTF Blender I/O v4.3.47",
		"version":"2.0"
	},
	"extensionsUsed":[
		"KHR_materials_transmission",
		"KHR_materials_ior"
	],
	"scene":0,
	"scenes":[
		{
			"name":"Scene",
			"nodes":[
				0
			]
		}
	],
	"nodes":[
		{
			"mesh":0,
			"name":"mdl_zesty_elevator_door",
			"scale":[
				0.850348949432373,
				1,
				0.850348949432373
			]
		}
	],
	"materials":[
		{
			"doubleSided":true,
			"name":"brushed-chrome",
			"pbrMetallicRoughness":{
				"baseColorFactor":[
					0.800000011920929,
					0.800000011920929,
					0.800000011920929,
					1
				],
				"metallicFactor":0.800000011920929,
				"roughnessFactor":0.25
			}
		},
		{
			"doubleSided":true,
			"name":"black",
			"pbrMetallicRoughness":{
				"baseColorFactor":[
					0,
					0,
					0,
					1
				],
				"metallicFactor":0.1637011170387268,
				"roughnessFactor":0.5
			}
		},
		{
			"doubleSided":true,
			"extensions":{
				"KHR_materials_transmission":{
					"transmissionFactor":0.949999988079071
				},
				"KHR_materials_ior":{
					"ior":1.4500000476837158
				}
			},
			"name":"glass",
			"pbrMetallicRoughness":{
				"metallicFactor":0,
				"roughnessFactor":0
			}
		}
	],
	"meshes":[
		{
			"name":"Circle.007",
			"primitives":[
				{
					"attributes":{
						"POSITION":0,
						"NORMAL":1,
						"TEXCOORD_0":2
					},
					"indices":3,
					"material":0
				},
				{
					"attributes":{
						"POSITION":4,
						"NORMAL":5,
						"TEXCOORD_0":6
					},
					"indices":7,
					"material":1
				},
				{
					"attributes":{
						"POSITION":8,
						"NORMAL":9,
						"TEXCOORD_0":10
					},
					"indices":11,
					"material":2
				}
			]
		}
	],
	"accessors":[
		{
			"bufferView":0,
			"componentType":5126,
			"count":140,
			"max":[
				0.5184881091117859,
				2.401648998260498,
				-0.4796372950077057
			],
			"min":[
				0.033242978155612946,
				0,
				-0.7517353892326355
			],
			"type":"VEC3"
		},
		{
			"bufferView":1,
			"componentType":5126,
			"count":140,
			"type":"VEC3"
		},
		{
			"bufferView":2,
			"componentType":5126,
			"count":140,
			"type":"VEC2"
		},
		{
			"bufferView":3,
			"componentType":5123,
			"count":396,
			"type":"SCALAR"
		},
		{
			"bufferView":4,
			"componentType":5126,
			"count":308,
			"max":[
				0.45894670486450195,
				2.401648759841919,
				-0.5308969616889954
			],
			"min":[
				0,
				0,
				-0.7448077201843262
			],
			"type":"VEC3"
		},
		{
			"bufferView":5,
			"componentType":5126,
			"count":308,
			"type":"VEC3"
		},
		{
			"bufferView":6,
			"componentType":5126,
			"count":308,
			"type":"VEC2"
		},
		{
			"bufferView":7,
			"componentType":5123,
			"count":840,
			"type":"SCALAR"
		},
		{
			"bufferView":8,
			"componentType":5126,
			"count":28,
			"max":[
				0.4362720549106598,
				1.7805768251419067,
				-0.5441670417785645
			],
			"min":[
				0.09940877556800842,
				1.0625814199447632,
				-0.7244427800178528
			],
			"type":"VEC3"
		},
		{
			"bufferView":9,
			"componentType":5126,
			"count":28,
			"type":"VEC3"
		},
		{
			"bufferView":10,
			"componentType":5126,
			"count":28,
			"type":"VEC2"
		},
		{
			"bufferView":11,
			"componentType":5123,
			"count":72,
			"type":"SCALAR"
		}
	],
	"bufferViews":[
		{
			"buffer":0,
			"byteLength":1680,
			"byteOffset":0,
			"target":34962
		},
		{
			"buffer":0,
			"byteLength":1680,
			"byteOffset":1680,
			"target":34962
		},
		{
			"buffer":0,
			"byteLength":1120,
			"byteOffset":3360,
			"target":34962
		},
		{
			"buffer":0,
			"byteLength":792,
			"byteOffset":4480,
			"target":34963
		},
		{
			"buffer":0,
			"byteLength":3696,
			"byteOffset":5272,
			"target":34962
		},
		{
			"buffer":0,
			"byteLength":3696,
			"byteOffset":8968,
			"target":34962
		},
		{
			"buffer":0,
			"byteLength":2464,
			"byteOffset":12664,
			"target":34962
		},
		{
			"buffer":0,
			"byteLength":1680,
			"byteOffset":15128,
			"target":34963
		},
		{
			"buffer":0,
			"byteLength":336,
			"byteOffset":16808,
			"target":34962
		},
		{
			"buffer":0,
			"byteLength":336,
			"byteOffset":17144,
			"target":34962
		},
		{
			"buffer":0,
			"byteLength":224,
			"byteOffset":17480,
			"target":34962
		},
		{
			"buffer":0,
			"byteLength":144,
			"byteOffset":17704,
			"target":34963
		}
	],
	"buffers":[
		{
			"byteLength":17848,
			"uri":"mdl_zesty_elevator_door.bin"
		}
	]
}
