{
	"asset":{
		"generator":"Khronos glTF Blender I/O v4.3.47",
		"version":"2.0"
	},
	"scene":0,
	"scenes":[
		{
			"name":"Scene",
			"nodes":[
				0
			]
		}
	],
	"nodes":[
		{
			"mesh":0,
			"name":"Plane.001"
		}
	],
	"materials":[
		{
			"doubleSided":true,
			"name":"ed-orange",
			"pbrMetallicRoughness":{
				"baseColorFactor":[
					0.896264374256134,
					0.5149180293083191,
					0.19120188057422638,
					1
				],
				"roughnessFactor":0.20000000298023224
			}
		},
		{
			"doubleSided":true,
			"name":"ed-black",
			"pbrMetallicRoughness":{
				"baseColorFactor":[
					0,
					0,
					0,
					1
				],
				"roughnessFactor":0.20000000298023224
			}
		},
		{
			"doubleSided":true,
			"name":"honested",
			"pbrMetallicRoughness":{
				"baseColorTexture":{
					"index":0
				},
				"roughnessFactor":0.20000000298023224
			}
		}
	],
	"meshes":[
		{
			"name":"Plane.001",
			"primitives":[
				{
					"attributes":{
						"POSITION":0,
						"NORMAL":1,
						"TEXCOORD_0":2
					},
					"indices":3,
					"material":0
				},
				{
					"attributes":{
						"POSITION":4,
						"NORMAL":5,
						"TEXCOORD_0":6
					},
					"indices":7,
					"material":1
				},
				{
					"attributes":{
						"POSITION":8,
						"NORMAL":9,
						"TEXCOORD_0":10
					},
					"indices":11,
					"material":2
				}
			]
		}
	],
	"textures":[
		{
			"sampler":0,
			"source":0
		}
	],
	"images":[
		{
			"mimeType":"image/jpeg",
			"name":"tx_zesty_honested",
			"uri":"tx_zesty_honested.jpg"
		}
	],
	"accessors":[
		{
			"bufferView":0,
			"componentType":5126,
			"count":868,
			"max":[
				2.3335494995117188,
				0.9242443442344666,
				-0.06446787714958191
			],
			"min":[
				-2.3335494995117188,
				-1.1291227340698242,
				-0.11937157064676285
			],
			"type":"VEC3"
		},
		{
			"bufferView":1,
			"componentType":5126,
			"count":868,
			"type":"VEC3"
		},
		{
			"bufferView":2,
			"componentType":5126,
			"count":868,
			"type":"VEC2"
		},
		{
			"bufferView":3,
			"componentType":5123,
			"count":2424,
			"type":"SCALAR"
		},
		{
			"bufferView":4,
			"componentType":5126,
			"count":880,
			"max":[
				2.3896405696868896,
				0.9791759252548218,
				0.021938718855381012
			],
			"min":[
				-2.3896405696868896,
				-1.2189629077911377,
				-0.11937151849269867
			],
			"type":"VEC3"
		},
		{
			"bufferView":5,
			"componentType":5126,
			"count":880,
			"type":"VEC3"
		},
		{
			"bufferView":6,
			"componentType":5126,
			"count":880,
			"type":"VEC2"
		},
		{
			"bufferView":7,
			"componentType":5123,
			"count":2100,
			"type":"SCALAR"
		},
		{
			"bufferView":8,
			"componentType":5126,
			"count":1088,
			"max":[
				2.3896405696868896,
				0.9791759252548218,
				-0.06446785479784012
			],
			"min":[
				-2.3896405696868896,
				-1.2189629077911377,
				-0.11937157064676285
			],
			"type":"VEC3"
		},
		{
			"bufferView":9,
			"componentType":5126,
			"count":1088,
			"type":"VEC3"
		},
		{
			"bufferView":10,
			"componentType":5126,
			"count":1088,
			"type":"VEC2"
		},
		{
			"bufferView":11,
			"componentType":5123,
			"count":3246,
			"type":"SCALAR"
		}
	],
	"bufferViews":[
		{
			"buffer":0,
			"byteLength":10416,
			"byteOffset":0,
			"target":34962
		},
		{
			"buffer":0,
			"byteLength":10416,
			"byteOffset":10416,
			"target":34962
		},
		{
			"buffer":0,
			"byteLength":6944,
			"byteOffset":20832,
			"target":34962
		},
		{
			"buffer":0,
			"byteLength":4848,
			"byteOffset":27776,
			"target":34963
		},
		{
			"buffer":0,
			"byteLength":10560,
			"byteOffset":32624,
			"target":34962
		},
		{
			"buffer":0,
			"byteLength":10560,
			"byteOffset":43184,
			"target":34962
		},
		{
			"buffer":0,
			"byteLength":7040,
			"byteOffset":53744,
			"target":34962
		},
		{
			"buffer":0,
			"byteLength":4200,
			"byteOffset":60784,
			"target":34963
		},
		{
			"buffer":0,
			"byteLength":13056,
			"byteOffset":64984,
			"target":34962
		},
		{
			"buffer":0,
			"byteLength":13056,
			"byteOffset":78040,
			"target":34962
		},
		{
			"buffer":0,
			"byteLength":8704,
			"byteOffset":91096,
			"target":34962
		},
		{
			"buffer":0,
			"byteLength":6492,
			"byteOffset":99800,
			"target":34963
		}
	],
	"samplers":[
		{
			"magFilter":9729,
			"minFilter":9987
		}
	],
	"buffers":[
		{
			"byteLength":106292,
			"uri":"mdl_zesty_honested.bin"
		}
	]
}
