{
	"asset":{
		"generator":"Khronos glTF Blender I/O v4.3.47",
		"version":"2.0"
	},
	"extensionsUsed":[
		"KHR_materials_emissive_strength"
	],
	"scene":0,
	"scenes":[
		{
			"name":"Scene",
			"nodes":[
				0
			]
		}
	],
	"nodes":[
		{
			"mesh":0,
			"name":"mdl_zesty_room_pillar",
			"scale":[
				0.850348949432373,
				1,
				0.850348949432373
			]
		}
	],
	"materials":[
		{
			"doubleSided":true,
			"name":"wall-white",
			"pbrMetallicRoughness":{
				"baseColorFactor":[
					0.800000011920929,
					0.800000011920929,
					0.800000011920929,
					1
				],
				"metallicFactor":0,
				"roughnessFactor":0.800000011920929
			}
		},
		{
			"doubleSided":true,
			"name":"gold",
			"pbrMetallicRoughness":{
				"baseColorFactor":[
					0.8016340732574463,
					0.5009856224060059,
					0.032477349042892456,
					1
				],
				"roughnessFactor":0.10000000149011612
			}
		},
		{
			"doubleSided":true,
			"name":"gold-dark",
			"pbrMetallicRoughness":{
				"baseColorFactor":[
					0.28291746973991394,
					0.16348318755626678,
					0.019985130056738853,
					1
				],
				"roughnessFactor":0.10000000149011612
			}
		},
		{
			"doubleSided":true,
			"name":"brushed-chrome",
			"pbrMetallicRoughness":{
				"baseColorFactor":[
					0.800000011920929,
					0.800000011920929,
					0.800000011920929,
					1
				],
				"metallicFactor":0.800000011920929,
				"roughnessFactor":0.25
			}
		},
		{
			"doubleSided":true,
			"name":"ttc-wall",
			"pbrMetallicRoughness":{
				"baseColorFactor":[
					0.6021167039871216,
					0.47308099269866943,
					0.3398735523223877,
					1
				],
				"metallicFactor":0,
				"roughnessFactor":0.4000000059604645
			}
		},
		{
			"doubleSided":true,
			"name":"ttc-floor",
			"pbrMetallicRoughness":{
				"baseColorFactor":[
					0.19461657106876373,
					0.20507892966270447,
					0.17464755475521088,
					1
				],
				"metallicFactor":0,
				"roughnessFactor":0.5
			}
		},
		{
			"doubleSided":true,
			"name":"ttc-red",
			"pbrMetallicRoughness":{
				"baseColorFactor":[
					0.6654607653617859,
					0.06025335192680359,
					0.04996210336685181,
					1
				],
				"metallicFactor":0
			}
		},
		{
			"doubleSided":true,
			"name":"concrete",
			"pbrMetallicRoughness":{
				"baseColorTexture":{
					"index":0
				},
				"metallicFactor":0,
				"roughnessFactor":0.8003799915313721
			}
		},
		{
			"doubleSided":true,
			"name":"black",
			"pbrMetallicRoughness":{
				"baseColorFactor":[
					0,
					0,
					0,
					1
				],
				"metallicFactor":0.1637011170387268,
				"roughnessFactor":0.5
			}
		},
		{
			"doubleSided":true,
			"emissiveFactor":[
				1,
				1,
				1
			],
			"extensions":{
				"KHR_materials_emissive_strength":{
					"emissiveStrength":2
				}
			},
			"name":"toronto-sign-light-white",
			"pbrMetallicRoughness":{
				"baseColorFactor":[
					0.800000011920929,
					0.800000011920929,
					0.800000011920929,
					1
				],
				"metallicFactor":0,
				"roughnessFactor":0.5
			}
		}
	],
	"meshes":[
		{
			"name":"Circle.001",
			"primitives":[
				{
					"attributes":{
						"POSITION":0,
						"NORMAL":1,
						"TEXCOORD_0":2
					},
					"indices":3,
					"material":0
				},
				{
					"attributes":{
						"POSITION":4,
						"NORMAL":5,
						"TEXCOORD_0":6
					},
					"indices":7,
					"material":1
				},
				{
					"attributes":{
						"POSITION":8,
						"NORMAL":9,
						"TEXCOORD_0":10
					},
					"indices":11,
					"material":2
				},
				{
					"attributes":{
						"POSITION":12,
						"NORMAL":13,
						"TEXCOORD_0":14
					},
					"indices":15,
					"material":3
				},
				{
					"attributes":{
						"POSITION":16,
						"NORMAL":17,
						"TEXCOORD_0":18
					},
					"indices":19,
					"material":4
				},
				{
					"attributes":{
						"POSITION":20,
						"NORMAL":21,
						"TEXCOORD_0":22
					},
					"indices":23,
					"material":5
				},
				{
					"attributes":{
						"POSITION":24,
						"NORMAL":25,
						"TEXCOORD_0":26
					},
					"indices":27,
					"material":6
				},
				{
					"attributes":{
						"POSITION":28,
						"NORMAL":29,
						"TEXCOORD_0":30
					},
					"indices":31,
					"material":7
				},
				{
					"attributes":{
						"POSITION":32,
						"NORMAL":33,
						"TEXCOORD_0":34
					},
					"indices":35,
					"material":8
				},
				{
					"attributes":{
						"POSITION":36,
						"NORMAL":37,
						"TEXCOORD_0":38
					},
					"indices":39,
					"material":9
				}
			]
		}
	],
	"textures":[
		{
			"sampler":0,
			"source":0
		}
	],
	"images":[
		{
			"mimeType":"image/jpeg",
			"name":"1K-concratetile_3_basecolor",
			"uri":"1K-concratetile_3_basecolor.jpg"
		}
	],
	"accessors":[
		{
			"bufferView":0,
			"componentType":5126,
			"count":142,
			"max":[
				0.743070662021637,
				4.775857925415039,
				0.7430704236030579
			],
			"min":[
				-0.7430703639984131,
				0.002356052165850997,
				-0.7430703043937683
			],
			"type":"VEC3"
		},
		{
			"bufferView":1,
			"componentType":5126,
			"count":142,
			"type":"VEC3"
		},
		{
			"bufferView":2,
			"componentType":5126,
			"count":142,
			"type":"VEC2"
		},
		{
			"bufferView":3,
			"componentType":5123,
			"count":528,
			"type":"SCALAR"
		},
		{
			"bufferView":4,
			"componentType":5126,
			"count":256,
			"max":[
				0.8880330324172974,
				-0.010864511132240295,
				0.8880329132080078
			],
			"min":[
				-0.8880330324172974,
				-0.5089696645736694,
				-0.8880330324172974
			],
			"type":"VEC3"
		},
		{
			"bufferView":5,
			"componentType":5126,
			"count":256,
			"type":"VEC3"
		},
		{
			"bufferView":6,
			"componentType":5126,
			"count":256,
			"type":"VEC2"
		},
		{
			"bufferView":7,
			"componentType":5123,
			"count":384,
			"type":"SCALAR"
		},
		{
			"bufferView":8,
			"componentType":5126,
			"count":96,
			"max":[
				0.7348299026489258,
				-0.010864511132240295,
				0.7348299026489258
			],
			"min":[
				-0.7348299026489258,
				-0.5089696645736694,
				-0.7348299026489258
			],
			"type":"VEC3"
		},
		{
			"bufferView":9,
			"componentType":5126,
			"count":96,
			"type":"VEC3"
		},
		{
			"bufferView":10,
			"componentType":5126,
			"count":96,
			"type":"VEC2"
		},
		{
			"bufferView":11,
			"componentType":5123,
			"count":186,
			"type":"SCALAR"
		},
		{
			"bufferView":12,
			"componentType":5126,
			"count":598,
			"max":[
				0.743070662021637,
				2.694390058517456,
				0.8482618927955627
			],
			"min":[
				-0.7430703639984131,
				0.002356052165850997,
				-0.795526385307312
			],
			"type":"VEC3"
		},
		{
			"bufferView":13,
			"componentType":5126,
			"count":598,
			"type":"VEC3"
		},
		{
			"bufferView":14,
			"componentType":5126,
			"count":598,
			"type":"VEC2"
		},
		{
			"bufferView":15,
			"componentType":5123,
			"count":1455,
			"type":"SCALAR"
		},
		{
			"bufferView":16,
			"componentType":5126,
			"count":50,
			"max":[
				0.6675405502319336,
				2.4016499519348145,
				0.6675403118133545
			],
			"min":[
				-0.6675402522087097,
				0.10235603898763657,
				-0.47202208638191223
			],
			"type":"VEC3"
		},
		{
			"bufferView":17,
			"componentType":5126,
			"count":50,
			"type":"VEC3"
		},
		{
			"bufferView":18,
			"componentType":5126,
			"count":50,
			"type":"VEC2"
		},
		{
			"bufferView":19,
			"componentType":5123,
			"count":144,
			"type":"SCALAR"
		},
		{
			"bufferView":20,
			"componentType":5126,
			"count":96,
			"max":[
				0.6675405502319336,
				0.0023560523986816406,
				0.6675403118133545
			],
			"min":[
				-0.6675402522087097,
				0.0023560523986816406,
				-0.6675401926040649
			],
			"type":"VEC3"
		},
		{
			"bufferView":21,
			"componentType":5126,
			"count":96,
			"type":"VEC3"
		},
		{
			"bufferView":22,
			"componentType":5126,
			"count":96,
			"type":"VEC2"
		},
		{
			"bufferView":23,
			"componentType":5123,
			"count":282,
			"type":"SCALAR"
		},
		{
			"bufferView":24,
			"componentType":5126,
			"count":64,
			"max":[
				0.49556493759155273,
				0.0023560523986816406,
				0.49556469917297363
			],
			"min":[
				-0.49556463956832886,
				0.0023560523986816406,
				-0.4955645799636841
			],
			"type":"VEC3"
		},
		{
			"bufferView":25,
			"componentType":5126,
			"count":64,
			"type":"VEC3"
		},
		{
			"bufferView":26,
			"componentType":5126,
			"count":64,
			"type":"VEC2"
		},
		{
			"bufferView":27,
			"componentType":5123,
			"count":192,
			"type":"SCALAR"
		},
		{
			"bufferView":28,
			"componentType":5126,
			"count":876,
			"max":[
				3.4640469551086426,
				-0.4912433624267578,
				3.202670097351074
			],
			"min":[
				-2.1453561782836914,
				-32.10602569580078,
				-3.202670097351074
			],
			"type":"VEC3"
		},
		{
			"bufferView":29,
			"componentType":5126,
			"count":876,
			"type":"VEC3"
		},
		{
			"bufferView":30,
			"componentType":5126,
			"count":876,
			"type":"VEC2"
		},
		{
			"bufferView":31,
			"componentType":5123,
			"count":1512,
			"type":"SCALAR"
		},
		{
			"bufferView":32,
			"componentType":5126,
			"count":1147,
			"max":[
				0.667540431022644,
				2.612924337387085,
				0.7510935068130493
			],
			"min":[
				-0.6675402522087097,
				1.0639907121658325,
				-0.6675401926040649
			],
			"type":"VEC3"
		},
		{
			"bufferView":33,
			"componentType":5126,
			"count":1147,
			"type":"VEC3"
		},
		{
			"bufferView":34,
			"componentType":5126,
			"count":1147,
			"type":"VEC2"
		},
		{
			"bufferView":35,
			"componentType":5123,
			"count":2064,
			"type":"SCALAR"
		},
		{
			"bufferView":36,
			"componentType":5126,
			"count":32,
			"max":[
				0.5989397764205933,
				2.612924337387085,
				0.5989396572113037
			],
			"min":[
				-0.5989395976066589,
				2.612924337387085,
				-0.5989395380020142
			],
			"type":"VEC3"
		},
		{
			"bufferView":37,
			"componentType":5126,
			"count":32,
			"type":"VEC3"
		},
		{
			"bufferView":38,
			"componentType":5126,
			"count":32,
			"type":"VEC2"
		},
		{
			"bufferView":39,
			"componentType":5123,
			"count":90,
			"type":"SCALAR"
		}
	],
	"bufferViews":[
		{
			"buffer":0,
			"byteLength":1704,
			"byteOffset":0,
			"target":34962
		},
		{
			"buffer":0,
			"byteLength":1704,
			"byteOffset":1704,
			"target":34962
		},
		{
			"buffer":0,
			"byteLength":1136,
			"byteOffset":3408,
			"target":34962
		},
		{
			"buffer":0,
			"byteLength":1056,
			"byteOffset":4544,
			"target":34963
		},
		{
			"buffer":0,
			"byteLength":3072,
			"byteOffset":5600,
			"target":34962
		},
		{
			"buffer":0,
			"byteLength":3072,
			"byteOffset":8672,
			"target":34962
		},
		{
			"buffer":0,
			"byteLength":2048,
			"byteOffset":11744,
			"target":34962
		},
		{
			"buffer":0,
			"byteLength":768,
			"byteOffset":13792,
			"target":34963
		},
		{
			"buffer":0,
			"byteLength":1152,
			"byteOffset":14560,
			"target":34962
		},
		{
			"buffer":0,
			"byteLength":1152,
			"byteOffset":15712,
			"target":34962
		},
		{
			"buffer":0,
			"byteLength":768,
			"byteOffset":16864,
			"target":34962
		},
		{
			"buffer":0,
			"byteLength":372,
			"byteOffset":17632,
			"target":34963
		},
		{
			"buffer":0,
			"byteLength":7176,
			"byteOffset":18004,
			"target":34962
		},
		{
			"buffer":0,
			"byteLength":7176,
			"byteOffset":25180,
			"target":34962
		},
		{
			"buffer":0,
			"byteLength":4784,
			"byteOffset":32356,
			"target":34962
		},
		{
			"buffer":0,
			"byteLength":2910,
			"byteOffset":37140,
			"target":34963
		},
		{
			"buffer":0,
			"byteLength":600,
			"byteOffset":40052,
			"target":34962
		},
		{
			"buffer":0,
			"byteLength":600,
			"byteOffset":40652,
			"target":34962
		},
		{
			"buffer":0,
			"byteLength":400,
			"byteOffset":41252,
			"target":34962
		},
		{
			"buffer":0,
			"byteLength":288,
			"byteOffset":41652,
			"target":34963
		},
		{
			"buffer":0,
			"byteLength":1152,
			"byteOffset":41940,
			"target":34962
		},
		{
			"buffer":0,
			"byteLength":1152,
			"byteOffset":43092,
			"target":34962
		},
		{
			"buffer":0,
			"byteLength":768,
			"byteOffset":44244,
			"target":34962
		},
		{
			"buffer":0,
			"byteLength":564,
			"byteOffset":45012,
			"target":34963
		},
		{
			"buffer":0,
			"byteLength":768,
			"byteOffset":45576,
			"target":34962
		},
		{
			"buffer":0,
			"byteLength":768,
			"byteOffset":46344,
			"target":34962
		},
		{
			"buffer":0,
			"byteLength":512,
			"byteOffset":47112,
			"target":34962
		},
		{
			"buffer":0,
			"byteLength":384,
			"byteOffset":47624,
			"target":34963
		},
		{
			"buffer":0,
			"byteLength":10512,
			"byteOffset":48008,
			"target":34962
		},
		{
			"buffer":0,
			"byteLength":10512,
			"byteOffset":58520,
			"target":34962
		},
		{
			"buffer":0,
			"byteLength":7008,
			"byteOffset":69032,
			"target":34962
		},
		{
			"buffer":0,
			"byteLength":3024,
			"byteOffset":76040,
			"target":34963
		},
		{
			"buffer":0,
			"byteLength":13764,
			"byteOffset":79064,
			"target":34962
		},
		{
			"buffer":0,
			"byteLength":13764,
			"byteOffset":92828,
			"target":34962
		},
		{
			"buffer":0,
			"byteLength":9176,
			"byteOffset":106592,
			"target":34962
		},
		{
			"buffer":0,
			"byteLength":4128,
			"byteOffset":115768,
			"target":34963
		},
		{
			"buffer":0,
			"byteLength":384,
			"byteOffset":119896,
			"target":34962
		},
		{
			"buffer":0,
			"byteLength":384,
			"byteOffset":120280,
			"target":34962
		},
		{
			"buffer":0,
			"byteLength":256,
			"byteOffset":120664,
			"target":34962
		},
		{
			"buffer":0,
			"byteLength":180,
			"byteOffset":120920,
			"target":34963
		}
	],
	"samplers":[
		{
			"magFilter":9729,
			"minFilter":9987
		}
	],
	"buffers":[
		{
			"byteLength":121100,
			"uri":"mdl_zesty_room_pillar.bin"
		}
	]
}
