{
	"asset":{
		"generator":"Khronos glTF Blender I/O v4.3.47",
		"version":"2.0"
	},
	"scene":0,
	"scenes":[
		{
			"name":"Scene",
			"nodes":[
				0
			]
		}
	],
	"nodes":[
		{
			"mesh":0,
			"name":"mdl_zesty_maple_back",
			"rotation":[
				1,
				0,
				0,
				0
			],
			"scale":[
				0.7619869112968445,
				0.7619869112968445,
				0.7619869112968445
			]
		}
	],
	"materials":[
		{
			"doubleSided":true,
			"name":"frame-dark",
			"pbrMetallicRoughness":{
				"baseColorFactor":[
					0.5427427887916565,
					0.31198057532310486,
					0,
					1
				],
				"metallicFactor":0.75,
				"roughnessFactor":0.10000000149011612
			}
		},
		{
			"doubleSided":true,
			"name":"frame",
			"pbrMetallicRoughness":{
				"baseColorFactor":[
					0.8040438890457153,
					0.47921639680862427,
					0.005136226303875446,
					1
				],
				"metallicFactor":0.800000011920929,
				"roughnessFactor":0.10000000149011612
			}
		}
	],
	"meshes":[
		{
			"name":"Circle.003",
			"primitives":[
				{
					"attributes":{
						"POSITION":0,
						"NORMAL":1,
						"TEXCOORD_0":2
					},
					"indices":3,
					"material":0
				},
				{
					"attributes":{
						"POSITION":4,
						"NORMAL":5,
						"TEXCOORD_0":6
					},
					"indices":7,
					"material":1
				}
			]
		}
	],
	"accessors":[
		{
			"bufferView":0,
			"componentType":5126,
			"count":686,
			"max":[
				0.5698786377906799,
				0.02001865953207016,
				0.03529782593250275
			],
			"min":[
				-0.5698786377906799,
				-0.8260223865509033,
				-0.12186059355735779
			],
			"type":"VEC3"
		},
		{
			"bufferView":1,
			"componentType":5126,
			"count":686,
			"type":"VEC3"
		},
		{
			"bufferView":2,
			"componentType":5126,
			"count":686,
			"type":"VEC2"
		},
		{
			"bufferView":3,
			"componentType":5123,
			"count":1377,
			"type":"SCALAR"
		},
		{
			"bufferView":4,
			"componentType":5126,
			"count":230,
			"max":[
				0.4827241897583008,
				-0.005402627866715193,
				0.03529782593250275
			],
			"min":[
				-0.4827241897583008,
				-0.8021363615989685,
				0.021523624658584595
			],
			"type":"VEC3"
		},
		{
			"bufferView":5,
			"componentType":5126,
			"count":230,
			"type":"VEC3"
		},
		{
			"bufferView":6,
			"componentType":5126,
			"count":230,
			"type":"VEC2"
		},
		{
			"bufferView":7,
			"componentType":5123,
			"count":432,
			"type":"SCALAR"
		}
	],
	"bufferViews":[
		{
			"buffer":0,
			"byteLength":8232,
			"byteOffset":0,
			"target":34962
		},
		{
			"buffer":0,
			"byteLength":8232,
			"byteOffset":8232,
			"target":34962
		},
		{
			"buffer":0,
			"byteLength":5488,
			"byteOffset":16464,
			"target":34962
		},
		{
			"buffer":0,
			"byteLength":2754,
			"byteOffset":21952,
			"target":34963
		},
		{
			"buffer":0,
			"byteLength":2760,
			"byteOffset":24708,
			"target":34962
		},
		{
			"buffer":0,
			"byteLength":2760,
			"byteOffset":27468,
			"target":34962
		},
		{
			"buffer":0,
			"byteLength":1840,
			"byteOffset":30228,
			"target":34962
		},
		{
			"buffer":0,
			"byteLength":864,
			"byteOffset":32068,
			"target":34963
		}
	],
	"buffers":[
		{
			"byteLength":32932,
			"uri":"mdl_zesty_maple_back.bin"
		}
	]
}
