{
	"asset":{
		"generator":"Khronos glTF Blender I/O v4.3.47",
		"version":"2.0"
	},
	"scene":0,
	"scenes":[
		{
			"name":"Scene",
			"nodes":[
				0
			]
		}
	],
	"nodes":[
		{
			"mesh":0,
			"name":"token"
		}
	],
	"materials":[
		{
			"doubleSided":true,
			"name":"gold",
			"pbrMetallicRoughness":{
				"baseColorFactor":[
					0.9301053285598755,
					0.7379113435745239,
					0.4125429689884186,
					1
				],
				"roughnessFactor":0.39772728085517883
			}
		},
		{
			"doubleSided":true,
			"name":"silver",
			"pbrMetallicRoughness":{
				"baseColorFactor":[
					0.9999933242797852,
					1,
					1,
					1
				],
				"roughnessFactor":0.31060606241226196
			}
		},
		{
			"doubleSided":true,
			"name":"silver-normal",
			"normalTexture":{
				"index":0
			},
			"pbrMetallicRoughness":{
				"baseColorFactor":[
					0.800000011920929,
					0.800000011920929,
					0.800000011920929,
					1
				],
				"roughnessFactor":0.5
			}
		}
	],
	"meshes":[
		{
			"name":"Cylinder",
			"primitives":[
				{
					"attributes":{
						"POSITION":0,
						"NORMAL":1,
						"TEXCOORD_0":2
					},
					"indices":3,
					"material":0
				},
				{
					"attributes":{
						"POSITION":4,
						"NORMAL":5,
						"TEXCOORD_0":6
					},
					"indices":7,
					"material":1
				},
				{
					"attributes":{
						"POSITION":8,
						"NORMAL":9,
						"TEXCOORD_0":10
					},
					"indices":11,
					"material":2
				}
			]
		}
	],
	"textures":[
		{
			"sampler":0,
			"source":0
		}
	],
	"images":[
		{
			"mimeType":"image/png",
			"name":"tx_zesty_ttctoken_normal",
			"uri":"tx_zesty_ttctoken_normal.png"
		}
	],
	"accessors":[
		{
			"bufferView":0,
			"componentType":5126,
			"count":4601,
			"max":[
				0.25040096044540405,
				0.25,
				0.010327562689781189
			],
			"min":[
				-0.25,
				-0.25,
				-0.010327529162168503
			],
			"type":"VEC3"
		},
		{
			"bufferView":1,
			"componentType":5126,
			"count":4601,
			"type":"VEC3"
		},
		{
			"bufferView":2,
			"componentType":5126,
			"count":4601,
			"type":"VEC2"
		},
		{
			"bufferView":3,
			"componentType":5123,
			"count":10920,
			"type":"SCALAR"
		},
		{
			"bufferView":4,
			"componentType":5126,
			"count":128,
			"max":[
				0.1555705964565277,
				0.15516966581344604,
				0.010327547788619995
			],
			"min":[
				-0.15516966581344604,
				-0.15516966581344604,
				-0.010327523574233055
			],
			"type":"VEC3"
		},
		{
			"bufferView":5,
			"componentType":5126,
			"count":128,
			"type":"VEC3"
		},
		{
			"bufferView":6,
			"componentType":5126,
			"count":128,
			"type":"VEC2"
		},
		{
			"bufferView":7,
			"componentType":5123,
			"count":384,
			"type":"SCALAR"
		},
		{
			"bufferView":8,
			"componentType":5126,
			"count":64,
			"max":[
				0.14953994750976562,
				0.14913901686668396,
				0.006996601819992065
			],
			"min":[
				-0.14913901686668396,
				-0.14913901686668396,
				-0.006996573880314827
			],
			"type":"VEC3"
		},
		{
			"bufferView":9,
			"componentType":5126,
			"count":64,
			"type":"VEC3"
		},
		{
			"bufferView":10,
			"componentType":5126,
			"count":64,
			"type":"VEC2"
		},
		{
			"bufferView":11,
			"componentType":5123,
			"count":180,
			"type":"SCALAR"
		}
	],
	"bufferViews":[
		{
			"buffer":0,
			"byteLength":55212,
			"byteOffset":0,
			"target":34962
		},
		{
			"buffer":0,
			"byteLength":55212,
			"byteOffset":55212,
			"target":34962
		},
		{
			"buffer":0,
			"byteLength":36808,
			"byteOffset":110424,
			"target":34962
		},
		{
			"buffer":0,
			"byteLength":21840,
			"byteOffset":147232,
			"target":34963
		},
		{
			"buffer":0,
			"byteLength":1536,
			"byteOffset":169072,
			"target":34962
		},
		{
			"buffer":0,
			"byteLength":1536,
			"byteOffset":170608,
			"target":34962
		},
		{
			"buffer":0,
			"byteLength":1024,
			"byteOffset":172144,
			"target":34962
		},
		{
			"buffer":0,
			"byteLength":768,
			"byteOffset":173168,
			"target":34963
		},
		{
			"buffer":0,
			"byteLength":768,
			"byteOffset":173936,
			"target":34962
		},
		{
			"buffer":0,
			"byteLength":768,
			"byteOffset":174704,
			"target":34962
		},
		{
			"buffer":0,
			"byteLength":512,
			"byteOffset":175472,
			"target":34962
		},
		{
			"buffer":0,
			"byteLength":360,
			"byteOffset":175984,
			"target":34963
		}
	],
	"samplers":[
		{
			"magFilter":9729,
			"minFilter":9987
		}
	],
	"buffers":[
		{
			"byteLength":176344,
			"uri":"mdl_zesty_ttctoken.bin"
		}
	]
}
