{
	"asset":{
		"generator":"Khronos glTF Blender I/O v4.3.47",
		"version":"2.0"
	},
	"scene":0,
	"scenes":[
		{
			"name":"Scene",
			"nodes":[
				0
			]
		}
	],
	"nodes":[
		{
			"mesh":0,
			"name":"mdl_zesty_raccoonjaw"
		}
	],
	"materials":[
		{
			"doubleSided":true,
			"name":"raccoon-grey",
			"pbrMetallicRoughness":{
				"baseColorFactor":[
					0.25,
					0.25,
					0.25,
					1
				],
				"metallicFactor":0.5,
				"roughnessFactor":0.5
			}
		},
		{
			"doubleSided":true,
			"name":"raccoon-white",
			"pbrMetallicRoughness":{
				"baseColorFactor":[
					0.800000011920929,
					0.800000011920929,
					0.800000011920929,
					1
				],
				"metallicFactor":0,
				"roughnessFactor":0.20000000298023224
			}
		}
	],
	"meshes":[
		{
			"name":"Circle.009",
			"primitives":[
				{
					"attributes":{
						"POSITION":0,
						"NORMAL":1,
						"TEXCOORD_0":2
					},
					"indices":3,
					"material":0
				},
				{
					"attributes":{
						"POSITION":4,
						"NORMAL":5,
						"TEXCOORD_0":6
					},
					"indices":7,
					"material":1
				}
			]
		}
	],
	"accessors":[
		{
			"bufferView":0,
			"componentType":5126,
			"count":20,
			"max":[
				0.30186668038368225,
				0.034653306007385254,
				0.019686993211507797
			],
			"min":[
				-0.3018666207790375,
				-0.12039807438850403,
				-0.2769482731819153
			],
			"type":"VEC3"
		},
		{
			"bufferView":1,
			"componentType":5126,
			"count":20,
			"type":"VEC3"
		},
		{
			"bufferView":2,
			"componentType":5126,
			"count":20,
			"type":"VEC2"
		},
		{
			"bufferView":3,
			"componentType":5123,
			"count":24,
			"type":"SCALAR"
		},
		{
			"bufferView":4,
			"componentType":5126,
			"count":18,
			"max":[
				0.13579736649990082,
				0.05584356188774109,
				-0.17956703901290894
			],
			"min":[
				-0.1333228498697281,
				0.004656915552914143,
				-0.21626900136470795
			],
			"type":"VEC3"
		},
		{
			"bufferView":5,
			"componentType":5126,
			"count":18,
			"type":"VEC3"
		},
		{
			"bufferView":6,
			"componentType":5126,
			"count":18,
			"type":"VEC2"
		},
		{
			"bufferView":7,
			"componentType":5123,
			"count":18,
			"type":"SCALAR"
		}
	],
	"bufferViews":[
		{
			"buffer":0,
			"byteLength":240,
			"byteOffset":0,
			"target":34962
		},
		{
			"buffer":0,
			"byteLength":240,
			"byteOffset":240,
			"target":34962
		},
		{
			"buffer":0,
			"byteLength":160,
			"byteOffset":480,
			"target":34962
		},
		{
			"buffer":0,
			"byteLength":48,
			"byteOffset":640,
			"target":34963
		},
		{
			"buffer":0,
			"byteLength":216,
			"byteOffset":688,
			"target":34962
		},
		{
			"buffer":0,
			"byteLength":216,
			"byteOffset":904,
			"target":34962
		},
		{
			"buffer":0,
			"byteLength":144,
			"byteOffset":1120,
			"target":34962
		},
		{
			"buffer":0,
			"byteLength":36,
			"byteOffset":1264,
			"target":34963
		}
	],
	"buffers":[
		{
			"byteLength":1300,
			"uri":"mdl_zesty_raccoonjaw.bin"
		}
	]
}
