{
	"asset":{
		"generator":"Khronos glTF Blender I/O v4.3.47",
		"version":"2.0"
	},
	"scene":0,
	"scenes":[
		{
			"name":"Scene",
			"nodes":[
				0,
				1,
				2,
				3,
				4
			]
		}
	],
	"nodes":[
		{
			"mesh":0,
			"name":"buildings-core",
			"translation":[
				0,
				329.6068115234375,
				0
			]
		},
		{
			"mesh":1,
			"name":"buildings-small",
			"translation":[
				0,
				329.6068115234375,
				0
			]
		},
		{
			"mesh":2,
			"name":"land",
			"translation":[
				0,
				329.60699462890625,
				0
			]
		},
		{
			"mesh":3,
			"name":"canoe",
			"translation":[
				-750.5848999023438,
				19.973960876464844,
				389.1654357910156
			]
		},
		{
			"mesh":4,
			"name":"moose",
			"rotation":[
				-0.5640082955360413,
				0.4192216992378235,
				-0.4706055223941803,
				0.5335524678230286
			],
			"scale":[
				47.1207275390625,
				47.1207275390625,
				47.1207275390625
			],
			"translation":[
				804.0382690429688,
				46.22207260131836,
				-388.8143310546875
			]
		}
	],
	"materials":[
		{
			"doubleSided":true,
			"name":"wall",
			"pbrMetallicRoughness":{
				"baseColorTexture":{
					"index":0
				},
				"roughnessFactor":0.30000001192092896
			}
		},
		{
			"doubleSided":true,
			"name":"ceiling",
			"pbrMetallicRoughness":{
				"metallicFactor":0.20000000298023224,
				"roughnessFactor":0.30000001192092896
			}
		},
		{
			"doubleSided":true,
			"name":"land.003",
			"pbrMetallicRoughness":{
				"baseColorTexture":{
					"index":1
				},
				"metallicFactor":0,
				"roughnessFactor":0.5
			}
		},
		{
			"doubleSided":true,
			"name":"canoe",
			"pbrMetallicRoughness":{
				"baseColorFactor":[
					0.43169161677360535,
					0,
					0.0036430908367037773,
					1
				],
				"metallicFactor":0.699999988079071,
				"roughnessFactor":0.5
			}
		},
		{
			"doubleSided":true,
			"name":"moose.001",
			"pbrMetallicRoughness":{
				"baseColorFactor":[
					0.8005045056343079,
					0.2593913972377777,
					0,
					1
				],
				"roughnessFactor":0.4000000059604645
			}
		}
	],
	"meshes":[
		{
			"name":"map_22.osm_buildings.004",
			"primitives":[
				{
					"attributes":{
						"POSITION":0,
						"NORMAL":1,
						"TEXCOORD_0":2,
						"COLOR_0":3,
						"COLOR_1":4
					},
					"indices":5,
					"material":0
				},
				{
					"attributes":{
						"POSITION":6,
						"NORMAL":7,
						"TEXCOORD_0":8,
						"COLOR_0":9,
						"COLOR_1":10
					},
					"indices":11,
					"material":1
				}
			]
		},
		{
			"name":"map_22.osm_buildings.007",
			"primitives":[
				{
					"attributes":{
						"POSITION":12,
						"NORMAL":13,
						"TEXCOORD_0":14,
						"COLOR_0":15,
						"COLOR_1":16
					},
					"indices":17,
					"material":0
				},
				{
					"attributes":{
						"POSITION":18,
						"NORMAL":19,
						"TEXCOORD_0":20,
						"COLOR_0":21,
						"COLOR_1":22
					},
					"indices":23,
					"material":1
				}
			]
		},
		{
			"name":"map_21.osm_water.004",
			"primitives":[
				{
					"attributes":{
						"POSITION":24,
						"NORMAL":25,
						"TEXCOORD_0":26
					},
					"indices":27,
					"material":2
				}
			]
		},
		{
			"name":"Cube",
			"primitives":[
				{
					"attributes":{
						"POSITION":28,
						"NORMAL":29
					},
					"indices":30,
					"material":3
				}
			]
		},
		{
			"name":"Model.001",
			"primitives":[
				{
					"attributes":{
						"POSITION":31,
						"NORMAL":32,
						"COLOR_0":33,
						"COLOR_1":34
					},
					"indices":35,
					"material":4
				}
			]
		}
	],
	"textures":[
		{
			"sampler":0,
			"source":0
		},
		{
			"sampler":0,
			"source":1
		}
	],
	"images":[
		{
			"mimeType":"image/jpeg",
			"name":"tx_zesty_buildingside",
			"uri":"tx_zesty_buildingside.jpg"
		},
		{
			"mimeType":"image/jpeg",
			"name":"toronto-satellite",
			"uri":"toronto-satellite.jpg"
		}
	],
	"accessors":[
		{
			"bufferView":0,
			"componentType":5126,
			"count":55798,
			"max":[
				2683.201416015625,
				-31.6068115234375,
				1794.699462890625
			],
			"min":[
				-3376.058349609375,
				-333.5071105957031,
				-3690.13671875
			],
			"type":"VEC3"
		},
		{
			"bufferView":1,
			"componentType":5126,
			"count":55798,
			"type":"VEC3"
		},
		{
			"bufferView":2,
			"componentType":5126,
			"count":55798,
			"type":"VEC2"
		},
		{
			"bufferView":3,
			"componentType":5121,
			"count":55798,
			"normalized":true,
			"type":"VEC4"
		},
		{
			"bufferView":4,
			"componentType":5123,
			"count":55798,
			"normalized":true,
			"type":"VEC4"
		},
		{
			"bufferView":5,
			"componentType":5123,
			"count":105834,
			"type":"SCALAR"
		},
		{
			"bufferView":6,
			"componentType":5126,
			"count":18642,
			"max":[
				2690.69873046875,
				-31.6068115234375,
				1796.30126953125
			],
			"min":[
				-3376.058349609375,
				-330.7800598144531,
				-3700.086669921875
			],
			"type":"VEC3"
		},
		{
			"bufferView":7,
			"componentType":5126,
			"count":18642,
			"type":"VEC3"
		},
		{
			"bufferView":8,
			"componentType":5126,
			"count":18642,
			"type":"VEC2"
		},
		{
			"bufferView":9,
			"componentType":5121,
			"count":18642,
			"normalized":true,
			"type":"VEC4"
		},
		{
			"bufferView":10,
			"componentType":5123,
			"count":18642,
			"normalized":true,
			"type":"VEC4"
		},
		{
			"bufferView":11,
			"componentType":5123,
			"count":44451,
			"type":"SCALAR"
		},
		{
			"bufferView":12,
			"componentType":5126,
			"count":11135,
			"max":[
				1922.5224609375,
				-217.6068115234375,
				220.27105712890625
			],
			"min":[
				-2033.0458984375,
				-329.6068115234375,
				-2515.629150390625
			],
			"type":"VEC3"
		},
		{
			"bufferView":13,
			"componentType":5126,
			"count":11135,
			"type":"VEC3"
		},
		{
			"bufferView":14,
			"componentType":5126,
			"count":11135,
			"type":"VEC2"
		},
		{
			"bufferView":15,
			"componentType":5121,
			"count":11135,
			"normalized":true,
			"type":"VEC4"
		},
		{
			"bufferView":16,
			"componentType":5123,
			"count":11135,
			"normalized":true,
			"type":"VEC4"
		},
		{
			"bufferView":17,
			"componentType":5123,
			"count":16899,
			"type":"SCALAR"
		},
		{
			"bufferView":18,
			"componentType":5126,
			"count":5885,
			"max":[
				1922.5224609375,
				-264.25567626953125,
				208.69366455078125
			],
			"min":[
				-2033.5770263671875,
				-329.1068115234375,
				-2522.2978515625
			],
			"type":"VEC3"
		},
		{
			"bufferView":19,
			"componentType":5126,
			"count":5885,
			"type":"VEC3"
		},
		{
			"bufferView":20,
			"componentType":5126,
			"count":5885,
			"type":"VEC2"
		},
		{
			"bufferView":21,
			"componentType":5121,
			"count":5885,
			"normalized":true,
			"type":"VEC4"
		},
		{
			"bufferView":22,
			"componentType":5123,
			"count":5885,
			"normalized":true,
			"type":"VEC4"
		},
		{
			"bufferView":23,
			"componentType":5123,
			"count":11196,
			"type":"SCALAR"
		},
		{
			"bufferView":24,
			"componentType":5126,
			"count":232,
			"max":[
				5396.66552734375,
				-316.941162109375,
				3394.837890625
			],
			"min":[
				-4336.12646484375,
				-329.40679931640625,
				-4517.6787109375
			],
			"type":"VEC3"
		},
		{
			"bufferView":25,
			"componentType":5126,
			"count":232,
			"type":"VEC3"
		},
		{
			"bufferView":26,
			"componentType":5126,
			"count":232,
			"type":"VEC2"
		},
		{
			"bufferView":27,
			"componentType":5123,
			"count":672,
			"type":"SCALAR"
		},
		{
			"bufferView":28,
			"componentType":5126,
			"count":83,
			"max":[
				13.808603286743164,
				20.858871459960938,
				74.32166290283203
			],
			"min":[
				0,
				-15.456619262695312,
				0
			],
			"type":"VEC3"
		},
		{
			"bufferView":29,
			"componentType":5126,
			"count":83,
			"type":"VEC3"
		},
		{
			"bufferView":30,
			"componentType":5123,
			"count":408,
			"type":"SCALAR"
		},
		{
			"bufferView":31,
			"componentType":5126,
			"count":8983,
			"max":[
				0.5841004848480225,
				0.6576876640319824,
				0.46837517619132996
			],
			"min":[
				-0.5461269617080688,
				-0.7377009391784668,
				-0.3729023039340973
			],
			"type":"VEC3"
		},
		{
			"bufferView":32,
			"componentType":5126,
			"count":8983,
			"type":"VEC3"
		},
		{
			"bufferView":33,
			"componentType":5121,
			"count":8983,
			"normalized":true,
			"type":"VEC4"
		},
		{
			"bufferView":34,
			"componentType":5123,
			"count":8983,
			"normalized":true,
			"type":"VEC4"
		},
		{
			"bufferView":35,
			"componentType":5123,
			"count":8985,
			"type":"SCALAR"
		}
	],
	"bufferViews":[
		{
			"buffer":0,
			"byteLength":669576,
			"byteOffset":0,
			"target":34962
		},
		{
			"buffer":0,
			"byteLength":669576,
			"byteOffset":669576,
			"target":34962
		},
		{
			"buffer":0,
			"byteLength":446384,
			"byteOffset":1339152,
			"target":34962
		},
		{
			"buffer":0,
			"byteLength":223192,
			"byteOffset":1785536,
			"target":34962
		},
		{
			"buffer":0,
			"byteLength":446384,
			"byteOffset":2008728,
			"target":34962
		},
		{
			"buffer":0,
			"byteLength":211668,
			"byteOffset":2455112,
			"target":34963
		},
		{
			"buffer":0,
			"byteLength":223704,
			"byteOffset":2666780,
			"target":34962
		},
		{
			"buffer":0,
			"byteLength":223704,
			"byteOffset":2890484,
			"target":34962
		},
		{
			"buffer":0,
			"byteLength":149136,
			"byteOffset":3114188,
			"target":34962
		},
		{
			"buffer":0,
			"byteLength":74568,
			"byteOffset":3263324,
			"target":34962
		},
		{
			"buffer":0,
			"byteLength":149136,
			"byteOffset":3337892,
			"target":34962
		},
		{
			"buffer":0,
			"byteLength":88902,
			"byteOffset":3487028,
			"target":34963
		},
		{
			"buffer":0,
			"byteLength":133620,
			"byteOffset":3575932,
			"target":34962
		},
		{
			"buffer":0,
			"byteLength":133620,
			"byteOffset":3709552,
			"target":34962
		},
		{
			"buffer":0,
			"byteLength":89080,
			"byteOffset":3843172,
			"target":34962
		},
		{
			"buffer":0,
			"byteLength":44540,
			"byteOffset":3932252,
			"target":34962
		},
		{
			"buffer":0,
			"byteLength":89080,
			"byteOffset":3976792,
			"target":34962
		},
		{
			"buffer":0,
			"byteLength":33798,
			"byteOffset":4065872,
			"target":34963
		},
		{
			"buffer":0,
			"byteLength":70620,
			"byteOffset":4099672,
			"target":34962
		},
		{
			"buffer":0,
			"byteLength":70620,
			"byteOffset":4170292,
			"target":34962
		},
		{
			"buffer":0,
			"byteLength":47080,
			"byteOffset":4240912,
			"target":34962
		},
		{
			"buffer":0,
			"byteLength":23540,
			"byteOffset":4287992,
			"target":34962
		},
		{
			"buffer":0,
			"byteLength":47080,
			"byteOffset":4311532,
			"target":34962
		},
		{
			"buffer":0,
			"byteLength":22392,
			"byteOffset":4358612,
			"target":34963
		},
		{
			"buffer":0,
			"byteLength":2784,
			"byteOffset":4381004,
			"target":34962
		},
		{
			"buffer":0,
			"byteLength":2784,
			"byteOffset":4383788,
			"target":34962
		},
		{
			"buffer":0,
			"byteLength":1856,
			"byteOffset":4386572,
			"target":34962
		},
		{
			"buffer":0,
			"byteLength":1344,
			"byteOffset":4388428,
			"target":34963
		},
		{
			"buffer":0,
			"byteLength":996,
			"byteOffset":4389772,
			"target":34962
		},
		{
			"buffer":0,
			"byteLength":996,
			"byteOffset":4390768,
			"target":34962
		},
		{
			"buffer":0,
			"byteLength":816,
			"byteOffset":4391764,
			"target":34963
		},
		{
			"buffer":0,
			"byteLength":107796,
			"byteOffset":4392580,
			"target":34962
		},
		{
			"buffer":0,
			"byteLength":107796,
			"byteOffset":4500376,
			"target":34962
		},
		{
			"buffer":0,
			"byteLength":35932,
			"byteOffset":4608172,
			"target":34962
		},
		{
			"buffer":0,
			"byteLength":71864,
			"byteOffset":4644104,
			"target":34962
		},
		{
			"buffer":0,
			"byteLength":17970,
			"byteOffset":4715968,
			"target":34963
		}
	],
	"samplers":[
		{
			"magFilter":9729,
			"minFilter":9987
		}
	],
	"buffers":[
		{
			"byteLength":4733940,
			"uri":"mdl_zesty_toronto.bin"
		}
	]
}
