{
	"asset":{
		"generator":"Khronos glTF Blender I/O v4.3.47",
		"version":"2.0"
	},
	"scene":0,
	"scenes":[
		{
			"name":"Scene",
			"nodes":[
				0
			]
		}
	],
	"nodes":[
		{
			"mesh":0,
			"name":"mdl_zesty_room_pillar",
			"scale":[
				0.850348949432373,
				1,
				0.850348949432373
			]
		}
	],
	"materials":[
		{
			"doubleSided":true,
			"name":"wall-white",
			"pbrMetallicRoughness":{
				"baseColorFactor":[
					0.800000011920929,
					0.800000011920929,
					0.800000011920929,
					1
				],
				"metallicFactor":0,
				"roughnessFactor":0.800000011920929
			}
		},
		{
			"doubleSided":true,
			"name":"gold",
			"pbrMetallicRoughness":{
				"baseColorFactor":[
					0.7995296716690063,
					0.7106378078460693,
					0,
					1
				],
				"roughnessFactor":0.10000000149011612
			}
		},
		{
			"doubleSided":true,
			"name":"gold-dark",
			"pbrMetallicRoughness":{
				"baseColorFactor":[
					0.28228625655174255,
					0.17862530052661896,
					0,
					1
				],
				"roughnessFactor":0.10000000149011612
			}
		},
		{
			"doubleSided":true,
			"name":"brushed-chrome",
			"pbrMetallicRoughness":{
				"baseColorFactor":[
					0.800000011920929,
					0.800000011920929,
					0.800000011920929,
					1
				],
				"metallicFactor":0.800000011920929,
				"roughnessFactor":0.25
			}
		},
		{
			"doubleSided":true,
			"name":"ttc-wall",
			"pbrMetallicRoughness":{
				"baseColorFactor":[
					0.6021167039871216,
					0.47308099269866943,
					0.3398735523223877,
					1
				],
				"metallicFactor":0,
				"roughnessFactor":0.4000000059604645
			}
		},
		{
			"doubleSided":true,
			"name":"ttc-floor",
			"pbrMetallicRoughness":{
				"baseColorFactor":[
					0.19461657106876373,
					0.20507892966270447,
					0.17464755475521088,
					1
				],
				"metallicFactor":0,
				"roughnessFactor":0.5
			}
		},
		{
			"doubleSided":true,
			"name":"ttc-red",
			"pbrMetallicRoughness":{
				"baseColorFactor":[
					0.6654607653617859,
					0.06025335192680359,
					0.04996210336685181,
					1
				],
				"metallicFactor":0
			}
		},
		{
			"doubleSided":true,
			"name":"concrete",
			"pbrMetallicRoughness":{
				"baseColorTexture":{
					"index":0
				},
				"metallicFactor":0,
				"roughnessFactor":0.8003799915313721
			}
		}
	],
	"meshes":[
		{
			"name":"Circle.001",
			"primitives":[
				{
					"attributes":{
						"POSITION":0,
						"NORMAL":1,
						"TEXCOORD_0":2
					},
					"indices":3,
					"material":0
				},
				{
					"attributes":{
						"POSITION":4,
						"NORMAL":5,
						"TEXCOORD_0":6
					},
					"indices":7,
					"material":1
				},
				{
					"attributes":{
						"POSITION":8,
						"NORMAL":9,
						"TEXCOORD_0":10
					},
					"indices":11,
					"material":2
				},
				{
					"attributes":{
						"POSITION":12,
						"NORMAL":13,
						"TEXCOORD_0":14
					},
					"indices":15,
					"material":3
				},
				{
					"attributes":{
						"POSITION":16,
						"NORMAL":17,
						"TEXCOORD_0":18
					},
					"indices":19,
					"material":4
				},
				{
					"attributes":{
						"POSITION":20,
						"NORMAL":21,
						"TEXCOORD_0":22
					},
					"indices":23,
					"material":5
				},
				{
					"attributes":{
						"POSITION":24,
						"NORMAL":25,
						"TEXCOORD_0":26
					},
					"indices":27,
					"material":6
				},
				{
					"attributes":{
						"POSITION":28,
						"NORMAL":29,
						"TEXCOORD_0":30
					},
					"indices":31,
					"material":7
				}
			]
		}
	],
	"textures":[
		{
			"sampler":0,
			"source":0
		}
	],
	"images":[
		{
			"mimeType":"image/jpeg",
			"name":"1K-concratetile_3_basecolor",
			"uri":"1K-concratetile_3_basecolor.jpg"
		}
	],
	"accessors":[
		{
			"bufferView":0,
			"componentType":5126,
			"count":118,
			"max":[
				0.743070662021637,
				4.775857925415039,
				0.7430704236030579
			],
			"min":[
				-0.7430703639984131,
				0.002356052165850997,
				-0.7430703043937683
			],
			"type":"VEC3"
		},
		{
			"bufferView":1,
			"componentType":5126,
			"count":118,
			"type":"VEC3"
		},
		{
			"bufferView":2,
			"componentType":5126,
			"count":118,
			"type":"VEC2"
		},
		{
			"bufferView":3,
			"componentType":5123,
			"count":468,
			"type":"SCALAR"
		},
		{
			"bufferView":4,
			"componentType":5126,
			"count":256,
			"max":[
				0.8880330324172974,
				-0.010864511132240295,
				0.8880329132080078
			],
			"min":[
				-0.8880330324172974,
				-0.5089696645736694,
				-0.8880330324172974
			],
			"type":"VEC3"
		},
		{
			"bufferView":5,
			"componentType":5126,
			"count":256,
			"type":"VEC3"
		},
		{
			"bufferView":6,
			"componentType":5126,
			"count":256,
			"type":"VEC2"
		},
		{
			"bufferView":7,
			"componentType":5123,
			"count":384,
			"type":"SCALAR"
		},
		{
			"bufferView":8,
			"componentType":5126,
			"count":96,
			"max":[
				0.7348299026489258,
				-0.010864511132240295,
				0.7348299026489258
			],
			"min":[
				-0.7348299026489258,
				-0.5089696645736694,
				-0.7348299026489258
			],
			"type":"VEC3"
		},
		{
			"bufferView":9,
			"componentType":5126,
			"count":96,
			"type":"VEC3"
		},
		{
			"bufferView":10,
			"componentType":5126,
			"count":96,
			"type":"VEC2"
		},
		{
			"bufferView":11,
			"componentType":5123,
			"count":186,
			"type":"SCALAR"
		},
		{
			"bufferView":12,
			"componentType":5126,
			"count":99,
			"max":[
				0.6614558696746826,
				2.5271334648132324,
				-0.41282758116722107
			],
			"min":[
				-0.6614560484886169,
				0.002356052165850997,
				-0.795526385307312
			],
			"type":"VEC3"
		},
		{
			"bufferView":13,
			"componentType":5126,
			"count":99,
			"type":"VEC3"
		},
		{
			"bufferView":14,
			"componentType":5126,
			"count":99,
			"type":"VEC2"
		},
		{
			"bufferView":15,
			"componentType":5123,
			"count":276,
			"type":"SCALAR"
		},
		{
			"bufferView":16,
			"componentType":5126,
			"count":121,
			"max":[
				0.6675405502319336,
				2.612924337387085,
				0.6675403118133545
			],
			"min":[
				-0.6675402522087097,
				0.0023560523986816406,
				-0.6675401926040649
			],
			"type":"VEC3"
		},
		{
			"bufferView":17,
			"componentType":5126,
			"count":121,
			"type":"VEC3"
		},
		{
			"bufferView":18,
			"componentType":5126,
			"count":121,
			"type":"VEC2"
		},
		{
			"bufferView":19,
			"componentType":5123,
			"count":426,
			"type":"SCALAR"
		},
		{
			"bufferView":20,
			"componentType":5126,
			"count":96,
			"max":[
				0.6675405502319336,
				0.0023560523986816406,
				0.6675403118133545
			],
			"min":[
				-0.6675402522087097,
				0.0023560523986816406,
				-0.6675401926040649
			],
			"type":"VEC3"
		},
		{
			"bufferView":21,
			"componentType":5126,
			"count":96,
			"type":"VEC3"
		},
		{
			"bufferView":22,
			"componentType":5126,
			"count":96,
			"type":"VEC2"
		},
		{
			"bufferView":23,
			"componentType":5123,
			"count":282,
			"type":"SCALAR"
		},
		{
			"bufferView":24,
			"componentType":5126,
			"count":64,
			"max":[
				0.49556493759155273,
				0.0023560523986816406,
				0.49556469917297363
			],
			"min":[
				-0.49556463956832886,
				0.0023560523986816406,
				-0.4955645799636841
			],
			"type":"VEC3"
		},
		{
			"bufferView":25,
			"componentType":5126,
			"count":64,
			"type":"VEC3"
		},
		{
			"bufferView":26,
			"componentType":5126,
			"count":64,
			"type":"VEC2"
		},
		{
			"bufferView":27,
			"componentType":5123,
			"count":192,
			"type":"SCALAR"
		},
		{
			"bufferView":28,
			"componentType":5126,
			"count":876,
			"max":[
				3.4640469551086426,
				-0.4912433624267578,
				3.202670097351074
			],
			"min":[
				-2.1453561782836914,
				-32.10602569580078,
				-3.202670097351074
			],
			"type":"VEC3"
		},
		{
			"bufferView":29,
			"componentType":5126,
			"count":876,
			"type":"VEC3"
		},
		{
			"bufferView":30,
			"componentType":5126,
			"count":876,
			"type":"VEC2"
		},
		{
			"bufferView":31,
			"componentType":5123,
			"count":1512,
			"type":"SCALAR"
		}
	],
	"bufferViews":[
		{
			"buffer":0,
			"byteLength":1416,
			"byteOffset":0,
			"target":34962
		},
		{
			"buffer":0,
			"byteLength":1416,
			"byteOffset":1416,
			"target":34962
		},
		{
			"buffer":0,
			"byteLength":944,
			"byteOffset":2832,
			"target":34962
		},
		{
			"buffer":0,
			"byteLength":936,
			"byteOffset":3776,
			"target":34963
		},
		{
			"buffer":0,
			"byteLength":3072,
			"byteOffset":4712,
			"target":34962
		},
		{
			"buffer":0,
			"byteLength":3072,
			"byteOffset":7784,
			"target":34962
		},
		{
			"buffer":0,
			"byteLength":2048,
			"byteOffset":10856,
			"target":34962
		},
		{
			"buffer":0,
			"byteLength":768,
			"byteOffset":12904,
			"target":34963
		},
		{
			"buffer":0,
			"byteLength":1152,
			"byteOffset":13672,
			"target":34962
		},
		{
			"buffer":0,
			"byteLength":1152,
			"byteOffset":14824,
			"target":34962
		},
		{
			"buffer":0,
			"byteLength":768,
			"byteOffset":15976,
			"target":34962
		},
		{
			"buffer":0,
			"byteLength":372,
			"byteOffset":16744,
			"target":34963
		},
		{
			"buffer":0,
			"byteLength":1188,
			"byteOffset":17116,
			"target":34962
		},
		{
			"buffer":0,
			"byteLength":1188,
			"byteOffset":18304,
			"target":34962
		},
		{
			"buffer":0,
			"byteLength":792,
			"byteOffset":19492,
			"target":34962
		},
		{
			"buffer":0,
			"byteLength":552,
			"byteOffset":20284,
			"target":34963
		},
		{
			"buffer":0,
			"byteLength":1452,
			"byteOffset":20836,
			"target":34962
		},
		{
			"buffer":0,
			"byteLength":1452,
			"byteOffset":22288,
			"target":34962
		},
		{
			"buffer":0,
			"byteLength":968,
			"byteOffset":23740,
			"target":34962
		},
		{
			"buffer":0,
			"byteLength":852,
			"byteOffset":24708,
			"target":34963
		},
		{
			"buffer":0,
			"byteLength":1152,
			"byteOffset":25560,
			"target":34962
		},
		{
			"buffer":0,
			"byteLength":1152,
			"byteOffset":26712,
			"target":34962
		},
		{
			"buffer":0,
			"byteLength":768,
			"byteOffset":27864,
			"target":34962
		},
		{
			"buffer":0,
			"byteLength":564,
			"byteOffset":28632,
			"target":34963
		},
		{
			"buffer":0,
			"byteLength":768,
			"byteOffset":29196,
			"target":34962
		},
		{
			"buffer":0,
			"byteLength":768,
			"byteOffset":29964,
			"target":34962
		},
		{
			"buffer":0,
			"byteLength":512,
			"byteOffset":30732,
			"target":34962
		},
		{
			"buffer":0,
			"byteLength":384,
			"byteOffset":31244,
			"target":34963
		},
		{
			"buffer":0,
			"byteLength":10512,
			"byteOffset":31628,
			"target":34962
		},
		{
			"buffer":0,
			"byteLength":10512,
			"byteOffset":42140,
			"target":34962
		},
		{
			"buffer":0,
			"byteLength":7008,
			"byteOffset":52652,
			"target":34962
		},
		{
			"buffer":0,
			"byteLength":3024,
			"byteOffset":59660,
			"target":34963
		}
	],
	"samplers":[
		{
			"magFilter":9729,
			"minFilter":9987
		}
	],
	"buffers":[
		{
			"byteLength":62684,
			"uri":"mdl_zesty_room_pillar.bin"
		}
	]
}
