{
	"asset":{
		"generator":"Khronos glTF Blender I/O v4.3.47",
		"version":"2.0"
	},
	"scene":0,
	"scenes":[
		{
			"name":"Scene",
			"nodes":[
				0
			]
		}
	],
	"nodes":[
		{
			"mesh":0,
			"name":"mdl_zesty_hat",
			"rotation":[
				0,
				-1,
				9.990599210141227e-05,
				1.6292068494294654e-07
			],
			"translation":[
				0,
				0.000460521609056741,
				-0.10850685834884644
			]
		}
	],
	"materials":[
		{
			"doubleSided":true,
			"name":"hat-blue",
			"pbrMetallicRoughness":{
				"baseColorTexture":{
					"index":0
				},
				"metallicFactor":0
			}
		}
	],
	"meshes":[
		{
			"name":"CapTip_high.010",
			"primitives":[
				{
					"attributes":{
						"POSITION":0,
						"NORMAL":1,
						"TEXCOORD_0":2
					},
					"indices":3,
					"material":0
				}
			]
		}
	],
	"textures":[
		{
			"sampler":0,
			"source":0
		}
	],
	"images":[
		{
			"mimeType":"image/jpeg",
			"name":"tx_zesty_hat",
			"uri":"tx_zesty_hat.jpg"
		}
	],
	"accessors":[
		{
			"bufferView":0,
			"componentType":5126,
			"count":2561,
			"max":[
				0.09338686615228653,
				0.09461871534585953,
				0.06852531433105469
			],
			"min":[
				-0.0926191657781601,
				-0.04005490243434906,
				-0.21603940427303314
			],
			"type":"VEC3"
		},
		{
			"bufferView":1,
			"componentType":5126,
			"count":2561,
			"type":"VEC3"
		},
		{
			"bufferView":2,
			"componentType":5126,
			"count":2561,
			"type":"VEC2"
		},
		{
			"bufferView":3,
			"componentType":5123,
			"count":9330,
			"type":"SCALAR"
		}
	],
	"bufferViews":[
		{
			"buffer":0,
			"byteLength":30732,
			"byteOffset":0,
			"target":34962
		},
		{
			"buffer":0,
			"byteLength":30732,
			"byteOffset":30732,
			"target":34962
		},
		{
			"buffer":0,
			"byteLength":20488,
			"byteOffset":61464,
			"target":34962
		},
		{
			"buffer":0,
			"byteLength":18660,
			"byteOffset":81952,
			"target":34963
		}
	],
	"samplers":[
		{
			"magFilter":9729,
			"minFilter":9987
		}
	],
	"buffers":[
		{
			"byteLength":100612,
			"uri":"mdl_zesty_hat.bin"
		}
	]
}
