{
	"asset":{
		"generator":"Khronos glTF Blender I/O v4.3.47",
		"version":"2.0"
	},
	"scene":0,
	"scenes":[
		{
			"name":"Scene",
			"nodes":[
				0
			]
		}
	],
	"nodes":[
		{
			"mesh":0,
			"name":"mdl_zesty_raccoon",
			"rotation":[
				0,
				0.29028475284576416,
				0,
				0.9569404125213623
			]
		}
	],
	"materials":[
		{
			"doubleSided":true,
			"name":"raccoon-grey",
			"pbrMetallicRoughness":{
				"baseColorFactor":[
					0.800000011920929,
					0.800000011920929,
					0.800000011920929,
					1
				],
				"roughnessFactor":0.3352601230144501
			}
		},
		{
			"doubleSided":true,
			"name":"raccoon-black",
			"pbrMetallicRoughness":{
				"baseColorFactor":[
					0,
					0,
					0,
					1
				],
				"metallicFactor":0,
				"roughnessFactor":0.20000000298023224
			}
		},
		{
			"doubleSided":true,
			"name":"raccoon-white",
			"pbrMetallicRoughness":{
				"baseColorFactor":[
					0.800000011920929,
					0.800000011920929,
					0.800000011920929,
					1
				],
				"metallicFactor":0,
				"roughnessFactor":0.20000000298023224
			}
		}
	],
	"meshes":[
		{
			"name":"Circle.010",
			"primitives":[
				{
					"attributes":{
						"POSITION":0,
						"NORMAL":1,
						"TEXCOORD_0":2
					},
					"indices":3,
					"material":0
				},
				{
					"attributes":{
						"POSITION":4,
						"NORMAL":5,
						"TEXCOORD_0":6
					},
					"indices":7,
					"material":1
				},
				{
					"attributes":{
						"POSITION":8,
						"NORMAL":9,
						"TEXCOORD_0":10
					},
					"indices":11,
					"material":2
				}
			]
		}
	],
	"accessors":[
		{
			"bufferView":0,
			"componentType":5126,
			"count":319,
			"max":[
				0.19887986779212952,
				2.1120452880859375,
				0.8698049783706665
			],
			"min":[
				-1.322920322418213,
				0,
				-0.7059115171432495
			],
			"type":"VEC3"
		},
		{
			"bufferView":1,
			"componentType":5126,
			"count":319,
			"type":"VEC3"
		},
		{
			"bufferView":2,
			"componentType":5126,
			"count":319,
			"type":"VEC2"
		},
		{
			"bufferView":3,
			"componentType":5123,
			"count":375,
			"type":"SCALAR"
		},
		{
			"bufferView":4,
			"componentType":5126,
			"count":81,
			"max":[
				0.39363744854927063,
				2.1120452880859375,
				0.8644508123397827
			],
			"min":[
				-0.4662950038909912,
				-9.027495980262756e-05,
				-0.7059115171432495
			],
			"type":"VEC3"
		},
		{
			"bufferView":5,
			"componentType":5126,
			"count":81,
			"type":"VEC3"
		},
		{
			"bufferView":6,
			"componentType":5126,
			"count":81,
			"type":"VEC2"
		},
		{
			"bufferView":7,
			"componentType":5123,
			"count":105,
			"type":"SCALAR"
		},
		{
			"bufferView":8,
			"componentType":5126,
			"count":79,
			"max":[
				0.39363744854927063,
				1.7029045820236206,
				0.8698049783706665
			],
			"min":[
				-0.8465020656585693,
				-9.027495980262756e-05,
				-0.40613067150115967
			],
			"type":"VEC3"
		},
		{
			"bufferView":9,
			"componentType":5126,
			"count":79,
			"type":"VEC3"
		},
		{
			"bufferView":10,
			"componentType":5126,
			"count":79,
			"type":"VEC2"
		},
		{
			"bufferView":11,
			"componentType":5123,
			"count":87,
			"type":"SCALAR"
		}
	],
	"bufferViews":[
		{
			"buffer":0,
			"byteLength":3828,
			"byteOffset":0,
			"target":34962
		},
		{
			"buffer":0,
			"byteLength":3828,
			"byteOffset":3828,
			"target":34962
		},
		{
			"buffer":0,
			"byteLength":2552,
			"byteOffset":7656,
			"target":34962
		},
		{
			"buffer":0,
			"byteLength":750,
			"byteOffset":10208,
			"target":34963
		},
		{
			"buffer":0,
			"byteLength":972,
			"byteOffset":10960,
			"target":34962
		},
		{
			"buffer":0,
			"byteLength":972,
			"byteOffset":11932,
			"target":34962
		},
		{
			"buffer":0,
			"byteLength":648,
			"byteOffset":12904,
			"target":34962
		},
		{
			"buffer":0,
			"byteLength":210,
			"byteOffset":13552,
			"target":34963
		},
		{
			"buffer":0,
			"byteLength":948,
			"byteOffset":13764,
			"target":34962
		},
		{
			"buffer":0,
			"byteLength":948,
			"byteOffset":14712,
			"target":34962
		},
		{
			"buffer":0,
			"byteLength":632,
			"byteOffset":15660,
			"target":34962
		},
		{
			"buffer":0,
			"byteLength":174,
			"byteOffset":16292,
			"target":34963
		}
	],
	"buffers":[
		{
			"byteLength":16468,
			"uri":"mdl_zesty_raccoon.bin"
		}
	]
}
