{
	"asset":{
		"generator":"Khronos glTF Blender I/O v4.3.47",
		"version":"2.0"
	},
	"extensionsUsed":[
		"KHR_materials_transmission",
		"KHR_materials_ior"
	],
	"scene":0,
	"scenes":[
		{
			"name":"Scene",
			"nodes":[
				0
			]
		}
	],
	"nodes":[
		{
			"mesh":0,
			"name":"mdl_zesty_olock"
		}
	],
	"materials":[
		{
			"doubleSided":true,
			"extensions":{
				"KHR_materials_transmission":{
					"transmissionFactor":0.949999988079071
				},
				"KHR_materials_ior":{
					"ior":1.4500000476837158
				}
			},
			"name":"glass",
			"pbrMetallicRoughness":{
				"metallicFactor":0,
				"roughnessFactor":0
			}
		},
		{
			"doubleSided":true,
			"name":"gold",
			"pbrMetallicRoughness":{
				"baseColorFactor":[
					0.8016340732574463,
					0.5009856224060059,
					0.032477349042892456,
					1
				],
				"roughnessFactor":0.10000000149011612
			}
		}
	],
	"meshes":[
		{
			"name":"Circle.014",
			"primitives":[
				{
					"attributes":{
						"POSITION":0,
						"NORMAL":1,
						"TEXCOORD_0":2
					},
					"indices":3,
					"material":0
				},
				{
					"attributes":{
						"POSITION":4,
						"NORMAL":5,
						"TEXCOORD_0":6
					},
					"indices":7,
					"material":1
				}
			]
		}
	],
	"accessors":[
		{
			"bufferView":0,
			"componentType":5126,
			"count":6,
			"max":[
				0.18559475243091583,
				0.016022438183426857,
				-0.018023809418082237
			],
			"min":[
				0.018023807555437088,
				0.016022438183426857,
				-0.18559470772743225
			],
			"type":"VEC3"
		},
		{
			"bufferView":1,
			"componentType":5126,
			"count":6,
			"type":"VEC3"
		},
		{
			"bufferView":2,
			"componentType":5126,
			"count":6,
			"type":"VEC2"
		},
		{
			"bufferView":3,
			"componentType":5123,
			"count":12,
			"type":"SCALAR"
		},
		{
			"bufferView":4,
			"componentType":5126,
			"count":95,
			"max":[
				0.21795085072517395,
				0.032044876366853714,
				0
			],
			"min":[
				-9.313225746154785e-10,
				0,
				-0.21795082092285156
			],
			"type":"VEC3"
		},
		{
			"bufferView":5,
			"componentType":5126,
			"count":95,
			"type":"VEC3"
		},
		{
			"bufferView":6,
			"componentType":5126,
			"count":95,
			"type":"VEC2"
		},
		{
			"bufferView":7,
			"componentType":5123,
			"count":222,
			"type":"SCALAR"
		}
	],
	"bufferViews":[
		{
			"buffer":0,
			"byteLength":72,
			"byteOffset":0,
			"target":34962
		},
		{
			"buffer":0,
			"byteLength":72,
			"byteOffset":72,
			"target":34962
		},
		{
			"buffer":0,
			"byteLength":48,
			"byteOffset":144,
			"target":34962
		},
		{
			"buffer":0,
			"byteLength":24,
			"byteOffset":192,
			"target":34963
		},
		{
			"buffer":0,
			"byteLength":1140,
			"byteOffset":216,
			"target":34962
		},
		{
			"buffer":0,
			"byteLength":1140,
			"byteOffset":1356,
			"target":34962
		},
		{
			"buffer":0,
			"byteLength":760,
			"byteOffset":2496,
			"target":34962
		},
		{
			"buffer":0,
			"byteLength":444,
			"byteOffset":3256,
			"target":34963
		}
	],
	"buffers":[
		{
			"byteLength":3700,
			"uri":"mdl_zesty_olock.bin"
		}
	]
}
