{
	"asset":{
		"generator":"Khronos glTF Blender I/O v4.3.47",
		"version":"2.0"
	},
	"scene":0,
	"scenes":[
		{
			"name":"Scene",
			"nodes":[
				0
			]
		}
	],
	"nodes":[
		{
			"mesh":0,
			"name":"mdl_zesty_maple_tri_md_peridot"
		}
	],
	"materials":[
		{
			"doubleSided":true,
			"name":"frame",
			"pbrMetallicRoughness":{
				"baseColorFactor":[
					0.8031071424484253,
					0.572740912437439,
					0,
					1
				],
				"metallicFactor":0.5936794877052307,
				"roughnessFactor":0.10000000149011612
			}
		},
		{
			"doubleSided":true,
			"name":"diamond",
			"pbrMetallicRoughness":{
				"metallicFactor":0.75,
				"roughnessFactor":0.10000000149011612
			}
		}
	],
	"meshes":[
		{
			"name":"Cube.030",
			"primitives":[
				{
					"attributes":{
						"POSITION":0,
						"NORMAL":1,
						"TEXCOORD_0":2
					},
					"indices":3,
					"material":0
				},
				{
					"attributes":{
						"POSITION":4,
						"NORMAL":5,
						"TEXCOORD_0":6
					},
					"indices":7,
					"material":1
				}
			]
		}
	],
	"accessors":[
		{
			"bufferView":0,
			"componentType":5126,
			"count":44,
			"max":[
				0.04133875295519829,
				0.06653942912817001,
				0.006831642240285873
			],
			"min":[
				-0.041338756680488586,
				-0.07790976017713547,
				-0.010000000707805157
			],
			"type":"VEC3"
		},
		{
			"bufferView":1,
			"componentType":5126,
			"count":44,
			"type":"VEC3"
		},
		{
			"bufferView":2,
			"componentType":5126,
			"count":44,
			"type":"VEC2"
		},
		{
			"bufferView":3,
			"componentType":5123,
			"count":72,
			"type":"SCALAR"
		},
		{
			"bufferView":4,
			"componentType":5126,
			"count":12,
			"max":[
				0.03549342229962349,
				0.05917983874678612,
				-0.010000000707805157
			],
			"min":[
				-0.035493429750204086,
				-0.06484413146972656,
				-0.02090591751039028
			],
			"type":"VEC3"
		},
		{
			"bufferView":5,
			"componentType":5126,
			"count":12,
			"type":"VEC3"
		},
		{
			"bufferView":6,
			"componentType":5126,
			"count":12,
			"type":"VEC2"
		},
		{
			"bufferView":7,
			"componentType":5123,
			"count":12,
			"type":"SCALAR"
		}
	],
	"bufferViews":[
		{
			"buffer":0,
			"byteLength":528,
			"byteOffset":0,
			"target":34962
		},
		{
			"buffer":0,
			"byteLength":528,
			"byteOffset":528,
			"target":34962
		},
		{
			"buffer":0,
			"byteLength":352,
			"byteOffset":1056,
			"target":34962
		},
		{
			"buffer":0,
			"byteLength":144,
			"byteOffset":1408,
			"target":34963
		},
		{
			"buffer":0,
			"byteLength":144,
			"byteOffset":1552,
			"target":34962
		},
		{
			"buffer":0,
			"byteLength":144,
			"byteOffset":1696,
			"target":34962
		},
		{
			"buffer":0,
			"byteLength":96,
			"byteOffset":1840,
			"target":34962
		},
		{
			"buffer":0,
			"byteLength":24,
			"byteOffset":1936,
			"target":34963
		}
	],
	"buffers":[
		{
			"byteLength":1960,
			"uri":"mdl_zesty_maple_tri_md_peridot.bin"
		}
	]
}
