{
	"asset":{
		"generator":"Khronos glTF Blender I/O v4.3.47",
		"version":"2.0"
	},
	"scene":0,
	"scenes":[
		{
			"name":"Scene",
			"nodes":[
				0
			]
		}
	],
	"nodes":[
		{
			"mesh":0,
			"name":"mdl_zesty_maple_tri_sm_garnet"
		}
	],
	"materials":[
		{
			"doubleSided":true,
			"name":"frame",
			"pbrMetallicRoughness":{
				"baseColorFactor":[
					0.8031071424484253,
					0.572740912437439,
					0,
					1
				],
				"metallicFactor":0.5936794877052307,
				"roughnessFactor":0.10000000149011612
			}
		},
		{
			"doubleSided":true,
			"name":"garnet",
			"pbrMetallicRoughness":{
				"baseColorFactor":[
					0.6455230712890625,
					0,
					0.003049807623028755,
					1
				],
				"metallicFactor":0.75,
				"roughnessFactor":0.10000000149011612
			}
		}
	],
	"meshes":[
		{
			"name":"Cube.031",
			"primitives":[
				{
					"attributes":{
						"POSITION":0,
						"NORMAL":1,
						"TEXCOORD_0":2
					},
					"indices":3,
					"material":0
				},
				{
					"attributes":{
						"POSITION":4,
						"NORMAL":5,
						"TEXCOORD_0":6
					},
					"indices":7,
					"material":1
				}
			]
		}
	],
	"accessors":[
		{
			"bufferView":0,
			"componentType":5126,
			"count":40,
			"max":[
				0.02849569357931614,
				0.06277815997600555,
				0.006831642240285873
			],
			"min":[
				-0.028495702892541885,
				-0.04505103453993797,
				-0.009999999776482582
			],
			"type":"VEC3"
		},
		{
			"bufferView":1,
			"componentType":5126,
			"count":40,
			"type":"VEC3"
		},
		{
			"bufferView":2,
			"componentType":5126,
			"count":40,
			"type":"VEC2"
		},
		{
			"bufferView":3,
			"componentType":5123,
			"count":66,
			"type":"SCALAR"
		},
		{
			"bufferView":4,
			"componentType":5126,
			"count":12,
			"max":[
				0.022741425782442093,
				0.048363324254751205,
				-0.009999996982514858
			],
			"min":[
				-0.02274143137037754,
				-0.03769143298268318,
				-0.019529959186911583
			],
			"type":"VEC3"
		},
		{
			"bufferView":5,
			"componentType":5126,
			"count":12,
			"type":"VEC3"
		},
		{
			"bufferView":6,
			"componentType":5126,
			"count":12,
			"type":"VEC2"
		},
		{
			"bufferView":7,
			"componentType":5123,
			"count":12,
			"type":"SCALAR"
		}
	],
	"bufferViews":[
		{
			"buffer":0,
			"byteLength":480,
			"byteOffset":0,
			"target":34962
		},
		{
			"buffer":0,
			"byteLength":480,
			"byteOffset":480,
			"target":34962
		},
		{
			"buffer":0,
			"byteLength":320,
			"byteOffset":960,
			"target":34962
		},
		{
			"buffer":0,
			"byteLength":132,
			"byteOffset":1280,
			"target":34963
		},
		{
			"buffer":0,
			"byteLength":144,
			"byteOffset":1412,
			"target":34962
		},
		{
			"buffer":0,
			"byteLength":144,
			"byteOffset":1556,
			"target":34962
		},
		{
			"buffer":0,
			"byteLength":96,
			"byteOffset":1700,
			"target":34962
		},
		{
			"buffer":0,
			"byteLength":24,
			"byteOffset":1796,
			"target":34963
		}
	],
	"buffers":[
		{
			"byteLength":1820,
			"uri":"mdl_zesty_maple_tri_sm_garnet.bin"
		}
	]
}
