{
	"asset":{
		"generator":"Khronos glTF Blender I/O v4.3.47",
		"version":"2.0"
	},
	"extensionsUsed":[
		"KHR_materials_emissive_strength"
	],
	"scene":0,
	"scenes":[
		{
			"name":"Scene",
			"nodes":[
				0
			]
		}
	],
	"nodes":[
		{
			"mesh":0,
			"name":"mdl_zesty_powernodeon"
		}
	],
	"materials":[
		{
			"doubleSided":true,
			"emissiveFactor":[
				0.9424669087751576,
				1,
				0
			],
			"extensions":{
				"KHR_materials_emissive_strength":{
					"emissiveStrength":3.858996739148097
				}
			},
			"name":"power-on",
			"pbrMetallicRoughness":{
				"baseColorFactor":[
					0.7577033042907715,
					0.803957462310791,
					0,
					1
				],
				"metallicFactor":0,
				"roughnessFactor":0.5
			}
		},
		{
			"doubleSided":true,
			"name":"black",
			"pbrMetallicRoughness":{
				"baseColorFactor":[
					0,
					0,
					0,
					1
				],
				"metallicFactor":0.45075759291648865,
				"roughnessFactor":0.09848484396934509
			}
		}
	],
	"meshes":[
		{
			"name":"Cube.001",
			"primitives":[
				{
					"attributes":{
						"POSITION":0,
						"NORMAL":1,
						"TEXCOORD_0":2
					},
					"indices":3,
					"material":0
				},
				{
					"attributes":{
						"POSITION":4,
						"NORMAL":5,
						"TEXCOORD_0":6
					},
					"indices":7,
					"material":1
				}
			]
		}
	],
	"accessors":[
		{
			"bufferView":0,
			"componentType":5126,
			"count":80,
			"max":[
				0.05000000074505806,
				0.05000000074505806,
				0.05000000074505806
			],
			"min":[
				-0.05000000074505806,
				0.042424242943525314,
				-0.05000000074505806
			],
			"type":"VEC3"
		},
		{
			"bufferView":1,
			"componentType":5126,
			"count":80,
			"type":"VEC3"
		},
		{
			"bufferView":2,
			"componentType":5126,
			"count":80,
			"type":"VEC2"
		},
		{
			"bufferView":3,
			"componentType":5123,
			"count":144,
			"type":"SCALAR"
		},
		{
			"bufferView":4,
			"componentType":5126,
			"count":48,
			"max":[
				0.05000000074505806,
				0.042847614735364914,
				0.05000000074505806
			],
			"min":[
				-0.05000000074505806,
				-0.05000000074505806,
				-0.05000000074505806
			],
			"type":"VEC3"
		},
		{
			"bufferView":5,
			"componentType":5126,
			"count":48,
			"type":"VEC3"
		},
		{
			"bufferView":6,
			"componentType":5126,
			"count":48,
			"type":"VEC2"
		},
		{
			"bufferView":7,
			"componentType":5123,
			"count":84,
			"type":"SCALAR"
		}
	],
	"bufferViews":[
		{
			"buffer":0,
			"byteLength":960,
			"byteOffset":0,
			"target":34962
		},
		{
			"buffer":0,
			"byteLength":960,
			"byteOffset":960,
			"target":34962
		},
		{
			"buffer":0,
			"byteLength":640,
			"byteOffset":1920,
			"target":34962
		},
		{
			"buffer":0,
			"byteLength":288,
			"byteOffset":2560,
			"target":34963
		},
		{
			"buffer":0,
			"byteLength":576,
			"byteOffset":2848,
			"target":34962
		},
		{
			"buffer":0,
			"byteLength":576,
			"byteOffset":3424,
			"target":34962
		},
		{
			"buffer":0,
			"byteLength":384,
			"byteOffset":4000,
			"target":34962
		},
		{
			"buffer":0,
			"byteLength":168,
			"byteOffset":4384,
			"target":34963
		}
	],
	"buffers":[
		{
			"byteLength":4552,
			"uri":"mdl_zesty_powernodeon.bin"
		}
	]
}
