{
	"asset":{
		"generator":"Khronos glTF Blender I/O v4.3.47",
		"version":"2.0"
	},
	"extensionsUsed":[
		"KHR_materials_emissive_strength"
	],
	"scene":0,
	"scenes":[
		{
			"name":"Scene",
			"nodes":[
				0
			]
		}
	],
	"nodes":[
		{
			"mesh":0,
			"name":"toronto-sign.007",
			"rotation":[
				0.704416036605835,
				0.061628423631191254,
				-0.06162842735648155,
				0.704416036605835
			]
		}
	],
	"materials":[
		{
			"doubleSided":true,
			"emissiveFactor":[
				1,
				1,
				1
			],
			"extensions":{
				"KHR_materials_emissive_strength":{
					"emissiveStrength":2
				}
			},
			"name":"toronto-sign-light-white",
			"pbrMetallicRoughness":{
				"baseColorFactor":[
					0.800000011920929,
					0.800000011920929,
					0.800000011920929,
					1
				],
				"metallicFactor":0,
				"roughnessFactor":0.5
			}
		},
		{
			"doubleSided":true,
			"name":"toronto-sign-yellow",
			"pbrMetallicRoughness":{
				"baseColorFactor":[
					1,
					0.7230560183525085,
					0.0024283980019390583,
					1
				],
				"metallicFactor":0,
				"roughnessFactor":0.5
			}
		}
	],
	"meshes":[
		{
			"name":"Circle.016",
			"primitives":[
				{
					"attributes":{
						"POSITION":0,
						"NORMAL":1,
						"TEXCOORD_0":2
					},
					"indices":3,
					"material":0
				},
				{
					"attributes":{
						"POSITION":4,
						"NORMAL":5,
						"TEXCOORD_0":6
					},
					"indices":7,
					"material":1
				}
			]
		}
	],
	"accessors":[
		{
			"bufferView":0,
			"componentType":5126,
			"count":58,
			"max":[
				0.2551875114440918,
				-0.05879084765911102,
				0.3279878795146942
			],
			"min":[
				-0.2551875114440918,
				-0.058791033923625946,
				-0.3279878795146942
			],
			"type":"VEC3"
		},
		{
			"bufferView":1,
			"componentType":5126,
			"count":58,
			"type":"VEC3"
		},
		{
			"bufferView":2,
			"componentType":5126,
			"count":58,
			"type":"VEC2"
		},
		{
			"bufferView":3,
			"componentType":5123,
			"count":180,
			"type":"SCALAR"
		},
		{
			"bufferView":4,
			"componentType":5126,
			"count":190,
			"max":[
				0.2551875114440918,
				0.058791033923625946,
				0.3279878795146942
			],
			"min":[
				-0.2551875114440918,
				-0.058791033923625946,
				-0.3279878795146942
			],
			"type":"VEC3"
		},
		{
			"bufferView":5,
			"componentType":5126,
			"count":190,
			"type":"VEC3"
		},
		{
			"bufferView":6,
			"componentType":5126,
			"count":190,
			"type":"VEC2"
		},
		{
			"bufferView":7,
			"componentType":5123,
			"count":516,
			"type":"SCALAR"
		}
	],
	"bufferViews":[
		{
			"buffer":0,
			"byteLength":696,
			"byteOffset":0,
			"target":34962
		},
		{
			"buffer":0,
			"byteLength":696,
			"byteOffset":696,
			"target":34962
		},
		{
			"buffer":0,
			"byteLength":464,
			"byteOffset":1392,
			"target":34962
		},
		{
			"buffer":0,
			"byteLength":360,
			"byteOffset":1856,
			"target":34963
		},
		{
			"buffer":0,
			"byteLength":2280,
			"byteOffset":2216,
			"target":34962
		},
		{
			"buffer":0,
			"byteLength":2280,
			"byteOffset":4496,
			"target":34962
		},
		{
			"buffer":0,
			"byteLength":1520,
			"byteOffset":6776,
			"target":34962
		},
		{
			"buffer":0,
			"byteLength":1032,
			"byteOffset":8296,
			"target":34963
		}
	],
	"buffers":[
		{
			"byteLength":9328,
			"uri":"toronto-sign.007.bin"
		}
	]
}
