{
	"asset":{
		"generator":"Khronos glTF Blender I/O v4.3.47",
		"version":"2.0"
	},
	"scene":0,
	"scenes":[
		{
			"name":"Scene",
			"nodes":[
				0
			]
		}
	],
	"nodes":[
		{
			"mesh":0,
			"name":"mdl_zesty_donutcup"
		}
	],
	"materials":[
		{
			"doubleSided":true,
			"name":"white",
			"pbrMetallicRoughness":{
				"baseColorFactor":[
					0.800000011920929,
					0.800000011920929,
					0.800000011920929,
					1
				],
				"metallicFactor":0,
				"roughnessFactor":0.30000001192092896
			}
		},
		{
			"doubleSided":true,
			"name":"red",
			"pbrMetallicRoughness":{
				"baseColorTexture":{
					"index":0
				},
				"metallicFactor":0,
				"roughnessFactor":0.30000001192092896
			}
		},
		{
			"doubleSided":true,
			"name":"black",
			"pbrMetallicRoughness":{
				"baseColorFactor":[
					0,
					0,
					0,
					1
				],
				"metallicFactor":0
			}
		}
	],
	"meshes":[
		{
			"name":"Cylinder",
			"primitives":[
				{
					"attributes":{
						"POSITION":0,
						"NORMAL":1,
						"TEXCOORD_0":2
					},
					"indices":3,
					"material":0
				},
				{
					"attributes":{
						"POSITION":4,
						"NORMAL":5,
						"TEXCOORD_0":6
					},
					"indices":7,
					"material":1
				},
				{
					"attributes":{
						"POSITION":8,
						"NORMAL":9,
						"TEXCOORD_0":10
					},
					"indices":11,
					"material":2
				}
			]
		}
	],
	"textures":[
		{
			"sampler":0,
			"source":0
		}
	],
	"images":[
		{
			"mimeType":"image/jpeg",
			"name":"mdl_zesty_donutcup",
			"uri":"mdl_zesty_donutcup.jpg"
		}
	],
	"accessors":[
		{
			"bufferView":0,
			"componentType":5126,
			"count":547,
			"max":[
				0.04285039007663727,
				0.06891687214374542,
				0.04285039007663727
			],
			"min":[
				-0.04285039007663727,
				-0.061319101601839066,
				-0.04285039007663727
			],
			"type":"VEC3"
		},
		{
			"bufferView":1,
			"componentType":5126,
			"count":547,
			"type":"VEC3"
		},
		{
			"bufferView":2,
			"componentType":5126,
			"count":547,
			"type":"VEC2"
		},
		{
			"bufferView":3,
			"componentType":5123,
			"count":1692,
			"type":"SCALAR"
		},
		{
			"bufferView":4,
			"componentType":5126,
			"count":68,
			"max":[
				0.038766078650951385,
				0.051913000643253326,
				0.038766078650951385
			],
			"min":[
				-0.038766078650951385,
				-0.0564374215900898,
				-0.038766078650951385
			],
			"type":"VEC3"
		},
		{
			"bufferView":5,
			"componentType":5126,
			"count":68,
			"type":"VEC3"
		},
		{
			"bufferView":6,
			"componentType":5126,
			"count":68,
			"type":"VEC2"
		},
		{
			"bufferView":7,
			"componentType":5123,
			"count":192,
			"type":"SCALAR"
		},
		{
			"bufferView":8,
			"componentType":5126,
			"count":38,
			"max":[
				0.011241487227380276,
				0.06559401005506516,
				-0.022978492081165314
			],
			"min":[
				-0.011241492815315723,
				0.06261979788541794,
				-0.02937542460858822
			],
			"type":"VEC3"
		},
		{
			"bufferView":9,
			"componentType":5126,
			"count":38,
			"type":"VEC3"
		},
		{
			"bufferView":10,
			"componentType":5126,
			"count":38,
			"type":"VEC2"
		},
		{
			"bufferView":11,
			"componentType":5123,
			"count":84,
			"type":"SCALAR"
		}
	],
	"bufferViews":[
		{
			"buffer":0,
			"byteLength":6564,
			"byteOffset":0,
			"target":34962
		},
		{
			"buffer":0,
			"byteLength":6564,
			"byteOffset":6564,
			"target":34962
		},
		{
			"buffer":0,
			"byteLength":4376,
			"byteOffset":13128,
			"target":34962
		},
		{
			"buffer":0,
			"byteLength":3384,
			"byteOffset":17504,
			"target":34963
		},
		{
			"buffer":0,
			"byteLength":816,
			"byteOffset":20888,
			"target":34962
		},
		{
			"buffer":0,
			"byteLength":816,
			"byteOffset":21704,
			"target":34962
		},
		{
			"buffer":0,
			"byteLength":544,
			"byteOffset":22520,
			"target":34962
		},
		{
			"buffer":0,
			"byteLength":384,
			"byteOffset":23064,
			"target":34963
		},
		{
			"buffer":0,
			"byteLength":456,
			"byteOffset":23448,
			"target":34962
		},
		{
			"buffer":0,
			"byteLength":456,
			"byteOffset":23904,
			"target":34962
		},
		{
			"buffer":0,
			"byteLength":304,
			"byteOffset":24360,
			"target":34962
		},
		{
			"buffer":0,
			"byteLength":168,
			"byteOffset":24664,
			"target":34963
		}
	],
	"samplers":[
		{
			"magFilter":9729,
			"minFilter":9987
		}
	],
	"buffers":[
		{
			"byteLength":24832,
			"uri":"mdl_zesty_donutcup.bin"
		}
	]
}
