{
	"asset":{
		"generator":"Khronos glTF Blender I/O v4.3.47",
		"version":"2.0"
	},
	"scene":0,
	"scenes":[
		{
			"name":"Scene",
			"nodes":[
				0
			]
		}
	],
	"nodes":[
		{
			"mesh":0,
			"name":"mdl_zesty_condo_screen_manoutline"
		}
	],
	"materials":[
		{
			"doubleSided":true,
			"emissiveFactor":[
				0.8007433414459229,
				0.6950905323028564,
				0
			],
			"name":"screenglow",
			"pbrMetallicRoughness":{
				"baseColorFactor":[
					0.8007433414459229,
					0.6950905323028564,
					0,
					1
				],
				"metallicFactor":0,
				"roughnessFactor":0
			}
		}
	],
	"meshes":[
		{
			"name":"Sphere.002",
			"primitives":[
				{
					"attributes":{
						"POSITION":0,
						"NORMAL":1,
						"TEXCOORD_0":2
					},
					"indices":3,
					"material":0
				}
			]
		}
	],
	"accessors":[
		{
			"bufferView":0,
			"componentType":5126,
			"count":140,
			"max":[
				0.07908375561237335,
				0.14854022860527039,
				-5.960464477539063e-08
			],
			"min":[
				-0.07908375561237335,
				-0.14854022860527039,
				-5.960464477539063e-08
			],
			"type":"VEC3"
		},
		{
			"bufferView":1,
			"componentType":5126,
			"count":140,
			"type":"VEC3"
		},
		{
			"bufferView":2,
			"componentType":5126,
			"count":140,
			"type":"VEC2"
		},
		{
			"bufferView":3,
			"componentType":5123,
			"count":420,
			"type":"SCALAR"
		}
	],
	"bufferViews":[
		{
			"buffer":0,
			"byteLength":1680,
			"byteOffset":0,
			"target":34962
		},
		{
			"buffer":0,
			"byteLength":1680,
			"byteOffset":1680,
			"target":34962
		},
		{
			"buffer":0,
			"byteLength":1120,
			"byteOffset":3360,
			"target":34962
		},
		{
			"buffer":0,
			"byteLength":840,
			"byteOffset":4480,
			"target":34963
		}
	],
	"buffers":[
		{
			"byteLength":5320,
			"uri":"mdl_zesty_condo_screen_manoutline.bin"
		}
	]
}
