{
	"asset":{
		"generator":"Khronos glTF Blender I/O v4.3.47",
		"version":"2.0"
	},
	"scene":0,
	"scenes":[
		{
			"name":"Scene",
			"nodes":[
				0
			]
		}
	],
	"nodes":[
		{
			"mesh":0,
			"name":"mdl_zesty_man"
		}
	],
	"materials":[
		{
			"doubleSided":true,
			"name":"black",
			"pbrMetallicRoughness":{
				"baseColorFactor":[
					0,
					0,
					0,
					1
				]
			}
		}
	],
	"meshes":[
		{
			"name":"Sphere",
			"primitives":[
				{
					"attributes":{
						"POSITION":0,
						"NORMAL":1,
						"TEXCOORD_0":2
					},
					"indices":3,
					"material":0
				}
			]
		}
	],
	"accessors":[
		{
			"bufferView":0,
			"componentType":5126,
			"count":2030,
			"max":[
				0.05408380180597305,
				0.2468385100364685,
				0.021075064316391945
			],
			"min":[
				-0.05408380180597305,
				0,
				-0.021075064316391945
			],
			"type":"VEC3"
		},
		{
			"bufferView":1,
			"componentType":5126,
			"count":2030,
			"type":"VEC3"
		},
		{
			"bufferView":2,
			"componentType":5126,
			"count":2030,
			"type":"VEC2"
		},
		{
			"bufferView":3,
			"componentType":5123,
			"count":10968,
			"type":"SCALAR"
		}
	],
	"bufferViews":[
		{
			"buffer":0,
			"byteLength":24360,
			"byteOffset":0,
			"target":34962
		},
		{
			"buffer":0,
			"byteLength":24360,
			"byteOffset":24360,
			"target":34962
		},
		{
			"buffer":0,
			"byteLength":16240,
			"byteOffset":48720,
			"target":34962
		},
		{
			"buffer":0,
			"byteLength":21936,
			"byteOffset":64960,
			"target":34963
		}
	],
	"buffers":[
		{
			"byteLength":86896,
			"uri":"mdl_zesty_man.bin"
		}
	]
}
