{
	"asset":{
		"generator":"Khronos glTF Blender I/O v4.2.57",
		"version":"2.0"
	},
	"scene":0,
	"scenes":[
		{
			"name":"Scene",
			"nodes":[
				0,
				1,
				2,
				3,
				4
			]
		}
	],
	"nodes":[
		{
			"mesh":0,
			"name":"land",
			"translation":[
				0,
				329.60699462890625,
				0
			]
		},
		{
			"mesh":1,
			"name":"buildings-island",
			"translation":[
				0,
				329.6068115234375,
				0
			]
		},
		{
			"mesh":2,
			"name":"buildings-harbour",
			"translation":[
				0,
				329.6068115234375,
				0
			]
		},
		{
			"mesh":3,
			"name":"buildings-core",
			"translation":[
				0,
				329.6068115234375,
				0
			]
		},
		{
			"mesh":4,
			"name":"buildings-small",
			"translation":[
				0,
				329.6068115234375,
				0
			]
		}
	],
	"materials":[
		{
			"doubleSided":true,
			"name":"land.003",
			"pbrMetallicRoughness":{
				"baseColorTexture":{
					"index":0
				},
				"metallicFactor":0,
				"roughnessFactor":0.5
			}
		},
		{
			"doubleSided":true,
			"name":"wall",
			"pbrMetallicRoughness":{
				"baseColorTexture":{
					"index":1
				},
				"metallicFactor":0,
				"roughnessFactor":0.5
			}
		},
		{
			"doubleSided":true,
			"name":"ceiling",
			"pbrMetallicRoughness":{
				"baseColorFactor":[
					0.800000011920929,
					0.800000011920929,
					0.800000011920929,
					1
				],
				"metallicFactor":0,
				"roughnessFactor":0.5
			}
		},
		{
			"doubleSided":true,
			"name":"wall.002",
			"pbrMetallicRoughness":{
				"baseColorTexture":{
					"index":2
				},
				"metallicFactor":0,
				"roughnessFactor":0.5
			}
		},
		{
			"doubleSided":true,
			"name":"ceiling.002",
			"pbrMetallicRoughness":{
				"baseColorFactor":[
					0.800000011920929,
					0.800000011920929,
					0.800000011920929,
					1
				],
				"metallicFactor":0,
				"roughnessFactor":0.5
			}
		}
	],
	"meshes":[
		{
			"name":"map_21.osm_water.004",
			"primitives":[
				{
					"attributes":{
						"POSITION":0,
						"NORMAL":1,
						"TEXCOORD_0":2
					},
					"indices":3,
					"material":0
				}
			]
		},
		{
			"name":"map_22.osm_buildings.002",
			"primitives":[
				{
					"attributes":{
						"POSITION":4,
						"NORMAL":5,
						"TEXCOORD_0":6,
						"COLOR_0":7,
						"COLOR_1":8
					},
					"indices":9,
					"material":1
				},
				{
					"attributes":{
						"POSITION":10,
						"NORMAL":11,
						"TEXCOORD_0":12,
						"COLOR_0":13,
						"COLOR_1":14
					},
					"indices":15,
					"material":2
				}
			]
		},
		{
			"name":"map_22.osm_buildings.003",
			"primitives":[
				{
					"attributes":{
						"POSITION":16,
						"NORMAL":17,
						"TEXCOORD_0":18,
						"COLOR_0":19,
						"COLOR_1":20
					},
					"indices":21,
					"material":1
				},
				{
					"attributes":{
						"POSITION":22,
						"NORMAL":23,
						"TEXCOORD_0":24,
						"COLOR_0":25,
						"COLOR_1":26
					},
					"indices":27,
					"material":2
				}
			]
		},
		{
			"name":"map_22.osm_buildings.004",
			"primitives":[
				{
					"attributes":{
						"POSITION":28,
						"NORMAL":29,
						"TEXCOORD_0":30,
						"COLOR_0":31,
						"COLOR_1":32
					},
					"indices":33,
					"material":1
				},
				{
					"attributes":{
						"POSITION":34,
						"NORMAL":35,
						"TEXCOORD_0":36,
						"COLOR_0":37,
						"COLOR_1":38
					},
					"indices":39,
					"material":2
				}
			]
		},
		{
			"name":"map_22.osm_buildings.007",
			"primitives":[
				{
					"attributes":{
						"POSITION":40,
						"NORMAL":41,
						"TEXCOORD_0":42,
						"COLOR_0":43,
						"COLOR_1":44
					},
					"indices":45,
					"material":3
				},
				{
					"attributes":{
						"POSITION":46,
						"NORMAL":47,
						"TEXCOORD_0":48,
						"COLOR_0":49,
						"COLOR_1":50
					},
					"indices":51,
					"material":4
				}
			]
		}
	],
	"textures":[
		{
			"sampler":0,
			"source":0
		},
		{
			"sampler":0,
			"source":1
		},
		{
			"sampler":0,
			"source":1
		}
	],
	"images":[
		{
			"mimeType":"image/jpeg",
			"name":"toronto-satellite",
			"uri":"toronto-satellite.jpg"
		},
		{
			"mimeType":"image/jpeg",
			"name":"Facade006_4K_Color",
			"uri":"Facade006_4K_Color.jpg"
		}
	],
	"accessors":[
		{
			"bufferView":0,
			"componentType":5126,
			"count":232,
			"max":[
				5396.66552734375,
				-316.941162109375,
				3394.837890625
			],
			"min":[
				-4336.12646484375,
				-329.40679931640625,
				-4517.6787109375
			],
			"type":"VEC3"
		},
		{
			"bufferView":1,
			"componentType":5126,
			"count":232,
			"type":"VEC3"
		},
		{
			"bufferView":2,
			"componentType":5126,
			"count":232,
			"type":"VEC2"
		},
		{
			"bufferView":3,
			"componentType":5123,
			"count":672,
			"type":"SCALAR"
		},
		{
			"bufferView":4,
			"componentType":5126,
			"count":4304,
			"max":[
				2698.741455078125,
				-304.4356689453125,
				3396.285400390625
			],
			"min":[
				-1228.763427734375,
				-329.6068115234375,
				1017.6409301757812
			],
			"type":"VEC3"
		},
		{
			"bufferView":5,
			"componentType":5126,
			"count":4304,
			"type":"VEC3"
		},
		{
			"bufferView":6,
			"componentType":5126,
			"count":4304,
			"type":"VEC2"
		},
		{
			"bufferView":7,
			"componentType":5121,
			"count":4304,
			"normalized":true,
			"type":"VEC4"
		},
		{
			"bufferView":8,
			"componentType":5126,
			"count":4304,
			"type":"VEC3"
		},
		{
			"bufferView":9,
			"componentType":5123,
			"count":6600,
			"type":"SCALAR"
		},
		{
			"bufferView":10,
			"componentType":5126,
			"count":1694,
			"max":[
				2698.741455078125,
				-304.4356689453125,
				3400.070068359375
			],
			"min":[
				-1059.1871337890625,
				-325.5882873535156,
				1017.6409301757812
			],
			"type":"VEC3"
		},
		{
			"bufferView":11,
			"componentType":5126,
			"count":1694,
			"type":"VEC3"
		},
		{
			"bufferView":12,
			"componentType":5126,
			"count":1694,
			"type":"VEC2"
		},
		{
			"bufferView":13,
			"componentType":5121,
			"count":1694,
			"normalized":true,
			"type":"VEC4"
		},
		{
			"bufferView":14,
			"componentType":5126,
			"count":1694,
			"type":"VEC3"
		},
		{
			"bufferView":15,
			"componentType":5123,
			"count":3924,
			"type":"SCALAR"
		},
		{
			"bufferView":16,
			"componentType":5126,
			"count":1117,
			"max":[
				3857.209716796875,
				-304.8252868652344,
				914.1174926757812
			],
			"min":[
				2556.64794921875,
				-329.6068115234375,
				-1206.4320068359375
			],
			"type":"VEC3"
		},
		{
			"bufferView":17,
			"componentType":5126,
			"count":1117,
			"type":"VEC3"
		},
		{
			"bufferView":18,
			"componentType":5126,
			"count":1117,
			"type":"VEC2"
		},
		{
			"bufferView":19,
			"componentType":5121,
			"count":1117,
			"normalized":true,
			"type":"VEC4"
		},
		{
			"bufferView":20,
			"componentType":5126,
			"count":1117,
			"type":"VEC3"
		},
		{
			"bufferView":21,
			"componentType":5123,
			"count":2109,
			"type":"SCALAR"
		},
		{
			"bufferView":22,
			"componentType":5126,
			"count":661,
			"max":[
				3871.303955078125,
				-304.8252868652344,
				914.1174926757812
			],
			"min":[
				2556.64794921875,
				-325.4306335449219,
				-1206.4320068359375
			],
			"type":"VEC3"
		},
		{
			"bufferView":23,
			"componentType":5126,
			"count":661,
			"type":"VEC3"
		},
		{
			"bufferView":24,
			"componentType":5126,
			"count":661,
			"type":"VEC2"
		},
		{
			"bufferView":25,
			"componentType":5121,
			"count":661,
			"normalized":true,
			"type":"VEC4"
		},
		{
			"bufferView":26,
			"componentType":5126,
			"count":661,
			"type":"VEC3"
		},
		{
			"bufferView":27,
			"componentType":5123,
			"count":1494,
			"type":"SCALAR"
		},
		{
			"bufferView":28,
			"componentType":5126,
			"count":56770,
			"max":[
				2683.201416015625,
				-31.6068115234375,
				1794.699462890625
			],
			"min":[
				-3376.058349609375,
				-329.6068115234375,
				-3690.13671875
			],
			"type":"VEC3"
		},
		{
			"bufferView":29,
			"componentType":5126,
			"count":56770,
			"type":"VEC3"
		},
		{
			"bufferView":30,
			"componentType":5126,
			"count":56770,
			"type":"VEC2"
		},
		{
			"bufferView":31,
			"componentType":5121,
			"count":56770,
			"normalized":true,
			"type":"VEC4"
		},
		{
			"bufferView":32,
			"componentType":5126,
			"count":56770,
			"type":"VEC3"
		},
		{
			"bufferView":33,
			"componentType":5123,
			"count":108024,
			"type":"SCALAR"
		},
		{
			"bufferView":34,
			"componentType":5126,
			"count":18690,
			"max":[
				2690.69873046875,
				-31.6068115234375,
				1796.30126953125
			],
			"min":[
				-3376.058349609375,
				-329.6068115234375,
				-3700.086669921875
			],
			"type":"VEC3"
		},
		{
			"bufferView":35,
			"componentType":5126,
			"count":18690,
			"type":"VEC3"
		},
		{
			"bufferView":36,
			"componentType":5126,
			"count":18690,
			"type":"VEC2"
		},
		{
			"bufferView":37,
			"componentType":5121,
			"count":18690,
			"normalized":true,
			"type":"VEC4"
		},
		{
			"bufferView":38,
			"componentType":5126,
			"count":18690,
			"type":"VEC3"
		},
		{
			"bufferView":39,
			"componentType":5123,
			"count":44217,
			"type":"SCALAR"
		},
		{
			"bufferView":40,
			"componentType":5126,
			"count":11135,
			"max":[
				1922.5224609375,
				-217.6068115234375,
				220.27105712890625
			],
			"min":[
				-2033.0458984375,
				-329.6068115234375,
				-2515.629150390625
			],
			"type":"VEC3"
		},
		{
			"bufferView":41,
			"componentType":5126,
			"count":11135,
			"type":"VEC3"
		},
		{
			"bufferView":42,
			"componentType":5126,
			"count":11135,
			"type":"VEC2"
		},
		{
			"bufferView":43,
			"componentType":5121,
			"count":11135,
			"normalized":true,
			"type":"VEC4"
		},
		{
			"bufferView":44,
			"componentType":5126,
			"count":11135,
			"type":"VEC3"
		},
		{
			"bufferView":45,
			"componentType":5123,
			"count":16899,
			"type":"SCALAR"
		},
		{
			"bufferView":46,
			"componentType":5126,
			"count":5885,
			"max":[
				1922.5224609375,
				-264.25567626953125,
				208.69366455078125
			],
			"min":[
				-2033.5770263671875,
				-329.1068115234375,
				-2522.2978515625
			],
			"type":"VEC3"
		},
		{
			"bufferView":47,
			"componentType":5126,
			"count":5885,
			"type":"VEC3"
		},
		{
			"bufferView":48,
			"componentType":5126,
			"count":5885,
			"type":"VEC2"
		},
		{
			"bufferView":49,
			"componentType":5121,
			"count":5885,
			"normalized":true,
			"type":"VEC4"
		},
		{
			"bufferView":50,
			"componentType":5126,
			"count":5885,
			"type":"VEC3"
		},
		{
			"bufferView":51,
			"componentType":5123,
			"count":11196,
			"type":"SCALAR"
		}
	],
	"bufferViews":[
		{
			"buffer":0,
			"byteLength":2784,
			"byteOffset":0,
			"target":34962
		},
		{
			"buffer":0,
			"byteLength":2784,
			"byteOffset":2784,
			"target":34962
		},
		{
			"buffer":0,
			"byteLength":1856,
			"byteOffset":5568,
			"target":34962
		},
		{
			"buffer":0,
			"byteLength":1344,
			"byteOffset":7424,
			"target":34963
		},
		{
			"buffer":0,
			"byteLength":51648,
			"byteOffset":8768,
			"target":34962
		},
		{
			"buffer":0,
			"byteLength":51648,
			"byteOffset":60416,
			"target":34962
		},
		{
			"buffer":0,
			"byteLength":34432,
			"byteOffset":112064,
			"target":34962
		},
		{
			"buffer":0,
			"byteLength":17216,
			"byteOffset":146496,
			"target":34962
		},
		{
			"buffer":0,
			"byteLength":51648,
			"byteOffset":163712,
			"target":34962
		},
		{
			"buffer":0,
			"byteLength":13200,
			"byteOffset":215360,
			"target":34963
		},
		{
			"buffer":0,
			"byteLength":20328,
			"byteOffset":228560,
			"target":34962
		},
		{
			"buffer":0,
			"byteLength":20328,
			"byteOffset":248888,
			"target":34962
		},
		{
			"buffer":0,
			"byteLength":13552,
			"byteOffset":269216,
			"target":34962
		},
		{
			"buffer":0,
			"byteLength":6776,
			"byteOffset":282768,
			"target":34962
		},
		{
			"buffer":0,
			"byteLength":20328,
			"byteOffset":289544,
			"target":34962
		},
		{
			"buffer":0,
			"byteLength":7848,
			"byteOffset":309872,
			"target":34963
		},
		{
			"buffer":0,
			"byteLength":13404,
			"byteOffset":317720,
			"target":34962
		},
		{
			"buffer":0,
			"byteLength":13404,
			"byteOffset":331124,
			"target":34962
		},
		{
			"buffer":0,
			"byteLength":8936,
			"byteOffset":344528,
			"target":34962
		},
		{
			"buffer":0,
			"byteLength":4468,
			"byteOffset":353464,
			"target":34962
		},
		{
			"buffer":0,
			"byteLength":13404,
			"byteOffset":357932,
			"target":34962
		},
		{
			"buffer":0,
			"byteLength":4218,
			"byteOffset":371336,
			"target":34963
		},
		{
			"buffer":0,
			"byteLength":7932,
			"byteOffset":375556,
			"target":34962
		},
		{
			"buffer":0,
			"byteLength":7932,
			"byteOffset":383488,
			"target":34962
		},
		{
			"buffer":0,
			"byteLength":5288,
			"byteOffset":391420,
			"target":34962
		},
		{
			"buffer":0,
			"byteLength":2644,
			"byteOffset":396708,
			"target":34962
		},
		{
			"buffer":0,
			"byteLength":7932,
			"byteOffset":399352,
			"target":34962
		},
		{
			"buffer":0,
			"byteLength":2988,
			"byteOffset":407284,
			"target":34963
		},
		{
			"buffer":0,
			"byteLength":681240,
			"byteOffset":410272,
			"target":34962
		},
		{
			"buffer":0,
			"byteLength":681240,
			"byteOffset":1091512,
			"target":34962
		},
		{
			"buffer":0,
			"byteLength":454160,
			"byteOffset":1772752,
			"target":34962
		},
		{
			"buffer":0,
			"byteLength":227080,
			"byteOffset":2226912,
			"target":34962
		},
		{
			"buffer":0,
			"byteLength":681240,
			"byteOffset":2453992,
			"target":34962
		},
		{
			"buffer":0,
			"byteLength":216048,
			"byteOffset":3135232,
			"target":34963
		},
		{
			"buffer":0,
			"byteLength":224280,
			"byteOffset":3351280,
			"target":34962
		},
		{
			"buffer":0,
			"byteLength":224280,
			"byteOffset":3575560,
			"target":34962
		},
		{
			"buffer":0,
			"byteLength":149520,
			"byteOffset":3799840,
			"target":34962
		},
		{
			"buffer":0,
			"byteLength":74760,
			"byteOffset":3949360,
			"target":34962
		},
		{
			"buffer":0,
			"byteLength":224280,
			"byteOffset":4024120,
			"target":34962
		},
		{
			"buffer":0,
			"byteLength":88434,
			"byteOffset":4248400,
			"target":34963
		},
		{
			"buffer":0,
			"byteLength":133620,
			"byteOffset":4336836,
			"target":34962
		},
		{
			"buffer":0,
			"byteLength":133620,
			"byteOffset":4470456,
			"target":34962
		},
		{
			"buffer":0,
			"byteLength":89080,
			"byteOffset":4604076,
			"target":34962
		},
		{
			"buffer":0,
			"byteLength":44540,
			"byteOffset":4693156,
			"target":34962
		},
		{
			"buffer":0,
			"byteLength":133620,
			"byteOffset":4737696,
			"target":34962
		},
		{
			"buffer":0,
			"byteLength":33798,
			"byteOffset":4871316,
			"target":34963
		},
		{
			"buffer":0,
			"byteLength":70620,
			"byteOffset":4905116,
			"target":34962
		},
		{
			"buffer":0,
			"byteLength":70620,
			"byteOffset":4975736,
			"target":34962
		},
		{
			"buffer":0,
			"byteLength":47080,
			"byteOffset":5046356,
			"target":34962
		},
		{
			"buffer":0,
			"byteLength":23540,
			"byteOffset":5093436,
			"target":34962
		},
		{
			"buffer":0,
			"byteLength":70620,
			"byteOffset":5116976,
			"target":34962
		},
		{
			"buffer":0,
			"byteLength":22392,
			"byteOffset":5187596,
			"target":34963
		}
	],
	"samplers":[
		{
			"magFilter":9729,
			"minFilter":9987
		}
	],
	"buffers":[
		{
			"byteLength":5209988,
			"uri":"toronto.bin"
		}
	]
}
