{
	"asset":{
		"generator":"Khronos glTF Blender I/O v4.3.47",
		"version":"2.0"
	},
	"scene":0,
	"scenes":[
		{
			"name":"Scene",
			"nodes":[
				0,
				1
			]
		}
	],
	"nodes":[
		{
			"mesh":0,
			"name":"mdl_zesty_doritos"
		},
		{
			"name":"Empty",
			"rotation":[
				0,
				-0.7071066498756409,
				0.70710688829422,
				3.090861255827804e-08
			],
			"scale":[
				0.03045564703643322,
				0.03045564703643322,
				0.03045564703643322
			]
		}
	],
	"materials":[
		{
			"doubleSided":true,
			"name":"doritos",
			"pbrMetallicRoughness":{
				"baseColorTexture":{
					"index":0
				},
				"metallicFactor":0,
				"roughnessFactor":0.5
			}
		}
	],
	"meshes":[
		{
			"name":"Cube",
			"primitives":[
				{
					"attributes":{
						"POSITION":0,
						"NORMAL":1,
						"TEXCOORD_0":2
					},
					"indices":3,
					"material":0
				}
			]
		}
	],
	"textures":[
		{
			"sampler":0,
			"source":0
		}
	],
	"images":[
		{
			"mimeType":"image/jpeg",
			"name":"tx_zesty_doritos",
			"uri":"tx_zesty_doritos.jpg"
		}
	],
	"accessors":[
		{
			"bufferView":0,
			"componentType":5126,
			"count":8994,
			"max":[
				0.04583672806620598,
				0.07379645109176636,
				0.019138973206281662
			],
			"min":[
				-0.04611872509121895,
				-0.07357063889503479,
				-0.019142044708132744
			],
			"type":"VEC3"
		},
		{
			"bufferView":1,
			"componentType":5126,
			"count":8994,
			"type":"VEC3"
		},
		{
			"bufferView":2,
			"componentType":5126,
			"count":8994,
			"type":"VEC2"
		},
		{
			"bufferView":3,
			"componentType":5123,
			"count":49146,
			"type":"SCALAR"
		}
	],
	"bufferViews":[
		{
			"buffer":0,
			"byteLength":107928,
			"byteOffset":0,
			"target":34962
		},
		{
			"buffer":0,
			"byteLength":107928,
			"byteOffset":107928,
			"target":34962
		},
		{
			"buffer":0,
			"byteLength":71952,
			"byteOffset":215856,
			"target":34962
		},
		{
			"buffer":0,
			"byteLength":98292,
			"byteOffset":287808,
			"target":34963
		}
	],
	"samplers":[
		{
			"magFilter":9729,
			"minFilter":9987
		}
	],
	"buffers":[
		{
			"byteLength":386100,
			"uri":"mdl_zesty_doritos.bin"
		}
	]
}
