{
	"asset":{
		"generator":"Khronos glTF Blender I/O v4.3.47",
		"version":"2.0"
	},
	"scene":0,
	"scenes":[
		{
			"name":"Scene",
			"nodes":[
				0
			]
		}
	],
	"nodes":[
		{
			"mesh":0,
			"name":"mdl_zesty_powerlid_dial"
		}
	],
	"materials":[
		{
			"doubleSided":true,
			"name":"wall-white",
			"pbrMetallicRoughness":{
				"baseColorFactor":[
					0.800000011920929,
					0.800000011920929,
					0.800000011920929,
					1
				],
				"metallicFactor":0,
				"roughnessFactor":0.800000011920929
			}
		},
		{
			"doubleSided":true,
			"name":"gold",
			"pbrMetallicRoughness":{
				"baseColorFactor":[
					0.8016340732574463,
					0.5009856224060059,
					0.032477349042892456,
					1
				],
				"roughnessFactor":0.10000000149011612
			}
		},
		{
			"doubleSided":true,
			"name":"gold-dark",
			"pbrMetallicRoughness":{
				"baseColorFactor":[
					0.28291746973991394,
					0.16348318755626678,
					0.019985130056738853,
					1
				],
				"roughnessFactor":0.10000000149011612
			}
		}
	],
	"meshes":[
		{
			"name":"Circle.006",
			"primitives":[
				{
					"attributes":{
						"POSITION":0,
						"NORMAL":1,
						"TEXCOORD_0":2
					},
					"indices":3,
					"material":0
				},
				{
					"attributes":{
						"POSITION":4,
						"NORMAL":5,
						"TEXCOORD_0":6
					},
					"indices":7,
					"material":1
				},
				{
					"attributes":{
						"POSITION":8,
						"NORMAL":9,
						"TEXCOORD_0":10
					},
					"indices":11,
					"material":2
				}
			]
		}
	],
	"accessors":[
		{
			"bufferView":0,
			"componentType":5126,
			"count":41,
			"max":[
				0.039363015443086624,
				0.03211747109889984,
				0.02891051396727562
			],
			"min":[
				-0.041884228587150574,
				-0.0321173220872879,
				-0.04363522678613663
			],
			"type":"VEC3"
		},
		{
			"bufferView":1,
			"componentType":5126,
			"count":41,
			"type":"VEC3"
		},
		{
			"bufferView":2,
			"componentType":5126,
			"count":41,
			"type":"VEC2"
		},
		{
			"bufferView":3,
			"componentType":5123,
			"count":105,
			"type":"SCALAR"
		},
		{
			"bufferView":4,
			"componentType":5126,
			"count":30,
			"max":[
				0.05007447674870491,
				0.050074413418769836,
				0.028910517692565918
			],
			"min":[
				-0.05007433518767357,
				-0.050074413418769836,
				-0.05782090127468109
			],
			"type":"VEC3"
		},
		{
			"bufferView":5,
			"componentType":5126,
			"count":30,
			"type":"VEC3"
		},
		{
			"bufferView":6,
			"componentType":5126,
			"count":30,
			"type":"VEC2"
		},
		{
			"bufferView":7,
			"componentType":5123,
			"count":78,
			"type":"SCALAR"
		},
		{
			"bufferView":8,
			"componentType":5126,
			"count":53,
			"max":[
				0.04700227826833725,
				0.043930038809776306,
				0.02891051582992077
			],
			"min":[
				-0.047002144157886505,
				-0.043930038809776306,
				-0.05249971151351929
			],
			"type":"VEC3"
		},
		{
			"bufferView":9,
			"componentType":5126,
			"count":53,
			"type":"VEC3"
		},
		{
			"bufferView":10,
			"componentType":5126,
			"count":53,
			"type":"VEC2"
		},
		{
			"bufferView":11,
			"componentType":5123,
			"count":159,
			"type":"SCALAR"
		}
	],
	"bufferViews":[
		{
			"buffer":0,
			"byteLength":492,
			"byteOffset":0,
			"target":34962
		},
		{
			"buffer":0,
			"byteLength":492,
			"byteOffset":492,
			"target":34962
		},
		{
			"buffer":0,
			"byteLength":328,
			"byteOffset":984,
			"target":34962
		},
		{
			"buffer":0,
			"byteLength":210,
			"byteOffset":1312,
			"target":34963
		},
		{
			"buffer":0,
			"byteLength":360,
			"byteOffset":1524,
			"target":34962
		},
		{
			"buffer":0,
			"byteLength":360,
			"byteOffset":1884,
			"target":34962
		},
		{
			"buffer":0,
			"byteLength":240,
			"byteOffset":2244,
			"target":34962
		},
		{
			"buffer":0,
			"byteLength":156,
			"byteOffset":2484,
			"target":34963
		},
		{
			"buffer":0,
			"byteLength":636,
			"byteOffset":2640,
			"target":34962
		},
		{
			"buffer":0,
			"byteLength":636,
			"byteOffset":3276,
			"target":34962
		},
		{
			"buffer":0,
			"byteLength":424,
			"byteOffset":3912,
			"target":34962
		},
		{
			"buffer":0,
			"byteLength":318,
			"byteOffset":4336,
			"target":34963
		}
	],
	"buffers":[
		{
			"byteLength":4656,
			"uri":"mdl_zesty_powerlid_dial.bin"
		}
	]
}
