{
	"asset":{
		"generator":"Khronos glTF Blender I/O v4.3.47",
		"version":"2.0"
	},
	"scene":0,
	"scenes":[
		{
			"name":"Scene",
			"nodes":[
				0
			]
		}
	],
	"nodes":[
		{
			"mesh":0,
			"name":"mdl_zesty_ttchandle",
			"rotation":[
				0,
				-0.7071068286895752,
				0.7071068286895752,
				1.1520233300643667e-07
			]
		}
	],
	"materials":[
		{
			"doubleSided":true,
			"name":"ttc-red",
			"pbrMetallicRoughness":{
				"baseColorFactor":[
					0.27889284491539,
					0.02415761910378933,
					0.021219028159976006,
					1
				],
				"metallicFactor":0,
				"roughnessFactor":0.21212121844291687
			}
		},
		{
			"doubleSided":true,
			"name":"stainless-steel",
			"pbrMetallicRoughness":{
				"baseColorFactor":[
					0.800000011920929,
					0.800000011920929,
					0.800000011920929,
					1
				],
				"metallicFactor":0.8257575631141663,
				"roughnessFactor":0.125
			}
		},
		{
			"doubleSided":true,
			"name":"brushed-steel",
			"pbrMetallicRoughness":{
				"baseColorFactor":[
					0.800000011920929,
					0.800000011920929,
					0.800000011920929,
					1
				],
				"metallicFactor":0.9015151858329773,
				"roughnessFactor":0
			}
		},
		{
			"doubleSided":true,
			"name":"handle-rope",
			"pbrMetallicRoughness":{
				"baseColorFactor":[
					0.800000011920929,
					0.800000011920929,
					0.800000011920929,
					1
				],
				"metallicFactor":0
			}
		}
	],
	"meshes":[
		{
			"name":"Torus",
			"primitives":[
				{
					"attributes":{
						"POSITION":0,
						"NORMAL":1,
						"TEXCOORD_0":2
					},
					"indices":3,
					"material":0
				},
				{
					"attributes":{
						"POSITION":4,
						"NORMAL":5,
						"TEXCOORD_0":6
					},
					"indices":7,
					"material":1
				},
				{
					"attributes":{
						"POSITION":8,
						"NORMAL":9,
						"TEXCOORD_0":10
					},
					"indices":11,
					"material":2
				},
				{
					"attributes":{
						"POSITION":12,
						"NORMAL":13,
						"TEXCOORD_0":14
					},
					"indices":15,
					"material":3
				}
			]
		}
	],
	"accessors":[
		{
			"bufferView":0,
			"componentType":5126,
			"count":408,
			"max":[
				1.3663872480392456,
				0.21937119960784912,
				1.1817811727523804
			],
			"min":[
				-1.3663872480392456,
				-0.21937119960784912,
				-1.9243190288543701
			],
			"type":"VEC3"
		},
		{
			"bufferView":1,
			"componentType":5126,
			"count":408,
			"type":"VEC3"
		},
		{
			"bufferView":2,
			"componentType":5126,
			"count":408,
			"type":"VEC2"
		},
		{
			"bufferView":3,
			"componentType":5123,
			"count":2304,
			"type":"SCALAR"
		},
		{
			"bufferView":4,
			"componentType":5126,
			"count":392,
			"max":[
				0.7622777819633484,
				0.3079182207584381,
				-1.7979645729064941
			],
			"min":[
				-0.7622777819633484,
				-0.3079182505607605,
				-4.012033462524414
			],
			"type":"VEC3"
		},
		{
			"bufferView":5,
			"componentType":5126,
			"count":392,
			"type":"VEC3"
		},
		{
			"bufferView":6,
			"componentType":5126,
			"count":392,
			"type":"VEC2"
		},
		{
			"bufferView":7,
			"componentType":5123,
			"count":1326,
			"type":"SCALAR"
		},
		{
			"bufferView":8,
			"componentType":5126,
			"count":64,
			"max":[
				0.27271077036857605,
				0.3079182207584381,
				-3.0913989543914795
			],
			"min":[
				-0.27271077036857605,
				-0.3079182505607605,
				-3.636820077896118
			],
			"type":"VEC3"
		},
		{
			"bufferView":9,
			"componentType":5126,
			"count":64,
			"type":"VEC3"
		},
		{
			"bufferView":10,
			"componentType":5126,
			"count":64,
			"type":"VEC2"
		},
		{
			"bufferView":11,
			"componentType":5123,
			"count":180,
			"type":"SCALAR"
		},
		{
			"bufferView":12,
			"componentType":5126,
			"count":4,
			"max":[
				0.24723535776138306,
				-1.0430615304812818e-07,
				-3.48752760887146
			],
			"min":[
				-0.24723535776138306,
				-1.8445738305672421e-06,
				-41.097652435302734
			],
			"type":"VEC3"
		},
		{
			"bufferView":13,
			"componentType":5126,
			"count":4,
			"type":"VEC3"
		},
		{
			"bufferView":14,
			"componentType":5126,
			"count":4,
			"type":"VEC2"
		},
		{
			"bufferView":15,
			"componentType":5123,
			"count":6,
			"type":"SCALAR"
		}
	],
	"bufferViews":[
		{
			"buffer":0,
			"byteLength":4896,
			"byteOffset":0,
			"target":34962
		},
		{
			"buffer":0,
			"byteLength":4896,
			"byteOffset":4896,
			"target":34962
		},
		{
			"buffer":0,
			"byteLength":3264,
			"byteOffset":9792,
			"target":34962
		},
		{
			"buffer":0,
			"byteLength":4608,
			"byteOffset":13056,
			"target":34963
		},
		{
			"buffer":0,
			"byteLength":4704,
			"byteOffset":17664,
			"target":34962
		},
		{
			"buffer":0,
			"byteLength":4704,
			"byteOffset":22368,
			"target":34962
		},
		{
			"buffer":0,
			"byteLength":3136,
			"byteOffset":27072,
			"target":34962
		},
		{
			"buffer":0,
			"byteLength":2652,
			"byteOffset":30208,
			"target":34963
		},
		{
			"buffer":0,
			"byteLength":768,
			"byteOffset":32860,
			"target":34962
		},
		{
			"buffer":0,
			"byteLength":768,
			"byteOffset":33628,
			"target":34962
		},
		{
			"buffer":0,
			"byteLength":512,
			"byteOffset":34396,
			"target":34962
		},
		{
			"buffer":0,
			"byteLength":360,
			"byteOffset":34908,
			"target":34963
		},
		{
			"buffer":0,
			"byteLength":48,
			"byteOffset":35268,
			"target":34962
		},
		{
			"buffer":0,
			"byteLength":48,
			"byteOffset":35316,
			"target":34962
		},
		{
			"buffer":0,
			"byteLength":32,
			"byteOffset":35364,
			"target":34962
		},
		{
			"buffer":0,
			"byteLength":12,
			"byteOffset":35396,
			"target":34963
		}
	],
	"buffers":[
		{
			"byteLength":35408,
			"uri":"mdl_zesty_ttchandle.bin"
		}
	]
}
