{
	"asset":{
		"generator":"Khronos glTF Blender I/O v4.3.47",
		"version":"2.0"
	},
	"scene":0,
	"scenes":[
		{
			"name":"Scene",
			"nodes":[
				0
			]
		}
	],
	"nodes":[
		{
			"mesh":0,
			"name":"mdl_zesty_powergrid",
			"scale":[
				8,
				8,
				8
			],
			"translation":[
				-0.3500000238418579,
				0,
				0.3500000238418579
			]
		}
	],
	"materials":[
		{
			"doubleSided":true,
			"name":"black",
			"pbrMetallicRoughness":{
				"baseColorFactor":[
					0,
					0,
					0,
					1
				],
				"metallicFactor":0.45075759291648865,
				"roughnessFactor":0.09848484396934509
			}
		},
		{
			"doubleSided":true,
			"name":"black-light",
			"pbrMetallicRoughness":{
				"baseColorFactor":[
					0.01173847634345293,
					0.01173847634345293,
					0.01173847634345293,
					1
				],
				"metallicFactor":0,
				"roughnessFactor":0.5
			}
		}
	],
	"meshes":[
		{
			"name":"Plane",
			"primitives":[
				{
					"attributes":{
						"POSITION":0,
						"NORMAL":1,
						"TEXCOORD_0":2
					},
					"indices":3,
					"material":0
				},
				{
					"attributes":{
						"POSITION":4,
						"NORMAL":5,
						"TEXCOORD_0":6
					},
					"indices":7,
					"material":1
				}
			]
		}
	],
	"accessors":[
		{
			"bufferView":0,
			"componentType":5126,
			"count":1280,
			"max":[
				0.0937499925494194,
				0,
				0.006249997764825821
			],
			"min":[
				-0.006249997764825821,
				0,
				-0.0937499925494194
			],
			"type":"VEC3"
		},
		{
			"bufferView":1,
			"componentType":5126,
			"count":1280,
			"type":"VEC3"
		},
		{
			"bufferView":2,
			"componentType":5126,
			"count":1280,
			"type":"VEC2"
		},
		{
			"bufferView":3,
			"componentType":5123,
			"count":3072,
			"type":"SCALAR"
		},
		{
			"bufferView":4,
			"componentType":5126,
			"count":1024,
			"max":[
				0.0937499925494194,
				0,
				0.006249997764825821
			],
			"min":[
				-0.006249997764825821,
				0,
				-0.0937499925494194
			],
			"type":"VEC3"
		},
		{
			"bufferView":5,
			"componentType":5126,
			"count":1024,
			"type":"VEC3"
		},
		{
			"bufferView":6,
			"componentType":5126,
			"count":1024,
			"type":"VEC2"
		},
		{
			"bufferView":7,
			"componentType":5123,
			"count":2688,
			"type":"SCALAR"
		}
	],
	"bufferViews":[
		{
			"buffer":0,
			"byteLength":15360,
			"byteOffset":0,
			"target":34962
		},
		{
			"buffer":0,
			"byteLength":15360,
			"byteOffset":15360,
			"target":34962
		},
		{
			"buffer":0,
			"byteLength":10240,
			"byteOffset":30720,
			"target":34962
		},
		{
			"buffer":0,
			"byteLength":6144,
			"byteOffset":40960,
			"target":34963
		},
		{
			"buffer":0,
			"byteLength":12288,
			"byteOffset":47104,
			"target":34962
		},
		{
			"buffer":0,
			"byteLength":12288,
			"byteOffset":59392,
			"target":34962
		},
		{
			"buffer":0,
			"byteLength":8192,
			"byteOffset":71680,
			"target":34962
		},
		{
			"buffer":0,
			"byteLength":5376,
			"byteOffset":79872,
			"target":34963
		}
	],
	"buffers":[
		{
			"byteLength":85248,
			"uri":"mdl_zesty_powergrid.bin"
		}
	]
}
