{
	"asset":{
		"generator":"Khronos glTF Blender I/O v4.3.47",
		"version":"2.0"
	},
	"extensionsUsed":[
		"KHR_materials_emissive_strength"
	],
	"scene":0,
	"scenes":[
		{
			"name":"Scene",
			"nodes":[
				0
			]
		}
	],
	"nodes":[
		{
			"mesh":0,
			"name":"toronto-sign.008",
			"rotation":[
				0.6963642835617065,
				0.12278779596090317,
				-0.12278780341148376,
				0.6963642835617065
			]
		}
	],
	"materials":[
		{
			"doubleSided":true,
			"emissiveFactor":[
				1,
				1,
				1
			],
			"extensions":{
				"KHR_materials_emissive_strength":{
					"emissiveStrength":2
				}
			},
			"name":"toronto-sign-light-white",
			"pbrMetallicRoughness":{
				"baseColorFactor":[
					0.800000011920929,
					0.800000011920929,
					0.800000011920929,
					1
				],
				"metallicFactor":0,
				"roughnessFactor":0.5
			}
		},
		{
			"doubleSided":true,
			"name":"toronto-sign-pink",
			"pbrMetallicRoughness":{
				"baseColorFactor":[
					0.6172035336494446,
					0.03071337565779686,
					0.11193245649337769,
					1
				],
				"metallicFactor":0,
				"roughnessFactor":0.5
			}
		}
	],
	"meshes":[
		{
			"name":"Circle.017",
			"primitives":[
				{
					"attributes":{
						"POSITION":0,
						"NORMAL":1,
						"TEXCOORD_0":2
					},
					"indices":3,
					"material":0
				},
				{
					"attributes":{
						"POSITION":4,
						"NORMAL":5,
						"TEXCOORD_0":6
					},
					"indices":7,
					"material":1
				}
			]
		}
	],
	"accessors":[
		{
			"bufferView":0,
			"componentType":5126,
			"count":64,
			"max":[
				0.3278557062149048,
				-0.05879094451665878,
				0.32785576581954956
			],
			"min":[
				-0.3278557062149048,
				-0.05879094451665878,
				-0.32785576581954956
			],
			"type":"VEC3"
		},
		{
			"bufferView":1,
			"componentType":5126,
			"count":64,
			"type":"VEC3"
		},
		{
			"bufferView":2,
			"componentType":5126,
			"count":64,
			"type":"VEC2"
		},
		{
			"bufferView":3,
			"componentType":5123,
			"count":192,
			"type":"SCALAR"
		},
		{
			"bufferView":4,
			"componentType":5126,
			"count":192,
			"max":[
				0.3278557062149048,
				0.05879094451665878,
				0.32785576581954956
			],
			"min":[
				-0.3278557062149048,
				-0.05879094451665878,
				-0.32785576581954956
			],
			"type":"VEC3"
		},
		{
			"bufferView":5,
			"componentType":5126,
			"count":192,
			"type":"VEC3"
		},
		{
			"bufferView":6,
			"componentType":5126,
			"count":192,
			"type":"VEC2"
		},
		{
			"bufferView":7,
			"componentType":5123,
			"count":576,
			"type":"SCALAR"
		}
	],
	"bufferViews":[
		{
			"buffer":0,
			"byteLength":768,
			"byteOffset":0,
			"target":34962
		},
		{
			"buffer":0,
			"byteLength":768,
			"byteOffset":768,
			"target":34962
		},
		{
			"buffer":0,
			"byteLength":512,
			"byteOffset":1536,
			"target":34962
		},
		{
			"buffer":0,
			"byteLength":384,
			"byteOffset":2048,
			"target":34963
		},
		{
			"buffer":0,
			"byteLength":2304,
			"byteOffset":2432,
			"target":34962
		},
		{
			"buffer":0,
			"byteLength":2304,
			"byteOffset":4736,
			"target":34962
		},
		{
			"buffer":0,
			"byteLength":1536,
			"byteOffset":7040,
			"target":34962
		},
		{
			"buffer":0,
			"byteLength":1152,
			"byteOffset":8576,
			"target":34963
		}
	],
	"buffers":[
		{
			"byteLength":9728,
			"uri":"toronto-sign.008.bin"
		}
	]
}
