{
	"asset":{
		"generator":"Khronos glTF Blender I/O v4.3.47",
		"version":"2.0"
	},
	"scene":0,
	"scenes":[
		{
			"name":"Scene",
			"nodes":[
				0,
				1,
				2,
				3
			]
		}
	],
	"nodes":[
		{
			"mesh":0,
			"name":"raccoon"
		},
		{
			"mesh":1,
			"name":"raccoon-eyes"
		},
		{
			"mesh":2,
			"name":"collar"
		},
		{
			"mesh":3,
			"name":"maple-leaf",
			"rotation":[
				-0.05322642624378204,
				0.23410984873771667,
				-0.11738310009241104,
				0.9636289477348328
			],
			"scale":[
				0.4347085654735565,
				0.43470853567123413,
				0.4347085952758789
			],
			"translation":[
				0.0746563971042633,
				0.08982295542955399,
				-0.0387486070394516
			]
		}
	],
	"materials":[
		{
			"doubleSided":true,
			"name":"raccoon",
			"pbrMetallicRoughness":{
				"baseColorTexture":{
					"index":0
				},
				"metallicFactor":0,
				"roughnessFactor":0.5
			}
		},
		{
			"doubleSided":true,
			"name":"cat",
			"pbrMetallicRoughness":{
				"baseColorTexture":{
					"index":1
				},
				"metallicFactor":0,
				"roughnessFactor":0.5
			}
		},
		{
			"doubleSided":true,
			"name":"maple-leaf",
			"pbrMetallicRoughness":{
				"baseColorFactor":[
					1,
					0,
					0,
					1
				],
				"roughnessFactor":0.14305555820465088
			}
		}
	],
	"meshes":[
		{
			"name":"Chunky.002",
			"primitives":[
				{
					"attributes":{
						"POSITION":0,
						"NORMAL":1,
						"TEXCOORD_0":2
					},
					"indices":3,
					"material":0
				}
			]
		},
		{
			"name":"Chunky.003",
			"primitives":[
				{
					"attributes":{
						"POSITION":4,
						"NORMAL":5,
						"TEXCOORD_0":6
					},
					"indices":7,
					"material":0
				}
			]
		},
		{
			"name":"Chunky.007",
			"primitives":[
				{
					"attributes":{
						"POSITION":8,
						"NORMAL":9,
						"TEXCOORD_0":10
					},
					"indices":11,
					"material":1
				}
			]
		},
		{
			"name":"Curve",
			"primitives":[
				{
					"attributes":{
						"POSITION":12,
						"NORMAL":13,
						"TEXCOORD_0":14
					},
					"indices":15,
					"material":2
				}
			]
		}
	],
	"textures":[
		{
			"sampler":0,
			"source":0
		},
		{
			"sampler":0,
			"source":0
		}
	],
	"images":[
		{
			"mimeType":"image/jpeg",
			"name":"tx_zesty_raccoon_base",
			"uri":"tx_zesty_raccoon_base.jpg"
		}
	],
	"accessors":[
		{
			"bufferView":0,
			"componentType":5126,
			"count":1177,
			"max":[
				0.11786750704050064,
				0.25977522134780884,
				0.09478099644184113
			],
			"min":[
				-0.1434786021709442,
				0.0001421505876351148,
				-0.09465847164392471
			],
			"type":"VEC3"
		},
		{
			"bufferView":1,
			"componentType":5126,
			"count":1177,
			"type":"VEC3"
		},
		{
			"bufferView":2,
			"componentType":5126,
			"count":1177,
			"type":"VEC2"
		},
		{
			"bufferView":3,
			"componentType":5123,
			"count":5586,
			"type":"SCALAR"
		},
		{
			"bufferView":4,
			"componentType":5126,
			"count":43,
			"max":[
				0.10283062607049942,
				0.20865757763385773,
				0.028331538662314415
			],
			"min":[
				0.089663565158844,
				0.1818942278623581,
				-0.028331534937024117
			],
			"type":"VEC3"
		},
		{
			"bufferView":5,
			"componentType":5126,
			"count":43,
			"type":"VEC3"
		},
		{
			"bufferView":6,
			"componentType":5126,
			"count":43,
			"type":"VEC2"
		},
		{
			"bufferView":7,
			"componentType":5123,
			"count":201,
			"type":"SCALAR"
		},
		{
			"bufferView":8,
			"componentType":5126,
			"count":155,
			"max":[
				0.08222372084856033,
				0.13728950917720795,
				0.06038285419344902
			],
			"min":[
				-0.028760775923728943,
				0.08822004497051239,
				-0.06258892267942429
			],
			"type":"VEC3"
		},
		{
			"bufferView":9,
			"componentType":5126,
			"count":155,
			"type":"VEC3"
		},
		{
			"bufferView":10,
			"componentType":5126,
			"count":155,
			"type":"VEC2"
		},
		{
			"bufferView":11,
			"componentType":5123,
			"count":642,
			"type":"SCALAR"
		},
		{
			"bufferView":12,
			"componentType":5126,
			"count":2594,
			"max":[
				0.008036301471292973,
				0.03367842361330986,
				0.033573348075151443
			],
			"min":[
				-0.008036301471292973,
				-0.03894224017858505,
				-0.03340011462569237
			],
			"type":"VEC3"
		},
		{
			"bufferView":13,
			"componentType":5126,
			"count":2594,
			"type":"VEC3"
		},
		{
			"bufferView":14,
			"componentType":5126,
			"count":2594,
			"type":"VEC2"
		},
		{
			"bufferView":15,
			"componentType":5123,
			"count":3870,
			"type":"SCALAR"
		}
	],
	"bufferViews":[
		{
			"buffer":0,
			"byteLength":14124,
			"byteOffset":0,
			"target":34962
		},
		{
			"buffer":0,
			"byteLength":14124,
			"byteOffset":14124,
			"target":34962
		},
		{
			"buffer":0,
			"byteLength":9416,
			"byteOffset":28248,
			"target":34962
		},
		{
			"buffer":0,
			"byteLength":11172,
			"byteOffset":37664,
			"target":34963
		},
		{
			"buffer":0,
			"byteLength":516,
			"byteOffset":48836,
			"target":34962
		},
		{
			"buffer":0,
			"byteLength":516,
			"byteOffset":49352,
			"target":34962
		},
		{
			"buffer":0,
			"byteLength":344,
			"byteOffset":49868,
			"target":34962
		},
		{
			"buffer":0,
			"byteLength":402,
			"byteOffset":50212,
			"target":34963
		},
		{
			"buffer":0,
			"byteLength":1860,
			"byteOffset":50616,
			"target":34962
		},
		{
			"buffer":0,
			"byteLength":1860,
			"byteOffset":52476,
			"target":34962
		},
		{
			"buffer":0,
			"byteLength":1240,
			"byteOffset":54336,
			"target":34962
		},
		{
			"buffer":0,
			"byteLength":1284,
			"byteOffset":55576,
			"target":34963
		},
		{
			"buffer":0,
			"byteLength":31128,
			"byteOffset":56860,
			"target":34962
		},
		{
			"buffer":0,
			"byteLength":31128,
			"byteOffset":87988,
			"target":34962
		},
		{
			"buffer":0,
			"byteLength":20752,
			"byteOffset":119116,
			"target":34962
		},
		{
			"buffer":0,
			"byteLength":7740,
			"byteOffset":139868,
			"target":34963
		}
	],
	"samplers":[
		{
			"magFilter":9729,
			"minFilter":9987
		}
	],
	"buffers":[
		{
			"byteLength":147608,
			"uri":"mdl_zesty_raccoon_plush.bin"
		}
	]
}
