{
	"asset":{
		"generator":"Khronos glTF Blender I/O v4.3.47",
		"version":"2.0"
	},
	"scene":0,
	"scenes":[
		{
			"name":"Scene",
			"nodes":[
				0
			]
		}
	],
	"nodes":[
		{
			"mesh":0,
			"name":"mdl_zesty_condo_screen_man"
		}
	],
	"materials":[
		{
			"doubleSided":true,
			"emissiveFactor":[
				0.8007433414459229,
				0.6950905323028564,
				0
			],
			"name":"screenglow",
			"pbrMetallicRoughness":{
				"baseColorFactor":[
					0.8007433414459229,
					0.6950905323028564,
					0,
					1
				],
				"metallicFactor":0,
				"roughnessFactor":0
			}
		}
	],
	"meshes":[
		{
			"name":"Sphere.001",
			"primitives":[
				{
					"attributes":{
						"POSITION":0,
						"NORMAL":1,
						"TEXCOORD_0":2
					},
					"indices":3,
					"material":0
				}
			]
		}
	],
	"accessors":[
		{
			"bufferView":0,
			"componentType":5126,
			"count":363,
			"max":[
				0.05408380180597305,
				0.12341925501823425,
				0
			],
			"min":[
				-0.05408380180597305,
				-0.12341925501823425,
				0
			],
			"type":"VEC3"
		},
		{
			"bufferView":1,
			"componentType":5126,
			"count":363,
			"type":"VEC3"
		},
		{
			"bufferView":2,
			"componentType":5126,
			"count":363,
			"type":"VEC2"
		},
		{
			"bufferView":3,
			"componentType":5123,
			"count":1077,
			"type":"SCALAR"
		}
	],
	"bufferViews":[
		{
			"buffer":0,
			"byteLength":4356,
			"byteOffset":0,
			"target":34962
		},
		{
			"buffer":0,
			"byteLength":4356,
			"byteOffset":4356,
			"target":34962
		},
		{
			"buffer":0,
			"byteLength":2904,
			"byteOffset":8712,
			"target":34962
		},
		{
			"buffer":0,
			"byteLength":2154,
			"byteOffset":11616,
			"target":34963
		}
	],
	"buffers":[
		{
			"byteLength":13772,
			"uri":"mdl_zesty_condo_screen_man.bin"
		}
	]
}
