{
	"asset":{
		"generator":"Khronos glTF Blender I/O v4.3.47",
		"version":"2.0"
	},
	"scene":0,
	"scenes":[
		{
			"name":"Scene",
			"nodes":[
				0
			]
		}
	],
	"nodes":[
		{
			"mesh":0,
			"name":"mdl_zesty_gear_planet"
		}
	],
	"materials":[
		{
			"doubleSided":true,
			"name":"gold",
			"pbrMetallicRoughness":{
				"baseColorFactor":[
					0.7995296716690063,
					0.7106378078460693,
					0,
					1
				],
				"roughnessFactor":0.10000000149011612
			}
		},
		{
			"doubleSided":true,
			"name":"gold-dark",
			"pbrMetallicRoughness":{
				"baseColorFactor":[
					0.28228625655174255,
					0.17862530052661896,
					0,
					1
				],
				"roughnessFactor":0.10000000149011612
			}
		}
	],
	"meshes":[
		{
			"name":"Cube.015",
			"primitives":[
				{
					"attributes":{
						"POSITION":0,
						"NORMAL":1,
						"TEXCOORD_0":2
					},
					"indices":3,
					"material":0
				},
				{
					"attributes":{
						"POSITION":4,
						"NORMAL":5,
						"TEXCOORD_0":6
					},
					"indices":7,
					"material":1
				}
			]
		}
	],
	"accessors":[
		{
			"bufferView":0,
			"componentType":5126,
			"count":1152,
			"max":[
				1.4551384449005127,
				0.07513804733753204,
				1.455136775970459
			],
			"min":[
				-1.455137014389038,
				-0.07513804733753204,
				-1.4551377296447754
			],
			"type":"VEC3"
		},
		{
			"bufferView":1,
			"componentType":5126,
			"count":1152,
			"type":"VEC3"
		},
		{
			"bufferView":2,
			"componentType":5126,
			"count":1152,
			"type":"VEC2"
		},
		{
			"bufferView":3,
			"componentType":5123,
			"count":2640,
			"type":"SCALAR"
		},
		{
			"bufferView":4,
			"componentType":5126,
			"count":800,
			"max":[
				1.3248623609542847,
				0.07513804733753204,
				1.32486093044281
			],
			"min":[
				-1.3248611688613892,
				-0.07513804733753204,
				-1.324861764907837
			],
			"type":"VEC3"
		},
		{
			"bufferView":5,
			"componentType":5126,
			"count":800,
			"type":"VEC3"
		},
		{
			"bufferView":6,
			"componentType":5126,
			"count":800,
			"type":"VEC2"
		},
		{
			"bufferView":7,
			"componentType":5123,
			"count":1914,
			"type":"SCALAR"
		}
	],
	"bufferViews":[
		{
			"buffer":0,
			"byteLength":13824,
			"byteOffset":0,
			"target":34962
		},
		{
			"buffer":0,
			"byteLength":13824,
			"byteOffset":13824,
			"target":34962
		},
		{
			"buffer":0,
			"byteLength":9216,
			"byteOffset":27648,
			"target":34962
		},
		{
			"buffer":0,
			"byteLength":5280,
			"byteOffset":36864,
			"target":34963
		},
		{
			"buffer":0,
			"byteLength":9600,
			"byteOffset":42144,
			"target":34962
		},
		{
			"buffer":0,
			"byteLength":9600,
			"byteOffset":51744,
			"target":34962
		},
		{
			"buffer":0,
			"byteLength":6400,
			"byteOffset":61344,
			"target":34962
		},
		{
			"buffer":0,
			"byteLength":3828,
			"byteOffset":67744,
			"target":34963
		}
	],
	"buffers":[
		{
			"byteLength":71572,
			"uri":"mdl_zesty_gear_planet.bin"
		}
	]
}
