{
	"asset":{
		"generator":"Khronos glTF Blender I/O v4.3.47",
		"version":"2.0"
	},
	"extensionsUsed":[
		"KHR_materials_transmission"
	],
	"scene":0,
	"scenes":[
		{
			"name":"Scene",
			"nodes":[
				0
			]
		}
	],
	"nodes":[
		{
			"mesh":0,
			"name":"mdl_zesty_compasslock"
		}
	],
	"materials":[
		{
			"doubleSided":true,
			"name":"steel",
			"pbrMetallicRoughness":{
				"baseColorFactor":[
					0.800000011920929,
					0.800000011920929,
					0.800000011920929,
					1
				],
				"roughnessFactor":0.1785714328289032
			}
		},
		{
			"doubleSided":true,
			"extensions":{
				"KHR_materials_transmission":{
					"transmissionFactor":0.949999988079071
				}
			},
			"name":"glass",
			"pbrMetallicRoughness":{
				"baseColorFactor":[
					0.800000011920929,
					0.800000011920929,
					0.800000011920929,
					1
				],
				"metallicFactor":0,
				"roughnessFactor":0.5
			}
		},
		{
			"doubleSided":true,
			"name":"gold",
			"pbrMetallicRoughness":{
				"baseColorFactor":[
					0.7990984916687012,
					0.4677843749523163,
					0,
					1
				],
				"roughnessFactor":0.30000001192092896
			}
		},
		{
			"doubleSided":true,
			"name":"gold-dark",
			"pbrMetallicRoughness":{
				"baseColorFactor":[
					0.07651200145483017,
					0.03541536629199982,
					0,
					1
				],
				"roughnessFactor":0.30000001192092896
			}
		},
		{
			"doubleSided":true,
			"name":"animaldial",
			"pbrMetallicRoughness":{
				"baseColorTexture":{
					"index":0
				},
				"roughnessFactor":0.30000001192092896
			}
		}
	],
	"meshes":[
		{
			"name":"Cube.003",
			"primitives":[
				{
					"attributes":{
						"POSITION":0,
						"NORMAL":1,
						"TEXCOORD_0":2
					},
					"indices":3,
					"material":0
				},
				{
					"attributes":{
						"POSITION":4,
						"NORMAL":5,
						"TEXCOORD_0":6
					},
					"indices":7,
					"material":1
				},
				{
					"attributes":{
						"POSITION":8,
						"NORMAL":9,
						"TEXCOORD_0":10
					},
					"indices":11,
					"material":2
				},
				{
					"attributes":{
						"POSITION":12,
						"NORMAL":13,
						"TEXCOORD_0":14
					},
					"indices":15,
					"material":3
				},
				{
					"attributes":{
						"POSITION":16,
						"NORMAL":17,
						"TEXCOORD_0":18
					},
					"indices":19,
					"material":4
				}
			]
		}
	],
	"textures":[
		{
			"sampler":0,
			"source":0
		}
	],
	"images":[
		{
			"mimeType":"image/jpeg",
			"name":"tx_zesty_compasslock",
			"uri":"tx_zesty_compasslock.jpg"
		}
	],
	"accessors":[
		{
			"bufferView":0,
			"componentType":5126,
			"count":160,
			"max":[
				0.18684133887290955,
				0.18684136867523193,
				0.011695565655827522
			],
			"min":[
				-0.18684133887290955,
				-0.18684136867523193,
				-0.011695565655827522
			],
			"type":"VEC3"
		},
		{
			"bufferView":1,
			"componentType":5126,
			"count":160,
			"type":"VEC3"
		},
		{
			"bufferView":2,
			"componentType":5126,
			"count":160,
			"type":"VEC2"
		},
		{
			"bufferView":3,
			"componentType":5123,
			"count":354,
			"type":"SCALAR"
		},
		{
			"bufferView":4,
			"componentType":5126,
			"count":12,
			"max":[
				0.17654579877853394,
				0.17654579877853394,
				2.105287499887254e-09
			],
			"min":[
				-0.17654579877853394,
				-0.17654579877853394,
				-2.105287499887254e-09
			],
			"type":"VEC3"
		},
		{
			"bufferView":5,
			"componentType":5126,
			"count":12,
			"type":"VEC3"
		},
		{
			"bufferView":6,
			"componentType":5126,
			"count":12,
			"type":"VEC2"
		},
		{
			"bufferView":7,
			"componentType":5123,
			"count":12,
			"type":"SCALAR"
		},
		{
			"bufferView":8,
			"componentType":5126,
			"count":136,
			"max":[
				0.15645529329776764,
				0.15645529329776764,
				-0.0034056503791362047
			],
			"min":[
				-0.15645529329776764,
				-0.15645529329776764,
				-0.03728453814983368
			],
			"type":"VEC3"
		},
		{
			"bufferView":9,
			"componentType":5126,
			"count":136,
			"type":"VEC3"
		},
		{
			"bufferView":10,
			"componentType":5126,
			"count":136,
			"type":"VEC2"
		},
		{
			"bufferView":11,
			"componentType":5123,
			"count":282,
			"type":"SCALAR"
		},
		{
			"bufferView":12,
			"componentType":5126,
			"count":184,
			"max":[
				0.17059142887592316,
				0.17059142887592316,
				-0.01169554702937603
			],
			"min":[
				-0.17059142887592316,
				-0.17059142887592316,
				-0.03728453814983368
			],
			"type":"VEC3"
		},
		{
			"bufferView":13,
			"componentType":5126,
			"count":184,
			"type":"VEC3"
		},
		{
			"bufferView":14,
			"componentType":5126,
			"count":184,
			"type":"VEC2"
		},
		{
			"bufferView":15,
			"componentType":5123,
			"count":498,
			"type":"SCALAR"
		},
		{
			"bufferView":16,
			"componentType":5126,
			"count":4,
			"max":[
				0.020516879856586456,
				0.1334495097398758,
				-0.024073729291558266
			],
			"min":[
				-0.020516879856586456,
				0.09241575002670288,
				-0.024073729291558266
			],
			"type":"VEC3"
		},
		{
			"bufferView":17,
			"componentType":5126,
			"count":4,
			"type":"VEC3"
		},
		{
			"bufferView":18,
			"componentType":5126,
			"count":4,
			"type":"VEC2"
		},
		{
			"bufferView":19,
			"componentType":5123,
			"count":6,
			"type":"SCALAR"
		}
	],
	"bufferViews":[
		{
			"buffer":0,
			"byteLength":1920,
			"byteOffset":0,
			"target":34962
		},
		{
			"buffer":0,
			"byteLength":1920,
			"byteOffset":1920,
			"target":34962
		},
		{
			"buffer":0,
			"byteLength":1280,
			"byteOffset":3840,
			"target":34962
		},
		{
			"buffer":0,
			"byteLength":708,
			"byteOffset":5120,
			"target":34963
		},
		{
			"buffer":0,
			"byteLength":144,
			"byteOffset":5828,
			"target":34962
		},
		{
			"buffer":0,
			"byteLength":144,
			"byteOffset":5972,
			"target":34962
		},
		{
			"buffer":0,
			"byteLength":96,
			"byteOffset":6116,
			"target":34962
		},
		{
			"buffer":0,
			"byteLength":24,
			"byteOffset":6212,
			"target":34963
		},
		{
			"buffer":0,
			"byteLength":1632,
			"byteOffset":6236,
			"target":34962
		},
		{
			"buffer":0,
			"byteLength":1632,
			"byteOffset":7868,
			"target":34962
		},
		{
			"buffer":0,
			"byteLength":1088,
			"byteOffset":9500,
			"target":34962
		},
		{
			"buffer":0,
			"byteLength":564,
			"byteOffset":10588,
			"target":34963
		},
		{
			"buffer":0,
			"byteLength":2208,
			"byteOffset":11152,
			"target":34962
		},
		{
			"buffer":0,
			"byteLength":2208,
			"byteOffset":13360,
			"target":34962
		},
		{
			"buffer":0,
			"byteLength":1472,
			"byteOffset":15568,
			"target":34962
		},
		{
			"buffer":0,
			"byteLength":996,
			"byteOffset":17040,
			"target":34963
		},
		{
			"buffer":0,
			"byteLength":48,
			"byteOffset":18036,
			"target":34962
		},
		{
			"buffer":0,
			"byteLength":48,
			"byteOffset":18084,
			"target":34962
		},
		{
			"buffer":0,
			"byteLength":32,
			"byteOffset":18132,
			"target":34962
		},
		{
			"buffer":0,
			"byteLength":12,
			"byteOffset":18164,
			"target":34963
		}
	],
	"samplers":[
		{
			"magFilter":9729,
			"minFilter":9987
		}
	],
	"buffers":[
		{
			"byteLength":18176,
			"uri":"mdl_zesty_compasslock.bin"
		}
	]
}
