{
	"asset":{
		"generator":"Khronos glTF Blender I/O v4.3.47",
		"version":"2.0"
	},
	"extensionsUsed":[
		"KHR_materials_transmission",
		"KHR_materials_ior"
	],
	"scene":0,
	"scenes":[
		{
			"name":"Scene",
			"nodes":[
				0
			]
		}
	],
	"nodes":[
		{
			"mesh":0,
			"name":"mdl_zesty_trophydoor"
		}
	],
	"materials":[
		{
			"doubleSided":true,
			"name":"gold-dark",
			"pbrMetallicRoughness":{
				"baseColorFactor":[
					0.28291746973991394,
					0.16348318755626678,
					0.019985130056738853,
					1
				],
				"roughnessFactor":0.10000000149011612
			}
		},
		{
			"doubleSided":true,
			"extensions":{
				"KHR_materials_transmission":{
					"transmissionFactor":0.949999988079071
				},
				"KHR_materials_ior":{
					"ior":1.4500000476837158
				}
			},
			"name":"glass",
			"pbrMetallicRoughness":{
				"metallicFactor":0,
				"roughnessFactor":0
			}
		}
	],
	"meshes":[
		{
			"name":"Circle.005",
			"primitives":[
				{
					"attributes":{
						"POSITION":0,
						"NORMAL":1,
						"TEXCOORD_0":2
					},
					"indices":3,
					"material":0
				},
				{
					"attributes":{
						"POSITION":4,
						"NORMAL":5,
						"TEXCOORD_0":6
					},
					"indices":7,
					"material":1
				}
			]
		}
	],
	"accessors":[
		{
			"bufferView":0,
			"componentType":5126,
			"count":16,
			"max":[
				0.3153652548789978,
				0.24449947476387024,
				0.09566477686166763
			],
			"min":[
				0,
				-0.24449947476387024,
				0
			],
			"type":"VEC3"
		},
		{
			"bufferView":1,
			"componentType":5126,
			"count":16,
			"type":"VEC3"
		},
		{
			"bufferView":2,
			"componentType":5126,
			"count":16,
			"type":"VEC2"
		},
		{
			"bufferView":3,
			"componentType":5123,
			"count":48,
			"type":"SCALAR"
		},
		{
			"bufferView":4,
			"componentType":5126,
			"count":8,
			"max":[
				0.2953105866909027,
				0.21993544697761536,
				0.08494538813829422
			],
			"min":[
				0.022630229592323303,
				-0.21993544697761536,
				0.00222889706492424
			],
			"type":"VEC3"
		},
		{
			"bufferView":5,
			"componentType":5126,
			"count":8,
			"type":"VEC3"
		},
		{
			"bufferView":6,
			"componentType":5126,
			"count":8,
			"type":"VEC2"
		},
		{
			"bufferView":7,
			"componentType":5123,
			"count":18,
			"type":"SCALAR"
		}
	],
	"bufferViews":[
		{
			"buffer":0,
			"byteLength":192,
			"byteOffset":0,
			"target":34962
		},
		{
			"buffer":0,
			"byteLength":192,
			"byteOffset":192,
			"target":34962
		},
		{
			"buffer":0,
			"byteLength":128,
			"byteOffset":384,
			"target":34962
		},
		{
			"buffer":0,
			"byteLength":96,
			"byteOffset":512,
			"target":34963
		},
		{
			"buffer":0,
			"byteLength":96,
			"byteOffset":608,
			"target":34962
		},
		{
			"buffer":0,
			"byteLength":96,
			"byteOffset":704,
			"target":34962
		},
		{
			"buffer":0,
			"byteLength":64,
			"byteOffset":800,
			"target":34962
		},
		{
			"buffer":0,
			"byteLength":36,
			"byteOffset":864,
			"target":34963
		}
	],
	"buffers":[
		{
			"byteLength":900,
			"uri":"mdl_zesty_trophydoor.bin"
		}
	]
}
