{
	"asset":{
		"generator":"Khronos glTF Blender I/O v4.2.57",
		"version":"2.0"
	},
	"scene":0,
	"scenes":[
		{
			"name":"Scene",
			"nodes":[
				0
			]
		}
	],
	"nodes":[
		{
			"mesh":0,
			"name":"jersey",
			"rotation":[
				0.7071068286895752,
				0,
				0,
				0.7071068286895752
			]
		}
	],
	"materials":[
		{
			"doubleSided":true,
			"name":"jersey",
			"pbrMetallicRoughness":{
				"baseColorTexture":{
					"index":0
				},
				"metallicFactor":0,
				"roughnessFactor":0.5
			}
		},
		{
			"doubleSided":true,
			"name":"black",
			"pbrMetallicRoughness":{
				"baseColorFactor":[
					0,
					0,
					0,
					1
				],
				"metallicFactor":0,
				"roughnessFactor":0.5
			}
		},
		{
			"doubleSided":true,
			"name":"metal",
			"pbrMetallicRoughness":{
				"baseColorFactor":[
					0.800000011920929,
					0.800000011920929,
					0.800000011920929,
					1
				],
				"roughnessFactor":0
			}
		}
	],
	"meshes":[
		{
			"name":"T-shirt_LOD00",
			"primitives":[
				{
					"attributes":{
						"POSITION":0,
						"NORMAL":1,
						"TEXCOORD_0":2
					},
					"indices":3,
					"material":0
				},
				{
					"attributes":{
						"POSITION":4,
						"NORMAL":5,
						"TEXCOORD_0":6
					},
					"indices":7,
					"material":1
				},
				{
					"attributes":{
						"POSITION":8,
						"NORMAL":9,
						"TEXCOORD_0":10
					},
					"indices":11,
					"material":2
				}
			]
		}
	],
	"textures":[
		{
			"sampler":0,
			"source":0
		}
	],
	"images":[
		{
			"mimeType":"image/jpeg",
			"name":"tx_zesty_jersey_13",
			"uri":"tx_zesty_jersey_13.jpg"
		}
	],
	"accessors":[
		{
			"bufferView":0,
			"componentType":5126,
			"count":3615,
			"max":[
				0.2633211314678192,
				0.048248209059238434,
				0.7884358167648315
			],
			"min":[
				-0.25424885749816895,
				-0.03946856036782265,
				0.14567627012729645
			],
			"type":"VEC3"
		},
		{
			"bufferView":1,
			"componentType":5126,
			"count":3615,
			"type":"VEC3"
		},
		{
			"bufferView":2,
			"componentType":5126,
			"count":3615,
			"type":"VEC2"
		},
		{
			"bufferView":3,
			"componentType":5123,
			"count":4788,
			"type":"SCALAR"
		},
		{
			"bufferView":4,
			"componentType":5126,
			"count":159,
			"max":[
				0.18381185829639435,
				0.00576284434646368,
				0.21472972631454468
			],
			"min":[
				-0.18381187319755554,
				-0.005762855987995863,
				0.07111217081546783
			],
			"type":"VEC3"
		},
		{
			"bufferView":5,
			"componentType":5126,
			"count":159,
			"type":"VEC3"
		},
		{
			"bufferView":6,
			"componentType":5126,
			"count":159,
			"type":"VEC2"
		},
		{
			"bufferView":7,
			"componentType":5123,
			"count":288,
			"type":"SCALAR"
		},
		{
			"bufferView":8,
			"componentType":5126,
			"count":200,
			"max":[
				0.02863849699497223,
				0.0018874143715947866,
				0.07158483564853668
			],
			"min":[
				-0.024554505944252014,
				-0.0018874139059334993,
				-0.005530623719096184
			],
			"type":"VEC3"
		},
		{
			"bufferView":9,
			"componentType":5126,
			"count":200,
			"type":"VEC3"
		},
		{
			"bufferView":10,
			"componentType":5126,
			"count":200,
			"type":"VEC2"
		},
		{
			"bufferView":11,
			"componentType":5123,
			"count":246,
			"type":"SCALAR"
		}
	],
	"bufferViews":[
		{
			"buffer":0,
			"byteLength":43380,
			"byteOffset":0,
			"target":34962
		},
		{
			"buffer":0,
			"byteLength":43380,
			"byteOffset":43380,
			"target":34962
		},
		{
			"buffer":0,
			"byteLength":28920,
			"byteOffset":86760,
			"target":34962
		},
		{
			"buffer":0,
			"byteLength":9576,
			"byteOffset":115680,
			"target":34963
		},
		{
			"buffer":0,
			"byteLength":1908,
			"byteOffset":125256,
			"target":34962
		},
		{
			"buffer":0,
			"byteLength":1908,
			"byteOffset":127164,
			"target":34962
		},
		{
			"buffer":0,
			"byteLength":1272,
			"byteOffset":129072,
			"target":34962
		},
		{
			"buffer":0,
			"byteLength":576,
			"byteOffset":130344,
			"target":34963
		},
		{
			"buffer":0,
			"byteLength":2400,
			"byteOffset":130920,
			"target":34962
		},
		{
			"buffer":0,
			"byteLength":2400,
			"byteOffset":133320,
			"target":34962
		},
		{
			"buffer":0,
			"byteLength":1600,
			"byteOffset":135720,
			"target":34962
		},
		{
			"buffer":0,
			"byteLength":492,
			"byteOffset":137320,
			"target":34963
		}
	],
	"samplers":[
		{
			"magFilter":9729,
			"minFilter":9987
		}
	],
	"buffers":[
		{
			"byteLength":137812,
			"uri":"mdl_zesty_jersey.bin"
		}
	]
}
