{
	"asset":{
		"generator":"Khronos glTF Blender I/O v4.3.47",
		"version":"2.0"
	},
	"scene":0,
	"scenes":[
		{
			"name":"Scene",
			"nodes":[
				0
			]
		}
	],
	"nodes":[
		{
			"mesh":0,
			"name":"mdl_zesty_maple_tri_slot"
		}
	],
	"materials":[
		{
			"doubleSided":true,
			"name":"frame",
			"pbrMetallicRoughness":{
				"baseColorFactor":[
					0.8040438890457153,
					0.47921639680862427,
					0.005136226303875446,
					1
				],
				"metallicFactor":0.800000011920929,
				"roughnessFactor":0.10000000149011612
			}
		},
		{
			"doubleSided":true,
			"name":"frame-dark",
			"pbrMetallicRoughness":{
				"baseColorFactor":[
					0.5427427887916565,
					0.31198057532310486,
					0,
					1
				],
				"metallicFactor":0.75,
				"roughnessFactor":0.10000000149011612
			}
		}
	],
	"meshes":[
		{
			"name":"Cube.014",
			"primitives":[
				{
					"attributes":{
						"POSITION":0,
						"NORMAL":1,
						"TEXCOORD_0":2
					},
					"indices":3,
					"material":0
				},
				{
					"attributes":{
						"POSITION":4,
						"NORMAL":5,
						"TEXCOORD_0":6
					},
					"indices":7,
					"material":1
				}
			]
		}
	],
	"accessors":[
		{
			"bufferView":0,
			"componentType":5126,
			"count":14,
			"max":[
				0.006862260401248932,
				0.020586781203746796,
				0.00814327597618103
			],
			"min":[
				-0.006862260401248932,
				-0.020586781203746796,
				3.725290298461914e-09
			],
			"type":"VEC3"
		},
		{
			"bufferView":1,
			"componentType":5126,
			"count":14,
			"type":"VEC3"
		},
		{
			"bufferView":2,
			"componentType":5126,
			"count":14,
			"type":"VEC2"
		},
		{
			"bufferView":3,
			"componentType":5123,
			"count":18,
			"type":"SCALAR"
		},
		{
			"bufferView":4,
			"componentType":5126,
			"count":16,
			"max":[
				0.01486225612461567,
				0.02858678624033928,
				0.00814327597618103
			],
			"min":[
				-0.01486225612461567,
				-0.02858678624033928,
				3.725290298461914e-09
			],
			"type":"VEC3"
		},
		{
			"bufferView":5,
			"componentType":5126,
			"count":16,
			"type":"VEC3"
		},
		{
			"bufferView":6,
			"componentType":5126,
			"count":16,
			"type":"VEC2"
		},
		{
			"bufferView":7,
			"componentType":5123,
			"count":24,
			"type":"SCALAR"
		}
	],
	"bufferViews":[
		{
			"buffer":0,
			"byteLength":168,
			"byteOffset":0,
			"target":34962
		},
		{
			"buffer":0,
			"byteLength":168,
			"byteOffset":168,
			"target":34962
		},
		{
			"buffer":0,
			"byteLength":112,
			"byteOffset":336,
			"target":34962
		},
		{
			"buffer":0,
			"byteLength":36,
			"byteOffset":448,
			"target":34963
		},
		{
			"buffer":0,
			"byteLength":192,
			"byteOffset":484,
			"target":34962
		},
		{
			"buffer":0,
			"byteLength":192,
			"byteOffset":676,
			"target":34962
		},
		{
			"buffer":0,
			"byteLength":128,
			"byteOffset":868,
			"target":34962
		},
		{
			"buffer":0,
			"byteLength":48,
			"byteOffset":996,
			"target":34963
		}
	],
	"buffers":[
		{
			"byteLength":1044,
			"uri":"mdl_zesty_maple_tri_slot.bin"
		}
	]
}
