{
	"asset":{
		"generator":"Khronos glTF Blender I/O v4.3.47",
		"version":"2.0"
	},
	"scene":0,
	"scenes":[
		{
			"name":"Scene",
			"nodes":[
				0
			]
		}
	],
	"nodes":[
		{
			"mesh":0,
			"name":"mdl_zesty_standee"
		}
	],
	"materials":[
		{
			"doubleSided":true,
			"name":"standee",
			"pbrMetallicRoughness":{
				"baseColorTexture":{
					"index":0
				},
				"metallicFactor":0,
				"roughnessFactor":0.800000011920929
			}
		}
	],
	"meshes":[
		{
			"name":"Curve.002",
			"primitives":[
				{
					"attributes":{
						"POSITION":0,
						"NORMAL":1,
						"TEXCOORD_0":2
					},
					"indices":3,
					"material":0
				}
			]
		}
	],
	"textures":[
		{
			"sampler":0,
			"source":0
		}
	],
	"images":[
		{
			"mimeType":"image/png",
			"name":"tx_zesty_standee",
			"uri":"tx_zesty_standee.png"
		}
	],
	"accessors":[
		{
			"bufferView":0,
			"componentType":5126,
			"count":2514,
			"max":[
				0.48496317863464355,
				0.970685601234436,
				0.26568862795829773
			],
			"min":[
				-0.29479140043258667,
				-0.9461358785629272,
				-0.15819263458251953
			],
			"type":"VEC3"
		},
		{
			"bufferView":1,
			"componentType":5126,
			"count":2514,
			"type":"VEC3"
		},
		{
			"bufferView":2,
			"componentType":5126,
			"count":2514,
			"type":"VEC2"
		},
		{
			"bufferView":3,
			"componentType":5123,
			"count":4992,
			"type":"SCALAR"
		}
	],
	"bufferViews":[
		{
			"buffer":0,
			"byteLength":30168,
			"byteOffset":0,
			"target":34962
		},
		{
			"buffer":0,
			"byteLength":30168,
			"byteOffset":30168,
			"target":34962
		},
		{
			"buffer":0,
			"byteLength":20112,
			"byteOffset":60336,
			"target":34962
		},
		{
			"buffer":0,
			"byteLength":9984,
			"byteOffset":80448,
			"target":34963
		}
	],
	"samplers":[
		{
			"magFilter":9729,
			"minFilter":9987
		}
	],
	"buffers":[
		{
			"byteLength":90432,
			"uri":"mdl_zesty_standee.bin"
		}
	]
}
