{
	"asset":{
		"generator":"Khronos glTF Blender I/O v4.3.47",
		"version":"2.0"
	},
	"scene":0,
	"scenes":[
		{
			"name":"Scene",
			"nodes":[
				0
			]
		}
	],
	"nodes":[
		{
			"mesh":0,
			"name":"mdl_zesty_condo_screen"
		}
	],
	"materials":[
		{
			"doubleSided":true,
			"name":"black screen",
			"pbrMetallicRoughness":{
				"baseColorFactor":[
					0,
					0,
					0,
					1
				],
				"metallicFactor":0
			}
		},
		{
			"doubleSided":true,
			"emissiveFactor":[
				0.8007433414459229,
				0.6950905323028564,
				0
			],
			"name":"screenglow",
			"pbrMetallicRoughness":{
				"baseColorFactor":[
					0.8007433414459229,
					0.6950905323028564,
					0,
					1
				],
				"metallicFactor":0,
				"roughnessFactor":0
			}
		}
	],
	"meshes":[
		{
			"name":"Cube.004",
			"primitives":[
				{
					"attributes":{
						"POSITION":0,
						"NORMAL":1,
						"TEXCOORD_0":2
					},
					"indices":3,
					"material":0
				},
				{
					"attributes":{
						"POSITION":4,
						"NORMAL":5,
						"TEXCOORD_0":6
					},
					"indices":7,
					"material":1
				}
			]
		}
	],
	"accessors":[
		{
			"bufferView":0,
			"componentType":5126,
			"count":36,
			"max":[
				0.492000013589859,
				0.492000013589859,
				1.8181995642407855e-07
			],
			"min":[
				-0.492000013589859,
				-0.492000013589859,
				-1.8181995642407855e-07
			],
			"type":"VEC3"
		},
		{
			"bufferView":1,
			"componentType":5126,
			"count":36,
			"type":"VEC3"
		},
		{
			"bufferView":2,
			"componentType":5126,
			"count":36,
			"type":"VEC2"
		},
		{
			"bufferView":3,
			"componentType":5123,
			"count":54,
			"type":"SCALAR"
		},
		{
			"bufferView":4,
			"componentType":5126,
			"count":52,
			"max":[
				0.5,
				0.5,
				1.8477638263902918e-07
			],
			"min":[
				-0.5,
				-0.5,
				-1.8477638263902918e-07
			],
			"type":"VEC3"
		},
		{
			"bufferView":5,
			"componentType":5126,
			"count":52,
			"type":"VEC3"
		},
		{
			"bufferView":6,
			"componentType":5126,
			"count":52,
			"type":"VEC2"
		},
		{
			"bufferView":7,
			"componentType":5123,
			"count":216,
			"type":"SCALAR"
		}
	],
	"bufferViews":[
		{
			"buffer":0,
			"byteLength":432,
			"byteOffset":0,
			"target":34962
		},
		{
			"buffer":0,
			"byteLength":432,
			"byteOffset":432,
			"target":34962
		},
		{
			"buffer":0,
			"byteLength":288,
			"byteOffset":864,
			"target":34962
		},
		{
			"buffer":0,
			"byteLength":108,
			"byteOffset":1152,
			"target":34963
		},
		{
			"buffer":0,
			"byteLength":624,
			"byteOffset":1260,
			"target":34962
		},
		{
			"buffer":0,
			"byteLength":624,
			"byteOffset":1884,
			"target":34962
		},
		{
			"buffer":0,
			"byteLength":416,
			"byteOffset":2508,
			"target":34962
		},
		{
			"buffer":0,
			"byteLength":432,
			"byteOffset":2924,
			"target":34963
		}
	],
	"buffers":[
		{
			"byteLength":3356,
			"uri":"mdl_zesty_condo_screen.bin"
		}
	]
}
