{
	"asset":{
		"generator":"Khronos glTF Blender I/O v4.3.47",
		"version":"2.0"
	},
	"scene":0,
	"scenes":[
		{
			"name":"Scene",
			"nodes":[
				0
			]
		}
	],
	"nodes":[
		{
			"mesh":0,
			"name":"mdl_zesty_maple_tri_lg_garnet"
		}
	],
	"materials":[
		{
			"doubleSided":true,
			"name":"frame",
			"pbrMetallicRoughness":{
				"baseColorFactor":[
					0.8031071424484253,
					0.572740912437439,
					0,
					1
				],
				"metallicFactor":0.5936794877052307,
				"roughnessFactor":0.10000000149011612
			}
		},
		{
			"doubleSided":true,
			"name":"garnet",
			"pbrMetallicRoughness":{
				"baseColorFactor":[
					0.6455230712890625,
					0,
					0.003049807623028755,
					1
				],
				"metallicFactor":0.75,
				"roughnessFactor":0.10000000149011612
			}
		}
	],
	"meshes":[
		{
			"name":"Cube.029",
			"primitives":[
				{
					"attributes":{
						"POSITION":0,
						"NORMAL":1,
						"TEXCOORD_0":2
					},
					"indices":3,
					"material":0
				},
				{
					"attributes":{
						"POSITION":4,
						"NORMAL":5,
						"TEXCOORD_0":6
					},
					"indices":7,
					"material":1
				}
			]
		}
	],
	"accessors":[
		{
			"bufferView":0,
			"componentType":5126,
			"count":48,
			"max":[
				0.05527831241488457,
				0.12325829267501831,
				0.014002676121890545
			],
			"min":[
				-0.05527831241488457,
				-0.05164368078112602,
				-0.010000000707805157
			],
			"type":"VEC3"
		},
		{
			"bufferView":1,
			"componentType":5126,
			"count":48,
			"type":"VEC3"
		},
		{
			"bufferView":2,
			"componentType":5126,
			"count":48,
			"type":"VEC2"
		},
		{
			"bufferView":3,
			"componentType":5123,
			"count":84,
			"type":"SCALAR"
		},
		{
			"bufferView":4,
			"componentType":5126,
			"count":12,
			"max":[
				0.04898298531770706,
				0.10884343832731247,
				-0.010000000707805157
			],
			"min":[
				-0.04898298531770706,
				-0.04613997042179108,
				-0.025820577517151833
			],
			"type":"VEC3"
		},
		{
			"bufferView":5,
			"componentType":5126,
			"count":12,
			"type":"VEC3"
		},
		{
			"bufferView":6,
			"componentType":5126,
			"count":12,
			"type":"VEC2"
		},
		{
			"bufferView":7,
			"componentType":5123,
			"count":12,
			"type":"SCALAR"
		}
	],
	"bufferViews":[
		{
			"buffer":0,
			"byteLength":576,
			"byteOffset":0,
			"target":34962
		},
		{
			"buffer":0,
			"byteLength":576,
			"byteOffset":576,
			"target":34962
		},
		{
			"buffer":0,
			"byteLength":384,
			"byteOffset":1152,
			"target":34962
		},
		{
			"buffer":0,
			"byteLength":168,
			"byteOffset":1536,
			"target":34963
		},
		{
			"buffer":0,
			"byteLength":144,
			"byteOffset":1704,
			"target":34962
		},
		{
			"buffer":0,
			"byteLength":144,
			"byteOffset":1848,
			"target":34962
		},
		{
			"buffer":0,
			"byteLength":96,
			"byteOffset":1992,
			"target":34962
		},
		{
			"buffer":0,
			"byteLength":24,
			"byteOffset":2088,
			"target":34963
		}
	],
	"buffers":[
		{
			"byteLength":2112,
			"uri":"mdl_zesty_maple_tri_lg_garnet.bin"
		}
	]
}
