{
	"asset":{
		"generator":"Khronos glTF Blender I/O v4.3.47",
		"version":"2.0"
	},
	"scene":0,
	"scenes":[
		{
			"name":"Scene",
			"nodes":[
				0
			]
		}
	],
	"nodes":[
		{
			"mesh":0,
			"name":"mdl_zesty_powerlinkoff"
		}
	],
	"materials":[
		{
			"doubleSided":true,
			"name":"black",
			"pbrMetallicRoughness":{
				"baseColorFactor":[
					0,
					0,
					0,
					1
				],
				"metallicFactor":0.45075759291648865,
				"roughnessFactor":0.09848484396934509
			}
		},
		{
			"doubleSided":true,
			"name":"power-off",
			"pbrMetallicRoughness":{
				"baseColorFactor":[
					0,
					0.0031721037812530994,
					0.8018419742584229,
					1
				],
				"metallicFactor":0,
				"roughnessFactor":0.5
			}
		}
	],
	"meshes":[
		{
			"name":"Cube.005",
			"primitives":[
				{
					"attributes":{
						"POSITION":0,
						"NORMAL":1,
						"TEXCOORD_0":2
					},
					"indices":3,
					"material":0
				},
				{
					"attributes":{
						"POSITION":4,
						"NORMAL":5,
						"TEXCOORD_0":6
					},
					"indices":7,
					"material":1
				}
			]
		}
	],
	"accessors":[
		{
			"bufferView":0,
			"componentType":5126,
			"count":96,
			"max":[
				0.05000000447034836,
				0.04999999701976776,
				0.050000011920928955
			],
			"min":[
				-0.04999999701976776,
				-0.05000000447034836,
				-0.05000007152557373
			],
			"type":"VEC3"
		},
		{
			"bufferView":1,
			"componentType":5126,
			"count":96,
			"type":"VEC3"
		},
		{
			"bufferView":2,
			"componentType":5126,
			"count":96,
			"type":"VEC2"
		},
		{
			"bufferView":3,
			"componentType":5123,
			"count":132,
			"type":"SCALAR"
		},
		{
			"bufferView":4,
			"componentType":5126,
			"count":760,
			"max":[
				0.05456167459487915,
				0.054253000766038895,
				0.054561637341976166
			],
			"min":[
				-0.05456165969371796,
				-0.01220627035945654,
				-0.05456169694662094
			],
			"type":"VEC3"
		},
		{
			"bufferView":5,
			"componentType":5126,
			"count":760,
			"type":"VEC3"
		},
		{
			"bufferView":6,
			"componentType":5126,
			"count":760,
			"type":"VEC2"
		},
		{
			"bufferView":7,
			"componentType":5123,
			"count":2466,
			"type":"SCALAR"
		}
	],
	"bufferViews":[
		{
			"buffer":0,
			"byteLength":1152,
			"byteOffset":0,
			"target":34962
		},
		{
			"buffer":0,
			"byteLength":1152,
			"byteOffset":1152,
			"target":34962
		},
		{
			"buffer":0,
			"byteLength":768,
			"byteOffset":2304,
			"target":34962
		},
		{
			"buffer":0,
			"byteLength":264,
			"byteOffset":3072,
			"target":34963
		},
		{
			"buffer":0,
			"byteLength":9120,
			"byteOffset":3336,
			"target":34962
		},
		{
			"buffer":0,
			"byteLength":9120,
			"byteOffset":12456,
			"target":34962
		},
		{
			"buffer":0,
			"byteLength":6080,
			"byteOffset":21576,
			"target":34962
		},
		{
			"buffer":0,
			"byteLength":4932,
			"byteOffset":27656,
			"target":34963
		}
	],
	"buffers":[
		{
			"byteLength":32588,
			"uri":"mdl_zesty_powerbox.bin"
		}
	]
}
